<svg xmlns="http://www.w3.org/2000/svg" xmlns:xlink="http://www.w3.org/1999/xlink" width="58.977" height="59.005" viewBox="0 0 58.977 59.005">
  <defs>
    <linearGradient id="linear-gradient" x1="0.5" x2="0.5" y2="1" gradientUnits="objectBoundingBox">
      <stop offset="0" stop-color="#389df9"/>
      <stop offset="1" stop-color="#27c0fa"/>
    </linearGradient>
  </defs>
  <path id="Path_1117" data-name="Path 1117" d="M43.689,17.151,17.16,43.68a1.537,1.537,0,0,0,2.173,2.173L45.862,19.324a1.536,1.536,0,0,0-2.173-2.173Zm8.684-6.51A29.5,29.5,0,0,0,10.65,52.365,29.5,29.5,0,0,0,52.373,10.641ZM50.2,50.191A26.43,26.43,0,0,1,12.823,12.813,26.43,26.43,0,0,1,50.2,50.191ZM39.5,34.922a4.572,4.572,0,1,0,3.233,1.339A4.539,4.539,0,0,0,39.5,34.922Zm1.06,5.631a1.534,1.534,0,0,1-2.119,0,1.5,1.5,0,1,1,2.119-2.119A1.5,1.5,0,0,1,40.562,40.553ZM23.52,28.083a4.569,4.569,0,1,0-3.233-1.339A4.539,4.539,0,0,0,23.52,28.083Zm-1.059-5.631a1.5,1.5,0,1,1,2.118,2.119,1.531,1.531,0,0,1-2.117,0,1.5,1.5,0,0,1,0-2.119Z" transform="translate(-2.023 -2)" fill="url(#linear-gradient)"/>
</svg>
