<svg xmlns="http://www.w3.org/2000/svg" xmlns:xlink="http://www.w3.org/1999/xlink" width="1094.851" height="403.524" viewBox="0 0 1094.851 403.524">
  <defs>
    <linearGradient id="linear-gradient" y1="0.5" x2="1" y2="0.5" gradientUnits="objectBoundingBox">
      <stop offset="0" stop-color="#389df9"/>
      <stop offset="1" stop-color="#27c0fa"/>
    </linearGradient>
    <linearGradient id="linear-gradient-2" x1="-0.059" y1="1.023" x2="0.942" y2="0" xlink:href="#linear-gradient"/>
    <clipPath id="clip-path">
      <path id="Path_16066" data-name="Path 16066" d="M0,0,.362,4.128.719,5.351,2.854,6.925s3.312.555,3.414,0,0-4.224,0-4.224Z" transform="translate(0 0)" fill="none" stroke="#707070" stroke-width="1"/>
    </clipPath>
  </defs>
  <g id="Group_1108" data-name="Group 1108" transform="translate(-825 -481.947)">
    <rect id="Rectangle_1636" data-name="Rectangle 1636" width="1094.851" height="152.269" transform="translate(825 733.203)" fill="#fff"/>
    <path id="Path_15904" data-name="Path 15904" d="M1146.45,1724.317c0,14.256-207.593,25.812-463.673,25.812S219.1,1738.573,219.1,1724.317s207.593-25.812,463.673-25.812S1146.45,1710.061,1146.45,1724.317Z" transform="translate(689.646 -928.277)" fill="url(#linear-gradient)"/>
    <g id="Group_1005" data-name="Group 1005" transform="translate(1599.987 530.227)">
      <g id="Group_983" data-name="Group 983" transform="translate(0 30.59)">
        <path id="Path_15905" data-name="Path 15905" d="M2076.126,1185.9l-24.265,13.338-24.367-38.346,29.472-10.237Z" transform="translate(-2027.493 -1150.651)" fill="#292c47"/>
      </g>
      <g id="Group_984" data-name="Group 984" transform="translate(1.614 31.722)">
        <path id="Path_15906" data-name="Path 15906" d="M2077.195,1186.575l-22.692,12.473-22.788-35.86,27.561-9.574Z" transform="translate(-2031.715 -1153.614)" fill="#e2d2ca"/>
      </g>
      <g id="Group_985" data-name="Group 985" transform="translate(26.632 50.007)">
        <path id="Path_15907" data-name="Path 15907" d="M2125.94,1209.421s-4.224-2.02-6.077-3.076-6.622-2.505-7.008-2.849-14.135-1.193-14.97-1.912-1.645,1.687,1.919,2.467,8.522,2.689,8.794,4.082-3.661,1.723-4.059,2.87.112.89.675,1.136,4.677-2.032,6.485-1.386,4.573-.248,5.959.226,8.127,2.743,8.127,2.743Z" transform="translate(-2097.168 -1201.451)" fill="#eea886"/>
      </g>
      <g id="Group_986" data-name="Group 986" transform="translate(4.605 50.047)">
        <path id="Path_15908" data-name="Path 15908" d="M2058.12,1225.869s-3.548-3.193-5.265-4.529-4.94-5.265-5.414-5.494-6.628-12.856-7.631-13.363.949-2.206,3.072.848,5.854,6.985,7.272,6.7.2-4.121,1.124-4.942.883-.241,1.334.194-.094,5.2,1.22,6.651,1.547,4.407,2.533,5.528,5.749,6.591,5.749,6.591Z" transform="translate(-2039.54 -1201.554)" fill="#eea886"/>
      </g>
      <g id="Group_987" data-name="Group 987" transform="translate(99.596 244.355)">
        <path id="Path_15909" data-name="Path 15909" d="M2288.052,1710.584s.767,5.327.863,6.128,8.538-.472,8.538-.472l.684-6.343S2289.107,1709.832,2288.052,1710.584Z" transform="translate(-2288.052 -1709.896)" fill="#424773"/>
      </g>
      <g id="Group_988" data-name="Group 988" transform="translate(85.72 250.132)">
        <path id="Path_15910" data-name="Path 15910" d="M2266.4,1725.371a22.8,22.8,0,0,1-5.261,4.609c-2.587,1.4-6.653,1.953-8.182,3.4-1.1,1.045-4.022,5.546,6.722,5.456s15.924.636,17.076-1.09-1.666-12.737-1.666-12.737S2272.544,1725.926,2266.4,1725.371Z" transform="translate(-2251.75 -1725.01)" fill="#292c47"/>
      </g>
      <g id="Group_989" data-name="Group 989" transform="translate(39.109 244.355)">
        <path id="Path_15911" data-name="Path 15911" d="M2129.808,1710.584s.768,5.327.863,6.128,8.538-.472,8.538-.472l.684-6.343S2130.863,1709.832,2129.808,1710.584Z" transform="translate(-2129.808 -1709.896)" fill="#424773"/>
      </g>
      <g id="Group_990" data-name="Group 990" transform="translate(20.27 250.132)">
        <path id="Path_15912" data-name="Path 15912" d="M2100.135,1725.371a22.8,22.8,0,0,1-5.261,4.609c-2.587,1.4-12.107,2.548-13.636,4-1.1,1.045-2.941,5.254,12.177,4.861,10.741-.28,15.924.636,17.075-1.09s-1.665-12.737-1.665-12.737S2106.426,1725.988,2100.135,1725.371Z" transform="translate(-2080.522 -1725.01)" fill="#292c47"/>
      </g>
      <g id="Group_991" data-name="Group 991" transform="translate(73.236 108.158)">
        <path id="Path_15913" data-name="Path 15913" d="M2238.46,1353.581s7.933,12.6,7.341,23.994,2.876,23.829,4.067,35.73c1.328,13.267,6.765,44.674,6.962,51.771s-.844,29.757-.844,29.757l-10.882.249s-9.14-54.908-11.507-60.51-14.106-45.545-14.5-50.027S2238.46,1353.581,2238.46,1353.581Z" transform="translate(-2219.092 -1353.581)" fill="#292c47"/>
      </g>
      <g id="Group_992" data-name="Group 992" transform="translate(37.638 105.986)">
        <path id="Path_15914" data-name="Path 15914" d="M2139.171,1351.779s-5.978,31.223-6.767,38.2-1.315,33.741-1.709,38.1-2.63,57.025-4.735,63.5h13.913s10.679-38.287,10.679-56.4,8.251-39.382,13.577-51.334,17.517-12.235,20.79-34.41C2184.919,1349.427,2143.6,1344.746,2139.171,1351.779Z" transform="translate(-2125.96 -1347.901)" fill="#292c47"/>
      </g>
      <g id="Group_993" data-name="Group 993" transform="translate(60.407 1.227)">
        <path id="Path_15915" data-name="Path 15915" d="M2204.489,1074.808s-10.647-3.977-15.556,4.128-4.436,24.329.93,26.325,13.429.952,16.176-4.12,5.228-12.4,5.109-17.3S2207.284,1076.222,2204.489,1074.808Z" transform="translate(-2185.527 -1073.832)" fill="#eea886"/>
      </g>
      <g id="Group_994" data-name="Group 994" transform="translate(65.583 22.921)">
        <path id="Path_15916" data-name="Path 15916" d="M2199.385,1140.693s.443,2.875-.289,4.291,13.794,1.453,13.794,1.453a95.716,95.716,0,0,1,3.414-14.21C2218.54,1125.719,2199.385,1140.693,2199.385,1140.693Z" transform="translate(-2199.069 -1130.588)" fill="#eea886"/>
      </g>
      <g id="Group_995" data-name="Group 995" transform="translate(60.863 0)">
        <path id="Path_15917" data-name="Path 15917" d="M2208.676,1095.183s-1,1.654-5.095,1.012-9.085-6.086-10.793-6.684-1.726-1.6-1.726-1.6l-1.07,1.563-1.815.115s1.655-4.87-.842-6.857,2.592-15.764,15.717-11.177c0,0,10.08,2.779,9.713,8.511S2210.932,1092.328,2208.676,1095.183Z" transform="translate(-2186.721 -1070.623)" fill="#3a3f47"/>
      </g>
      <g id="Group_996" data-name="Group 996" transform="translate(64.747 33.166)">
        <path id="Path_15918" data-name="Path 15918" d="M2196.883,1161.371s.046-2.706,1.272-2.965,13.536-1.443,15.042-.851v3.152S2210.3,1162.491,2196.883,1161.371Z" transform="translate(-2196.883 -1157.391)" fill="#e2d2ca"/>
      </g>
      <g id="Group_997" data-name="Group 997" transform="translate(65.153 13.112)">
        <path id="Path_15919" data-name="Path 15919" d="M2198.268,1107.015c.23-.961,2.675-3.709,3.611-.767s-1.415,6.9-2.726,6.561S2197.686,1109.453,2198.268,1107.015Z" transform="translate(-2197.946 -1104.925)" fill="#eea886"/>
      </g>
      <g id="Group_998" data-name="Group 998" transform="translate(15.841 69.111)">
        <path id="Path_15920" data-name="Path 15920" d="M2068.986,1251.43a.034.034,0,0,1,.02,0C2068.922,1251.465,2068.91,1251.469,2068.986,1251.43Z" transform="translate(-2068.935 -1251.428)" fill="#323657"/>
      </g>
      <g id="Group_999" data-name="Group 999" transform="translate(15.913 36.481)">
        <path id="Path_15921" data-name="Path 15921" d="M2154.764,1267.763a112.615,112.615,0,0,1-17.664,3.15c-11.134,1.227-38.954-.443-39.129-1.758s5.984-48.981,5.634-51.437-.539-11.2-.539-11.2c-.137,2.4-2.579,12.185-5.526,17.522-1.065,1.928-4.637,7.971-6.359,6.6-8.335-6.655-21.24-31.73-22.058-31.942.688-.3,6.116-2.8,6.878-3.053.667-.223,6.68,6.144,10.323,10.089,1.625,1.76,2.778,3.037,2.778,3.037,1.052-2.367,4.884-17.278,6.074-22.438,2.686-11.638,2.273-12.122,2.273-12.122,8.146-2.464,20.51-7.479,20.51-7.479l16.314-.665s14.973,3.3,20.87,5.959c.559.253.562,13.358,2.1,16.794l-4.889,10.314s-2.824,20.43-3.41,29.517C2148.671,1232.82,2154.764,1267.763,2154.764,1267.763Z" transform="translate(-2069.123 -1166.064)" fill="#323657"/>
      </g>
      <g id="Group_1000" data-name="Group 1000" transform="translate(86.543 42.44)">
        <path id="Path_15922" data-name="Path 15922" d="M2272.067,1215.463c-.426,1.375-2.36,2.536-3.617,3.044a4.677,4.677,0,0,1-2.612.263l-.639-.118h0l-11.18-2.073s-2.447-28.173,15.274-34.924C2269.761,1181.808,2275.98,1202.849,2272.067,1215.463Z" transform="translate(-2253.905 -1181.654)" fill="#323657"/>
      </g>
      <g id="Group_1001" data-name="Group 1001" transform="translate(97.838 65.041)">
        <path id="Path_15923" data-name="Path 15923" d="M2286.705,1255.032h0a4.678,4.678,0,0,1-2.612.263l-.639-.118h0l1.1-14.4Z" transform="translate(-2283.454 -1240.78)" fill="#252840"/>
      </g>
      <g id="Group_1002" data-name="Group 1002" transform="translate(33.111 76.148)">
        <path id="Path_15924" data-name="Path 15924" d="M2116.9,1272.877l-1.366,5.787s-1.483-5.807-1.412-8.824C2115.743,1271.6,2116.9,1272.877,2116.9,1272.877Z" transform="translate(-2114.117 -1269.84)" fill="#252840"/>
      </g>
      <g id="Group_1003" data-name="Group 1003" transform="translate(82.401 3.135)">
        <path id="Path_15925" data-name="Path 15925" d="M2243.067,1078.849s13.955-1.61.239,21.7Z" transform="translate(-2243.067 -1078.825)" fill="#3a3f47"/>
      </g>
      <g id="Group_1004" data-name="Group 1004" transform="translate(9.799 32.478)">
        <path id="Path_15926" data-name="Path 15926" d="M2054.548,1161.883l-1.418-2.437,11.172-3.855,1.417,2.424Z" transform="translate(-2053.13 -1155.592)" fill="#292c47"/>
      </g>
    </g>
    <rect id="Rectangle_1639" data-name="Rectangle 1639" width="133.713" height="310.371" rx="35.986" transform="translate(1408.034 795.097) rotate(180)" fill="#587aa3"/>
    <rect id="Rectangle_1640" data-name="Rectangle 1640" width="157.986" height="315.533" rx="12" transform="translate(1426.943 797.48) rotate(180)" fill="url(#linear-gradient-2)"/>
    <g id="Group_1009" data-name="Group 1009" transform="translate(1357.808 590.505)">
      <g id="Group_1008" data-name="Group 1008">
        <g id="Group_1007" data-name="Group 1007">
          <g id="Group_1006" data-name="Group 1006">
            <path id="Path_15927" data-name="Path 15927" d="M1393.911,1228.32l5.783,9.115,5.338,8.412c-.012-.045-.368-1.319-.971-5.008-.115-.7-.238-1.487-.37-2.37a6.261,6.261,0,0,0-.168-.776h0c-2.285-5.266-9.348-9.238-9.606-9.369Z" transform="translate(-1393.911 -1228.32)" fill="#eddad3"/>
          </g>
        </g>
      </g>
    </g>
    <g id="Group_1012" data-name="Group 1012" transform="translate(1357.814 590.508)">
      <g id="Group_1011" data-name="Group 1011">
        <g id="Group_1010" data-name="Group 1010">
          <path id="Path_15928" data-name="Path 15928" d="M1403.51,1237.637h0a11.883,11.883,0,0,1,.562,3.208l-2.091-3.156s-3.735-5.355-5.014-6.747a21.27,21.27,0,0,0-3.038-2.612S1401.277,1231.86,1403.51,1237.637Z" transform="translate(-1393.929 -1228.329)" fill="#ffca55"/>
        </g>
      </g>
    </g>
    <path id="Path_15929" data-name="Path 15929" d="M1324.215,965.125V1243.43a13.641,13.641,0,0,1-13.756,13.528h-106.2a13.645,13.645,0,0,1-13.756-13.528V965.125a13.647,13.647,0,0,1,13.756-13.534h106.2A13.642,13.642,0,0,1,1324.215,965.125Z" transform="translate(87.555 -464.862)" fill="#6bb0ff" opacity="0.73" style="mix-blend-mode: screen;isolation: isolate"/>
    <g id="Group_1018" data-name="Group 1018" transform="translate(1287.891 529.296)">
      <path id="Path_15930" data-name="Path 15930" d="M1297.209,1683.37s2.213,6.121,5.921,8.713,7.538,6.3,6.528,8.891-13.4,1.219-18.577-6.307c-3.273-4.755-6.6-5.815-6.59-8.068s3.807-6.754,4.005-7.391C1288.743,1678.418,1297.209,1683.37,1297.209,1683.37Z" transform="translate(-1256.399 -1445.599)" fill="#353a3d"/>
      <path id="Path_15931" data-name="Path 15931" d="M1304.511,1676.923a22.578,22.578,0,0,1-.916,2.217c-.1.013-9.563-2.524-8.712-4.163a15.052,15.052,0,0,1,1.975-2.7Z" transform="translate(-1262.785 -1441.37)" fill="#81807e"/>
      <g id="Group_1013" data-name="Group 1013" transform="translate(17.699 125.762)">
        <path id="Path_15932" data-name="Path 15932" d="M1257.3,1404.168s2.736-6.5,4.858-6.9.378,1.285.378,1.285-2.693,4.464-3.6,6.337A10.585,10.585,0,0,1,1257.3,1404.168Z" transform="translate(-1257.3 -1397.202)" fill="#434343"/>
      </g>
      <g id="Group_1014" data-name="Group 1014" transform="translate(20.203 114.442)">
        <path id="Path_15933" data-name="Path 15933" d="M1274.767,1373.823a51.8,51.8,0,0,0-.679,6.334c-.115,3.186.391,4.393-.553,5.909-.712,1.142-2.445,1.576-2.658,1.053s1.324-5.4-.681-6.09-1.518,6.182-2.552,5.324-4.723-4.987-3.573-7.315,3.6-3.435,4.771-7.106c1.06-3.331,2.574-4.343,2.574-4.343Z" transform="translate(-1263.851 -1367.588)" fill="#eea886"/>
      </g>
      <g id="Group_1015" data-name="Group 1015" transform="translate(23.056 127.584)">
        <path id="Path_15934" data-name="Path 15934" d="M1275.077,1402.135s2.419,1.622-.927,10.564l-2.833-1.57s1.817-4.953,1.878-7.982C1273.194,1403.146,1273.972,1401.44,1275.077,1402.135Z" transform="translate(-1271.316 -1401.968)" fill="#545554"/>
      </g>
      <g id="Group_1016" data-name="Group 1016" transform="translate(2.446 128.404)">
        <path id="Path_15935" data-name="Path 15935" d="M1248.661,1419.082l-21.1-14.967-10.169,28.911,18.384,22.261Z" transform="translate(-1217.396 -1404.115)" fill="#545554"/>
      </g>
      <path id="Path_15936" data-name="Path 15936" d="M1400.721,1442.289v56.754c-5.81-17.629-18.5-55.745-21.558-61.984-2.661-5.458-26.8-36.954-28.576-34.707s-11.666,28.652-12.98,35.15-30.9,54.737-30.9,54.737-.52-.107-1.315-.321c-2.064-.611-6.008-2.033-8.012-4.679a6.228,6.228,0,0,1-.611-.948s21.741-47.2,23.79-56.127c.719-3.119,1.529-18.363,4.388-34.264a132.66,132.66,0,0,1,5.275-20.763c.9-2.492,3.532-3.532,7.049-3.639.6-.031,1.223-.015,1.866.015,1.07.062,2.2.184,3.379.352a69.045,69.045,0,0,1,8.409,1.9c2.416.7,4.831,1.483,7.079,2.278,2.614.933,5.03,1.881,7.033,2.691.658.26,1.27.52,1.835.749.626.26,1.177.505,1.651.7,1.254.551,1.988.887,1.988.887s3.807,6.773,8.531,15.381c6.5,11.834,14.739,27.093,17.262,32.964A110.78,110.78,0,0,1,1400.721,1442.289Z" transform="translate(-1263.983 -1255.551)" fill="#353a3d"/>
      <path id="Path_15937" data-name="Path 15937" d="M1376.966,1223.934l8.929,9.984v16.528c-6.391-6.07-13.913-13.822-16.712-16.284a5.016,5.016,0,0,0-1.009-.764,7.785,7.785,0,0,1-1.988-2.645c-.245-.413-.52-.887-.8-1.376-.413-.749-.841-1.56-1.284-2.416-.29-.565-.6-1.147-.9-1.743s-.6-1.208-.9-1.8c-.6-1.208-1.193-2.416-1.727-3.547-.413-.857-.8-1.667-1.147-2.4-.23-.5-.459-.963-.657-1.391s-.382-.811-.535-1.162c-.382-.826-.627-1.361-.688-1.484a40.391,40.391,0,0,1-.076,7.079,34.371,34.371,0,0,1-.917,5.321,41.231,41.231,0,0,0-.948,8.241v.092c0,.077-.016.138-.016.214v.092c-.153,5.626.229,11.7.4,14.922.244,5.076-1.453,7.323-1.453,7.323s-.229-.031-.642-.092l-1.1-.153-1.253-.168-1.7-.245-6.59-.917-2.4-.336-.55-.077-4.175-.6-8.424-1.177-3.363-.474-1.82-.26-4.434-.627-1.988-.291h-.031s-1.713-12.094-1.835-18.623c-.122-6.1-3.44-18.592-3.884-20.228a.473.473,0,0,1-.031-.122v-.015c0-.015,0-.015-.015-.015v-.031s-9.617,10.106-11.483,14.51c-.459,1.085-1.682,3.669-3.318,6.972-.031.076-.061.153-.092.214-4.434,8.975-11.712,23-14.525,26.283-.337.428-.627.673-.826.7a1.5,1.5,0,0,1-.275.031c-1.758.015-4.709-2.431-6.162-3.746-.535-.474-.856-.795-.856-.795s.122-.291.367-.81c2.049-4.693,12.43-28.3,15.045-33.851.244-.52.428-.887.52-1.055a2.362,2.362,0,0,0,.153-.291c1.957-3.776,15.259-32.689,17.292-34.141a11.219,11.219,0,0,1,1.07-.627,4.008,4.008,0,0,0,.52-.26.258.258,0,0,0,.076-.031c.337-.153.688-.321,1.086-.5.123-.061.26-.122.4-.184.275-.122.551-.244.841-.382,1.605-.7,3.5-1.5,5.336-2.247.52-.214,1.025-.413,1.5-.6.719-.291,1.422-.55,2.064-.8.092-.031.168-.061.245-.092a31.1,31.1,0,0,1,4.128-1.406h.275c.138,0,.321.015.535.031,2.66.153,10.6.887,13.149,1.131.519.046.81.076.81.076s1.223.566,3.058,1.391l.015.016.153.061c1.07.489,2.324,1.07,3.654,1.682,2.783,1.284,5.933,2.752,8.424,3.929,2.386,1.147,5.994,3.089,6.269,3.3Z" transform="translate(-1249.157 -1136.746)" fill="#decbc4"/>
      <path id="Path_15938" data-name="Path 15938" d="M1423.427,1373.3s.886,1.06,1.143,5.548c0,0-36.432-4.25-40.284-5.925,0,0-.151-4.947.666-5.033C1385.85,1367.8,1423.427,1373.3,1423.427,1373.3Z" transform="translate(-1318.042 -1253.334)" fill="#495055"/>
      <path id="Path_15939" data-name="Path 15939" d="M1405.423,1154.825c.113,5.717,11.184,8.846,11.184,8.846s4.631-5.805,3.525-6.362c-.434-.218-.611-1.085-.665-2.057a20.17,20.17,0,0,1,.063-2.593c.033-.4.064-.665.064-.665s-1.582-1.669-3.594-3.657c-3.516-3.477-8.35-7.931-8.358-6.159a1.576,1.576,0,0,0,.041.336C1408.532,1146.5,1405.423,1154.825,1405.423,1154.825Z" transform="translate(-1331.106 -1113.648)" fill="#eea886"/>
      <path id="Path_15940" data-name="Path 15940" d="M1403.7,1369.852s-.8,5.015-.864,6.322l-1.686-.336s.465-5.306.737-6.194Z" transform="translate(-1328.469 -1254.416)" fill="#5d676c"/>
      <path id="Path_15941" data-name="Path 15941" d="M1476.007,1380.131s.639,4.558.654,6.279l-1.783-.232s-.365-5.692-.569-6.286Z" transform="translate(-1373.661 -1260.747)" fill="#353a3d"/>
      <path id="Path_15942" data-name="Path 15942" d="M1416.577,1154h0c.022.033.491.736,1.293,1.744,1.7,2.137,4.895,5.65,8.486,7.06a20.167,20.167,0,0,1,.063-2.593,5.774,5.774,0,0,0,1.1-.133,34.057,34.057,0,0,0-2.407-3.524l-2.222-.665Z" transform="translate(-1337.996 -1121.197)" fill="#a77860"/>
      <path id="Path_15943" data-name="Path 15943" d="M1404.926,1111.975c.958,2.083,1.867,3.593,2.125,4.192h0a7.4,7.4,0,0,0,1.293,1.744c1.824,1.966,5.216,4.558,8.549,4.467a5.784,5.784,0,0,0,1.1-.133,5.23,5.23,0,0,0,3.81-2.631c6.906-13.523,1.906-24.58,1.906-24.58s-18.885-5.341-21.839.344C1399.8,1099.366,1402.675,1107.08,1404.926,1111.975Z" transform="translate(-1328.47 -1083.367)" fill="#eea886"/>
      <path id="Path_15944" data-name="Path 15944" d="M1419.136,1079.855s1.754-.1,2.188-3.422c.428-3.286-.438-4.2-.438-4.2s-7.8-3.263-10.6-3.688-9.684-.832-11.3,1.013c0,0-3.921-.911-4.989,5.6-1.694,10.325,5.775,20.352,5.775,20.352s-.064-6.746,1.423-7.639,2.772,1.232,2.772,1.232l3.043.545s-4.622-9.98.922-10.35S1415.963,1080.434,1419.136,1079.855Z" transform="translate(-1323.896 -1068.189)" fill="#e2d2ca"/>
      <path id="Path_15945" data-name="Path 15945" d="M1411.673,1111.273c-.29-2.972-5.664-4.106-5.3-.992s3.006,6.108,4.229,6S1411.894,1113.538,1411.673,1111.273Z" transform="translate(-1331.68 -1093.046)" fill="#eea886"/>
      <path id="Path_15946" data-name="Path 15946" d="M1298.825,1229.042c-2.11,4.3-15.287,33.013-17.6,33.439s-8.464-4.9-8.464-4.9,14.7-32.414,15.939-34.593,15.344-32.936,17.438-34.437c1.21-.868,6.434-3.094,10.832-4.828.8-.318,1.583-.62,2.3-.893.933,1.039,15.935,17.992,14.526,33.023-.423,4.515-.991,11.879-2.241,19.633-1.293,8.056-3.381,17.164-4.731,24.038a126.016,126.016,0,0,1-7.825,24.281l-14.048-7.031a4.888,4.888,0,0,1-2.417-6.016c3.16-8.849,9.471-26.725,9.475-34.49,0,0-.5-17.532-1.707-21.712C1310.307,1214.559,1301.244,1224.116,1298.825,1229.042Z" transform="translate(-1249.154 -1139.012)" fill="#3c4145"/>
      <path id="Path_15947" data-name="Path 15947" d="M1496.671,1237.955v17.43c-6.253-6.1-13.9-14.28-16.711-16.849a5.011,5.011,0,0,0-1.009-.765,7.785,7.785,0,0,1-1.987-2.645c-.26-.413-.52-.887-.8-1.376-.413-.749-.841-1.56-1.284-2.416-.29-.565-.6-1.147-.9-1.743s-.6-1.208-.9-1.8c-.6-1.208-1.193-2.416-1.727-3.547-.413-.857-.811-1.667-1.147-2.4-.23-.5-.459-.963-.658-1.391s-.382-.811-.536-1.162c-.382-.826-.627-1.361-.688-1.483a17.27,17.27,0,0,1-.077,7.079c-.749,4.266-2.232,8.761-1.865,13.562v.092c1.162,14.571,7.293,35.2,9.112,41.037a2.587,2.587,0,0,1-.5,2.447,1.416,1.416,0,0,1-.245.29l-4.373,4.037s-3.792-11.682-5.749-19.922c-.046-.23-.107-.459-.152-.673a44.538,44.538,0,0,1-.9-4.908v-.015c-.352-3.272-1.055-7.094-1.82-11.161-.749-4.067-1.529-8.394-2-12.66-1.223-10.825-2.477-21.558-3.379-27.858-.29-2.048-.581-3.944-.856-5.688-1.942-12.216-3.425-17.14-3.425-17.14l.092-.076c1.07.489,2.324,1.07,3.654,1.682,2.783,1.284,5.933,2.752,8.425,3.929,2.386,1.147,5.994,3.089,6.269,3.3l17.216,33.147Z" transform="translate(-1359.933 -1141.12)" fill="#3c4145"/>
      <path id="Path_15948" data-name="Path 15948" d="M1393.8,1197.025l5.386,3.037-2.3,2.347,6.127,33.081c1.249-7.754,1.818-15.118,2.241-19.633,1.409-15.03-13.592-31.984-14.526-33.023-.72.273-1.5.576-2.3.893Z" transform="translate(-1320.603 -1139.012)" fill="#51565c"/>
      <path id="Path_15949" data-name="Path 15949" d="M1451.886,1186.056s2.012,6.572,4.358,22.976c.9,6.3,2.161,17.028,3.373,27.853l1.254-30.981-2.566-2.78,2.281-2.851-4.881-12.462c-1.333-.616-2.588-1.192-3.649-1.68Z" transform="translate(-1359.809 -1141.003)" fill="#51565c"/>
      <path id="Path_15950" data-name="Path 15950" d="M1342.732,1185.171c-4.4,1.734-10.948,3.988-12.157,4.857-2.094,1.5-14.878,32.229-16.113,34.408Z" transform="translate(-1274.914 -1140.456)" fill="#3c4145"/>
      <path id="Path_15951" data-name="Path 15951" d="M1231.827,1454.386l-3.131-.5-17.7-22.165,10.618-29.066,2,.558Z" transform="translate(-1210.997 -1274.81)" fill="#545554"/>
      <path id="Path_15952" data-name="Path 15952" d="M1393.74,1178.625l4.466-2.712s.125,2.448,11.184,8.846l-3.141,8.845Z" transform="translate(-1323.889 -1134.737)" fill="#f5e2d9"/>
      <path id="Path_15953" data-name="Path 15953" d="M1437.624,1179.142s-.174,2.643-2.942,7.612l6.129,7.99.447-12.959Z" transform="translate(-1349.181 -1136.731)" fill="#f5e2d9"/>
      <path id="Path_15954" data-name="Path 15954" d="M1433.26,1199.055s-1.188,4.751-.76,6.082c0,0,2.612.95,4.489-.238A20.884,20.884,0,0,0,1433.26,1199.055Z" transform="translate(-1347.775 -1149.033)" fill="#464157"/>
      <g id="Group_1017" data-name="Group 1017" transform="translate(91.061 104.724)">
        <path id="Path_15955" data-name="Path 15955" d="M1449.791,1355.988c.665-3.352.032-13.4,0-13.824l-.569.037c.007.1.655,10.4,0,13.676Z" transform="translate(-1449.227 -1342.164)" fill="#ad9f99"/>
      </g>
      <path id="Path_15956" data-name="Path 15956" d="M1438.344,1374.286s5.361.64,7.133,1.082l-.232,6.008-7.019-.749Z" transform="translate(-1351.37 -1257.284)" fill="#69737a"/>
      <path id="Path_15957" data-name="Path 15957" d="M1435.151,1212.151a120.869,120.869,0,0,1,5.943,31.763c.666,16.915-1.122,21.287-1.122,21.287l-6.6,5.943-2.211-7.725a100.536,100.536,0,0,0,2.769-40.53c-.579-3.939-1.438-11.4-1.438-11.4Z" transform="translate(-1347.003 -1156.712)" fill="#464157"/>
    </g>
    <rect id="Rectangle_1641" data-name="Rectangle 1641" width="142.578" height="305.377" rx="15" transform="translate(1277.051 486.719)" fill="#a3cdff" opacity="0.55" style="mix-blend-mode: screen;isolation: isolate"/>
    <g id="Group_1023" data-name="Group 1023" transform="translate(1367.287 530.083)">
      <g id="Group_1020" data-name="Group 1020" transform="translate(63.272 111.584)">
        <g id="Group_1019" data-name="Group 1019">
          <path id="Path_15958" data-name="Path 15958" d="M1590.391,1362.169s2.148,3.129,3.274,3.234,2.708,1.107,3.692,1.394,3.976.12,4.849.776c.357.268,1.875,2.783,2.661,3.249s2.5,1.217,2.063,1.886-2.172.416-2.172.416a1.141,1.141,0,0,1,.485,1.172c-.4,1.367-1.281,1.541-1.281,1.541s.381.937.07,1.467a2.506,2.506,0,0,1-1.542,1.313,2.3,2.3,0,0,1-.63,1.441,2.1,2.1,0,0,1-1.939.581s-.763,1.311-1.6,1.186a7.083,7.083,0,0,1-1.986-.933,26.193,26.193,0,0,1-7.065-8.418,19.347,19.347,0,0,0-5.028-6.487Z" transform="translate(-1584.241 -1362.169)" fill="#eea886"/>
        </g>
      </g>
      <g id="Group_1021" data-name="Group 1021" transform="translate(72.374 118.928)">
        <path id="Path_15959" data-name="Path 15959" d="M1619.19,1384.492s-3.929-3.4-5.686-3.092-.409,1.609-.409,1.609-1.31-1.312-2.489-.371.482,2.384.482,2.384a1.5,1.5,0,0,0-2.074.615c-.808,1.342.849,2.224.849,2.224s-2.371-.031-1.684,1.775c1.161,3.049,4.749,4.128,4.749,4.128a1.819,1.819,0,0,0,1.746-1.2,2.074,2.074,0,0,0,2.585-2s2.543-.916,1.531-2.811A1.832,1.832,0,0,0,1619.19,1384.492Z" transform="translate(-1608.055 -1381.381)" fill="#db9c7c"/>
      </g>
      <path id="Path_15960" data-name="Path 15960" d="M1588.961,1731.376s5.351,4.3,10.113,4.6,10.246,1.54,10.757,4.43-14.465,6.559-20.2,4.505c-8.554-3.065-9.134-1.621-10.362-3.656s-.274-8.173-.445-8.856C1578.617,1731.559,1588.961,1731.376,1588.961,1731.376Z" transform="translate(-1517.506 -1478.666)" fill="#353a3d"/>
      <path id="Path_15961" data-name="Path 15961" d="M1588.366,1725.279a21.3,21.3,0,0,1,.906,2.331c-.081.065-10.13,2.975-10.133,1.027,0-1.58.081-3.311.081-3.311Z" transform="translate(-1517.818 -1474.9)" fill="#81807e"/>
      <path id="Path_15962" data-name="Path 15962" d="M1491.962,1507.593c.122.6-.551.978-1.621,1.208-2.569.582-7.477.352-9.663.214-.673-.046-1.085-.077-1.085-.077s-20.488-62.748-24.494-70.913c-2.661-5.458-26.8-36.954-28.576-34.707a100.1,100.1,0,0,1-6.223-24.647c-.245-1.8-.444-3.685-.611-5.627a71.164,71.164,0,0,1,7.17,1.682c2.416.7,4.832,1.483,7.079,2.278,2.615.933,5.03,1.881,7.033,2.691.658.26,1.27.52,1.835.749.626.26,1.177.505,1.651.7,1.254.551,1.988.887,1.988.887s3.807,6.773,8.531,15.381c6.5,11.834,14.739,27.093,17.262,32.964,4.052,9.4,8.211,26.3,8.761,32.9C1481.7,1471.6,1491.472,1505.162,1491.962,1507.593Z" transform="translate(-1419.315 -1257.303)" fill="#353a3d"/>
      <path id="Path_15963" data-name="Path 15963" d="M1492.046,1252.746s-.184.214-.489.581c-1.055,1.238-3.608,4.174-5.229,5.718a1.3,1.3,0,0,0-.153.137c-.184.168-.55.092-1.086-.183-4.633-2.4-21.252-19.953-25.748-23.9-.306-.26-.566-.474-.749-.611a.247.247,0,0,0-.107-.061.572.572,0,0,0-.153-.092,7.784,7.784,0,0,1-1.988-2.645c-.245-.413-.52-.887-.795-1.376-.2-.382-.413-.764-.627-1.162-.214-.413-.428-.826-.657-1.254-.291-.565-.6-1.147-.9-1.743-1.055-2.08-2.125-4.266-3.042-6.193-.214-.474-.443-.932-.642-1.376-.352-.734-.657-1.392-.932-1.972-.122-.26-.229-.5-.337-.734-.076-.184-.153-.336-.229-.49a3.287,3.287,0,0,0-.183-.4c-.138-.305-.229-.52-.275-.611a.015.015,0,0,0-.016-.016,40.4,40.4,0,0,1-.076,7.079v.015a34.241,34.241,0,0,1-.918,5.305,41.23,41.23,0,0,0-.948,8.241v.092c0,.077-.016.138-.016.214v.092c-.153,5.626.229,11.7.4,14.922.244,5.076-1.453,7.324-1.453,7.324s-.229-.031-.642-.092c-.276-.046-.658-.092-1.1-.153l-1.253-.168L1440,1257l-6.59-.917-2.4-.336-.55-.077-4.174-.6-7.216-1.009v-.107c-.122-1.468-.214-2.982-.275-4.526v-.015c-.091-2.263-.107-4.6-.046-7a163.525,163.525,0,0,1,1.407-16.7c.979-7.37,2.125-14.158,2.523-21.711a100.786,100.786,0,0,0,.015-10.321v-.015c-.122-2.2-.305-4.51-.6-6.926-.03-.245-.061-.489-.107-.734-.214-1.712-.474-3.486-.8-5.321,2.569.229,5.091.459,6.33.581h.015c.5.046.8.076.8.076s1.223.566,3.058,1.391l.015.016.153.061c1.07.489,2.324,1.07,3.654,1.682,2.783,1.284,5.932,2.752,8.424,3.929,2.385,1.146,5.994,3.088,6.269,3.3l17.216,33.147,24.326,27.2Z" transform="translate(-1418.711 -1138.471)" fill="#decbc4"/>
      <path id="Path_15964" data-name="Path 15964" d="M1446.419,1381.615s-.673-.076-1.835-.214c-.489-.061-1.07-.137-1.728-.214-.535-.061-1.147-.138-1.788-.214-2.049-.26-4.556-.566-7.293-.918-2.248-.275-4.633-.581-7.034-.917-2.186-.29-4.372-.581-6.467-.887-.245-1.8-.444-3.685-.611-5.627a.5.5,0,0,0-.016-.153v-.107c2.324.336,4.786.673,7.216,1.025,1.422.214,2.829.413,4.19.612.183.031.367.046.55.076.81.122,1.621.229,2.385.352,2.476.352,4.755.688,6.59.948.612.092,1.177.169,1.7.245.474.077.887.138,1.253.184v.015c.444.062.826.108,1.1.153.413.061.642.092.642.092S1446.159,1377.12,1446.419,1381.615Z" transform="translate(-1419.289 -1256.883)" fill="#495055"/>
      <path id="Path_15965" data-name="Path 15965" d="M1425.3,1166.5h-.016l-.015-.015a24.352,24.352,0,0,1-2.691-.948c-.03-.245-.061-.489-.106-.734-.215-1.712-.474-3.486-.8-5.32-.245-1.422-.52-2.875-.841-4.373-.244-1.177-.473-2.324-.642-3.44v-.016c-.2-.214-.367-.428-.52-.626.153.168.321.336.489.5q-.161-.918-.276-1.789v-.015c-.168-1.162-.29-2.279-.4-3.364,1.59,1.315,3.548,3.165,5.2,4.8,2.018,1.988,3.593,3.669,3.593,3.669s-.031.26-.061.658a22.588,22.588,0,0,0-.061,2.6,6.206,6.206,0,0,0,.077.8c.092.612.275,1.1.581,1.253C1429.929,1160.707,1425.3,1166.5,1425.3,1166.5Z" transform="translate(-1419.191 -1117.269)" fill="#eea886"/>
      <path id="Path_15966" data-name="Path 15966" d="M1476.007,1380.131s.639,4.558.654,6.279l-1.783-.232s-.365-5.692-.569-6.286Z" transform="translate(-1453.057 -1261.534)" fill="#353a3d"/>
      <path id="Path_15967" data-name="Path 15967" d="M1428.514,1160.954a22.625,22.625,0,0,0-.061,2.6c-3.257-1.284-6.177-4.281-7.966-6.421v-.016c-.2-.214-.367-.428-.52-.626.153.168.321.336.49.5q-.161-.918-.276-1.789l4.8,1.422,2.232.673a33.839,33.839,0,0,1,2.4,3.517A5.431,5.431,0,0,1,1428.514,1160.954Z" transform="translate(-1419.487 -1122.73)" fill="#a77860"/>
      <path id="Path_15968" data-name="Path 15968" d="M1432.709,1119.664a5.209,5.209,0,0,1-3.807,2.63,5.448,5.448,0,0,1-1.1.137c-3.058.076-6.162-2.094-8.058-3.96q-.16-.918-.276-1.789v-.015c-.168-1.162-.29-2.279-.4-3.364a54.659,54.659,0,0,1-.229-6.926c.015-.917.061-1.8.138-2.645.061-.9.153-1.773.291-2.6a33.926,33.926,0,0,1,2.172-8.287,67.861,67.861,0,0,1,13.179,2.248S1439.619,1106.148,1432.709,1119.664Z" transform="translate(-1418.774 -1084.207)" fill="#eea886"/>
      <path id="Path_15969" data-name="Path 15969" d="M1437.074,1077.707c-.428,3.317-2.186,3.425-2.186,3.425-3.181.565-5.657-.933-11.207-.566-5.535.367-.917,10.351-.917,10.351l-3.043-.535-.015-.015a3.36,3.36,0,0,0-.459-.6c.061-.9.153-1.773.29-2.6a33.941,33.941,0,0,1,2.172-8.287c2.461-6.024,5.825-8.44,6.1-8.639h.016c3.425,1.009,8.806,3.257,8.806,3.257S1437.5,1074.42,1437.074,1077.707Z" transform="translate(-1419.042 -1070.246)" fill="#e2d2ca"/>
      <path id="Path_15970" data-name="Path 15970" d="M1419.483,1117.722a3.583,3.583,0,0,1-.6,2.049c.015-.917.061-1.8.138-2.645.061-.9.153-1.773.291-2.6a1.963,1.963,0,0,1,.107.52A15.831,15.831,0,0,1,1419.483,1117.722Z" transform="translate(-1418.82 -1097.6)" fill="#eea886"/>
      <path id="Path_15971" data-name="Path 15971" d="M1423.962,1252.2c-.428,4.526-.994,11.88-2.232,19.647-.8,4.938-1.9,10.259-2.936,15.244-.091-2.263-.107-4.6-.046-7a163.524,163.524,0,0,1,1.407-16.7c.979-7.37,2.125-14.158,2.523-21.711A27.62,27.62,0,0,1,1423.962,1252.2Z" transform="translate(-1418.711 -1176.155)" fill="#3c4145"/>
      <path id="Path_15972" data-name="Path 15972" d="M1466.609,1238.649c-.584-7.553,3.223-14.568,1.723-20.87l.006.013c.32.7,8.809,19.317,10.619,19.98,1.845.679,24.84,26.453,26.769,24.653,2.058-1.923,6.763-7.4,6.763-7.4l-24.745-26.713-17.21-33.147c-.278-.22-3.885-2.161-6.273-3.3-2.485-1.184-5.632-2.644-8.422-3.932-1.333-.616-2.588-1.193-3.649-1.68l-.087.069s1.929,6.427,4.275,22.831c.9,6.3,2.161,17.028,3.373,27.854v0c.957,8.534,3.14,17.291,3.834,23.826.719,6.767,6.8,25.51,6.8,25.51l4.375-4.038a2.653,2.653,0,0,0,.734-2.735C1473.685,1273.727,1467.735,1253.205,1466.609,1238.649Z" transform="translate(-1439.339 -1141.913)" fill="#3c4145"/>
      <path id="Path_15973" data-name="Path 15973" d="M1426.294,1252.2c-.428,4.526-.994,11.88-2.232,19.647l-1.575-8.455c.979-7.37,2.125-14.158,2.523-21.711A27.62,27.62,0,0,1,1426.294,1252.2Z" transform="translate(-1421.044 -1176.155)" fill="#51565c"/>
      <path id="Path_15974" data-name="Path 15974" d="M1451.886,1186.056s2.012,6.572,4.358,22.976c.9,6.3,2.161,17.028,3.373,27.853l1.254-30.981-2.566-2.78,2.281-2.851-4.881-12.462c-1.333-.616-2.588-1.192-3.649-1.68Z" transform="translate(-1439.205 -1141.789)" fill="#51565c"/>
      <path id="Path_15975" data-name="Path 15975" d="M1430.116,1196.3v.015l-.047.092v.045l-2.079,5.811c-.122-2.2-.305-4.51-.6-6.926-.03-.245-.061-.489-.107-.734.841.536,1.773,1.086,2.8,1.682l.015.015Z" transform="translate(-1424.009 -1147.07)" fill="#f5e2d9"/>
      <path id="Path_15976" data-name="Path 15976" d="M1437.624,1179.142s-.174,2.643-2.942,7.612l6.129,7.99.447-12.959Z" transform="translate(-1428.578 -1137.518)" fill="#f5e2d9"/>
      <path id="Path_15977" data-name="Path 15977" d="M1433.26,1199.055s-1.188,4.751-.76,6.082c0,0,2.612.95,4.489-.238A20.884,20.884,0,0,0,1433.26,1199.055Z" transform="translate(-1427.172 -1149.819)" fill="#464157"/>
      <g id="Group_1022" data-name="Group 1022" transform="translate(11.664 103.938)">
        <path id="Path_15978" data-name="Path 15978" d="M1449.791,1355.988c.665-3.352.032-13.4,0-13.824l-.569.037c.007.1.655,10.4,0,13.676Z" transform="translate(-1449.227 -1342.164)" fill="#ad9f99"/>
      </g>
      <path id="Path_15979" data-name="Path 15979" d="M1438.344,1374.286s5.361.64,7.133,1.082l-.232,6.008-7.019-.749Z" transform="translate(-1430.766 -1258.07)" fill="#69737a"/>
      <path id="Path_15980" data-name="Path 15980" d="M1435.151,1212.151a120.869,120.869,0,0,1,5.943,31.763c.666,16.915-1.122,21.287-1.122,21.287l-6.6,5.943-2.211-7.725a100.536,100.536,0,0,0,2.769-40.53c-.579-3.939-1.438-11.4-1.438-11.4Z" transform="translate(-1426.4 -1157.498)" fill="#464157"/>
    </g>
    <g id="Group_1027" data-name="Group 1027" transform="translate(1489.995 665.354)">
      <g id="Group_1026" data-name="Group 1026">
        <g id="Group_1025" data-name="Group 1025">
          <path id="Path_15981" data-name="Path 15981" d="M1746.794,1424.137a7.541,7.541,0,0,0-1.566,2.151,12.41,12.41,0,0,1-1.886,2.532,28.9,28.9,0,0,0-2.65,4.338c-.11.331.036,2.616-.262,3.265s-1.063,1.892-.484,2.125,1.577-.7,1.577-.7a.89.89,0,0,0,.21.966,1.534,1.534,0,0,0,1.506.418s.173.77.607.972a1.954,1.954,0,0,0,1.571.156,1.8,1.8,0,0,0,1.044.643,1.639,1.639,0,0,0,1.5-.49s1.072.5,1.552.049a5.52,5.52,0,0,0,.859-1.48,18.964,18.964,0,0,0,.823-8.3c-.584-3.48,2.135-6.089,2.135-6.089Z" transform="translate(-1739.735 -1424.137)" fill="#eea886"/>
        </g>
      </g>
    </g>
    <g id="Group_1028" data-name="Group 1028" transform="translate(1484.68 677.102)">
      <path id="Path_15982" data-name="Path 15982" d="M1725.829,1467.115v-9.476a2.771,2.771,0,0,1,2.768-2.768h15.028a2.771,2.771,0,0,1,2.767,2.768v9.476a2.771,2.771,0,0,1-2.767,2.768H1728.6A2.771,2.771,0,0,1,1725.829,1467.115Zm2.768-10.386a.911.911,0,0,0-.91.91v9.476a.911.911,0,0,0,.91.911h15.028a.911.911,0,0,0,.91-.911v-9.476a.912.912,0,0,0-.91-.91Z" transform="translate(-1725.829 -1454.871)" fill="#0e1e2b"/>
    </g>
    <g id="Group_1029" data-name="Group 1029" transform="translate(1466.771 688.046)">
      <rect id="Rectangle_1642" data-name="Rectangle 1642" width="56.38" height="40.394" transform="translate(56.38 40.394) rotate(180)" fill="#54281a"/>
    </g>
    <g id="Group_1030" data-name="Group 1030" transform="translate(1494.962 580.015)">
      <path id="Path_15983" data-name="Path 15983" d="M1776.761,1200.877s2.8-.02,4.034,8.615-1.1,12.244-1.381,15.838-4.494,26.8-4.608,27.828-.68,13.377-2.324,16.656-13.726,21.854-13.888,22.782-5.867-3.236-5.867-3.236,9.493-19.87,10.043-22.138,4.372-13.844,3.767-17.378,1.692-23.029,1.469-25.2S1771.227,1202.2,1776.761,1200.877Z" transform="translate(-1752.728 -1200.877)" fill="#eea886"/>
    </g>
    <g id="Group_1031" data-name="Group 1031" transform="translate(1494.271 579.954)">
      <path id="Path_15984" data-name="Path 15984" d="M1775.559,1200.718s2.888.041,4.12,8.676.119,11.744-.626,15.488c-.7,3.535-3.1,25.159-3.214,26.185s-2.981,14.062-4.473,18.648c-1.133,3.487-11.907,21.744-12.069,22.672s-8.376-4.266-8.376-4.266,10.534-20.553,11.085-22.82,2.334-10.116,2.391-13.7c.067-4.212,2.717-24.883,2.494-27.053S1767.5,1203.671,1775.559,1200.718Z" transform="translate(-1750.921 -1200.718)" fill="#27c0fa"/>
    </g>
    <path id="Path_15985" data-name="Path 15985" d="M1859.1,1727.3s-5.029,7.468-7.056,9.27c0,0-4.665,1.632-4.954,4.8-.189,2.074-.007,5.406,5.322,5.555s8.749-1.711,9.725-4.938a9.75,9.75,0,0,1,2.818-4.67v6.755h1.2s.3-6.531.375-7.731.863-5.819-1.67-7.863A7.027,7.027,0,0,0,1859.1,1727.3Z" transform="translate(-316.034 -945.955)" fill="#eddad3"/>
    <path id="Path_15986" data-name="Path 15986" d="M1762.6,1709.233a21.552,21.552,0,0,1-2.515,4.2c-1.205,1.573-4.954,8.032-6.605,8.482s-6.756,1.351-7.206,4.2-.675,4.879,4.354,5.1,8.332.526,10.734-3a26.143,26.143,0,0,1,6.23-6.08v9.2h1.951s.9-9.58,1.426-10.255,1.876-8.032-2.777-11.86S1762.6,1709.233,1762.6,1709.233Z" transform="translate(-253.644 -933.853)" fill="#eddad3"/>
    <path id="Path_15987" data-name="Path 15987" d="M1855.759,1346.154s6.351,8.257,8.073,18.052-1.017,42.672-.942,47.514,4.579,16.889,3.678,26.008-8.426,53.762-8.426,53.762l-5.76-1.182s.563-46.275,0-50.1-1.693-17.782-1.918-19.359-14.3-42.966-14.3-50.029S1840.446,1334.632,1855.759,1346.154Z" transform="translate(-309.312 -708.961)" fill="#eea886"/>
    <path id="Path_15988" data-name="Path 15988" d="M1780.2,1355.565s-10.434,39.82-11.672,45.337-3.032,10.067-3.032,12.409c0,5.435,2.019,14.162,2.019,14.162l7.094,63.051h5.592s3.527-36.818,4.091-44.248-4.053-18.915-2.928-22.068,18.127-39.519,18.127-39.519S1812.362,1344.006,1780.2,1355.565Z" transform="translate(-265.653 -715.145)" fill="#eea886"/>
    <path id="Path_15989" data-name="Path 15989" d="M1857.86,1737.248a8.329,8.329,0,0,0,8.36-.722,16.252,16.252,0,0,0,5.322-7.749l-5.76-1.182Z" transform="translate(-322.713 -946.248)" fill="#eea886"/>
    <path id="Path_15990" data-name="Path 15990" d="M1765.475,1723.034s4.5,1.126,6.23,0,7.6-11.047,9.54-11.641c0,0-1.884-3.822-6.65-1.044C1774.595,1710.348,1766.751,1721.382,1765.475,1723.034Z" transform="translate(-265.641 -934.968)" fill="#eea886"/>
    <path id="Path_15991" data-name="Path 15991" d="M1769.029,1415.278s19.17,11.283,55.1,11.283c0,0,2.035-41.673-3.189-53.4s-39.9-4.433-39.9-4.433S1770.263,1406.657,1769.029,1415.278Z" transform="translate(-267.836 -723.171)" fill="#1d3b54"/>
    <g id="Group_1032" data-name="Group 1032" transform="translate(1508.604 576.551)">
      <path id="Path_15992" data-name="Path 15992" d="M1807.2,1192.106s-5.572,2.631-7.507,3.018-9.441,10.138-10.757,13.7,0,8.9,2.708,15.168.155,8.358,1.393,14.626,2.322,19.541,2.09,23.023,31.3,4.14,38.5-2.206c0,0-7.233-10.834-8.162-12.381s-.155-9.983.7-12.15,6.517-20.594,6.517-20.594,4.635-14.152.448-17.4c-3.637-2.824-13.55-3.832-15.33-4.451S1810.836,1191.564,1807.2,1192.106Z" transform="translate(-1788.421 -1191.814)" fill="#eddad3"/>
    </g>
    <g id="Group_1033" data-name="Group 1033" transform="translate(1522.218 574.861)">
      <path id="Path_15993" data-name="Path 15993" d="M1827.419,1201.795l-3.386-3.965,2.94-10.438A68.926,68.926,0,0,1,1827.419,1201.795Z" transform="translate(-1824.033 -1187.392)" fill="#d6c5be"/>
    </g>
    <g id="Group_1034" data-name="Group 1034" transform="translate(1515.511 536.312)">
      <path id="Path_15994" data-name="Path 15994" d="M1825.392,1087.527c-3.311-1.165-15.478-4.024-18.341,11.531s5.726,26.622,13.62,23.681,12.769-13.7,13.233-21.9S1829.57,1089,1825.392,1087.527Z" transform="translate(-1806.487 -1086.542)" fill="#eea886"/>
    </g>
    <g id="Group_1035" data-name="Group 1035" transform="translate(1516.07 535.038)">
      <path id="Path_15995" data-name="Path 15995" d="M1807.955,1097s-.6-13.311,12.637-13.775,16.793,10.431,15.71,18.372a19.44,19.44,0,0,1-6.561,12.129s.476-6.425-2.092-8.093-12.86-5-17.349-12.734C1810.3,1092.9,1808.219,1095.34,1807.955,1097Z" transform="translate(-1807.951 -1083.211)" fill="#252e3b"/>
    </g>
    <g id="Group_1036" data-name="Group 1036" transform="translate(1531.997 534.67)">
      <path id="Path_15996" data-name="Path 15996" d="M1850.194,1094.995c1.743,5.3,6.913,8.362,11.546,6.838s6.977-7.056,5.234-12.357-6.913-8.362-11.547-6.838S1848.451,1089.694,1850.194,1094.995Z" transform="translate(-1849.618 -1082.246)" fill="#252e3b"/>
    </g>
    <g id="Group_1037" data-name="Group 1037" transform="translate(1524.724 562.786)">
      <path id="Path_15997" data-name="Path 15997" d="M1830.59,1163.431s1.112,10.222.88,13.549c0,0,5.789,5.8,12.375-6.773a17.263,17.263,0,0,1-.685-12.245C1845.245,1150.9,1830.59,1163.431,1830.59,1163.431Z" transform="translate(-1830.59 -1155.804)" fill="#eea886"/>
    </g>
    <g id="Group_1038" data-name="Group 1038" transform="translate(1525.604 583.962)">
      <path id="Path_15998" data-name="Path 15998" d="M1832.891,1211.2v5.3l6.663-4.979Z" transform="translate(-1832.891 -1211.203)" fill="#eea886"/>
    </g>
    <g id="Group_1039" data-name="Group 1039" transform="translate(1525.604 576.551)">
      <path id="Path_15999" data-name="Path 15999" d="M1832.891,1204.527l2.767-3.424,9.319-9.288,3.015,2.9Z" transform="translate(-1832.891 -1191.814)" fill="#d6c5be"/>
    </g>
    <g id="Group_1040" data-name="Group 1040" transform="translate(1530.759 577.44)">
      <path id="Path_16000" data-name="Path 16000" d="M1854.6,1194.139s-7.821,11.868-8.194,17.092,2.907,44.3,5.533,56.859,21.606-1.417,21.606-1.417-12.754-20.643-7.858-37.172,6.674-23.138,6.674-23.138-1.684-9.2-7.654-10.5C1859.478,1194.728,1854.6,1194.139,1854.6,1194.139Z" transform="translate(-1846.38 -1194.139)" fill="#27c0fa"/>
    </g>
    <g id="Group_1041" data-name="Group 1041" transform="translate(1508.442 578.675)">
      <path id="Path_16001" data-name="Path 16001" d="M1788.159,1213.839s-1.411,4.992,4.084,16.024c0,0-.088,14.119-.242,18.531s-1.2,21.088-1.2,21.088l5.434,3.183a1.533,1.533,0,0,0,2.3-1.507c-1.539-12.694-6.546-60.845,4.269-73.788l-4.34,1.28S1790.752,1204.959,1788.159,1213.839Z" transform="translate(-1787.997 -1197.37)" fill="#27c0fa"/>
    </g>
    <g id="Group_1042" data-name="Group 1042" transform="translate(1533.168 553.424)">
      <path id="Path_16002" data-name="Path 16002" d="M1853.952,1132.535a2.04,2.04,0,0,1,3.018-.867c.929.7,1.47,2.786,0,5.494S1850.315,1141.76,1853.952,1132.535Z" transform="translate(-1852.682 -1131.312)" fill="#eea886"/>
    </g>
    <g id="Group_1043" data-name="Group 1043" transform="translate(1517.951 574.86)">
      <path id="Path_16003" data-name="Path 16003" d="M1817.139,1197.83l-4.266,1.179,7.206-11.617Z" transform="translate(-1812.873 -1187.392)" fill="#fae6de"/>
    </g>
    <g id="Group_1044" data-name="Group 1044" transform="translate(1528.37 576.551)">
      <path id="Path_16004" data-name="Path 16004" d="M1840.129,1201.1l3.9,5.108,8-13.337-2.579-1.059Z" transform="translate(-1840.129 -1191.814)" fill="#fae6de"/>
    </g>
    <g id="Group_1045" data-name="Group 1045" transform="translate(1524.927 568.229)">
      <path id="Path_16005" data-name="Path 16005" d="M1831.122,1174.469l.215,2.03s4.6.888,10.626-6.456C1841.963,1170.043,1837.669,1175.242,1831.122,1174.469Z" transform="translate(-1831.122 -1170.043)" fill="#a77860"/>
    </g>
    <g id="Group_1048" data-name="Group 1048" transform="translate(1488.776 634.419)">
      <g id="Group_1047" data-name="Group 1047">
        <g id="Group_1046" data-name="Group 1046">
          <path id="Path_16006" data-name="Path 16006" d="M1749.043,1344.028s-2.707,1.743-4.263.769a10.317,10.317,0,0,0-4.345-.98c-.951-.049-3.815-1.287-3.888-.089s4.622,2.268,5.562,2.689-3.2,2.442-3.664,3.407,3.27,7.63,5.949,5.914,4.41-5.317,4.941-5.525a19.511,19.511,0,0,0,2-1.171Z" transform="translate(-1736.546 -1343.207)" fill="#eea886"/>
        </g>
      </g>
    </g>
    <g id="Group_1049" data-name="Group 1049" transform="translate(1496.602 580.75)">
      <path id="Path_16007" data-name="Path 16007" d="M1813.155,1202.861a8.2,8.2,0,0,0-7.073,2.764c-3.25,3.483-4.875,9.209-5.727,11.067s-11.608,19.037-12.227,19.424-11.55,9.208-16.5,13.929-14.607,9.984-14.607,9.984l3.637,5.108s29.33-15.633,33.045-21.359,18.545-21.592,18.545-21.592S1821.165,1208.63,1813.155,1202.861Z" transform="translate(-1757.018 -1202.8)" fill="#eea886"/>
    </g>
    <g id="Group_1052" data-name="Group 1052" transform="translate(1483.094 640.488)">
      <g id="Group_1051" data-name="Group 1051">
        <g id="Group_1050" data-name="Group 1050">
          <path id="Path_16008" data-name="Path 16008" d="M1729.791,1359.084s-7.855,5.8-8.056,6.621.139,1.231.9.72,7.751-5.381,7.751-5.381-8.144,8.423-8.456,9.062c-.182.375.428,1.2.858.965s8.98-8.123,8.98-8.123-7.59,7.879-7.691,8.491a.753.753,0,0,0,1.265.609c.6-.545,8.061-7.459,8.061-7.459s-5.164,6.081-4.944,6.65c.135.348.629,1.087,1.912-.524s4.71-5.093,4.71-5.093Z" transform="translate(-1721.679 -1359.084)" fill="#eea886"/>
        </g>
      </g>
    </g>
    <g id="Group_1106" data-name="Group 1106" transform="translate(1000.366 677.21) rotate(-113)">
      <g id="Group_1051-2" data-name="Group 1051" transform="translate(0 0)">
        <g id="Group_1050-2" data-name="Group 1050">
          <path id="Path_16008-2" data-name="Path 16008" d="M8.112,13.693S.257,7.669.056,6.813s.139-1.28.9-.749S8.7,11.656,8.7,11.656.561,2.9.248,2.239c-.182-.389.428-1.248.858-1s8.98,8.441,8.98,8.441S2.5,1.49,2.4.854A.753.753,0,0,1,3.66.221c.6.567,8.061,7.751,8.061,7.751S6.558,1.652,6.777,1.061c.135-.362.629-1.13,1.912.544S13.4,6.9,13.4,6.9Z" fill="#eea886"/>
        </g>
      </g>
    </g>
    <path id="Path_16009" data-name="Path 16009" d="M1795.679,1275.136s-.26,17.626.816,26.127l.478-23.359Z" transform="translate(-284.283 -666.736)" fill="#27c0fa"/>
    <g id="Group_1053" data-name="Group 1053" transform="translate(1498.69 579.667)">
      <path id="Path_16010" data-name="Path 16010" d="M1814.339,1199.967s-1.95.425-5.2,3.908-4.875,9.209-5.726,11.067-11.608,19.037-12.228,19.424a137.3,137.3,0,0,0-14.529,11.259c-4.953,4.721-14.172,10.361-14.172,10.361l4.73,7.023s25.866-14.326,29.969-19.781c4.382-5.828,20.005-22.937,20.005-22.937S1827.126,1204.64,1814.339,1199.967Z" transform="translate(-1762.483 -1199.967)" fill="#27c0fa"/>
    </g>
    <g id="Group_1055" data-name="Group 1055" transform="translate(1491.64 673.615)">
      <g id="Group_1054" data-name="Group 1054">
        <path id="Path_16011" data-name="Path 16011" d="M1744.137,1450.757s1.008-3.923,2.269-4.508.977.849.977.849.257-1.424,1.431-1.344.75,1.742.75,1.742a1.171,1.171,0,0,1,1.6-.527c1.114.5.444,1.8.444,1.8s1.506-1.074,1.868.389a6.342,6.342,0,0,1-1.206,4.806,1.375,1.375,0,0,1-1.622,0,1.667,1.667,0,0,1-2.584-.155s-2.029.526-2.223-1.138C1745.844,1452.674,1743.537,1452.933,1744.137,1450.757Z" transform="translate(-1744.037 -1445.751)" fill="#db9c7c"/>
      </g>
    </g>
    <path id="Path_16012" data-name="Path 16012" d="M1851.938,1300.847l8.855-14.287s-7.55,8.915-8.337,9.871-.853,1.027-.853,1.027S1851.833,1300.36,1851.938,1300.847Z" transform="translate(-318.847 -673.794)" fill="#9c2f2f"/>
    <g id="Group_1071" data-name="Group 1071" transform="translate(995.991 538.197)">
      <path id="Path_16013" data-name="Path 16013" d="M533.947,1687.7a10.463,10.463,0,0,0-3.705-3.551c-2.142-1-6.534,2.481-6.92,4.415l-5.09,7.429.964.66,2.717-3.966c-1.85,4.454-4.494,9.783-2.637,12.464,2.493,3.6,8.147,7.234,9.64,6.6s1.194-11.088,1.194-11.088C528.5,1691.433,533.947,1687.7,533.947,1687.7Z" transform="translate(-490.134 -1458.496)" fill="#1d3b54"/>
      <g id="Group_1057" data-name="Group 1057" transform="translate(33.178 225.652)">
        <path id="Path_16014" data-name="Path 16014" d="M542.159,1687.983a57.688,57.688,0,0,0-2.808,6.339c-.954,2.77-1.132,10.438-1.733,10.971s-5.338-1.858-5.97-4.725,1.289-8.6,3.117-11.613a18.714,18.714,0,0,1,3.689-4.522S541.683,1685.06,542.159,1687.983Z" transform="translate(-531.525 -1684.432)" fill="#de9673"/>
      </g>
      <path id="Path_16015" data-name="Path 16015" d="M564.257,1517.885s-2.9,15.4-2.9,19.08a33.884,33.884,0,0,1-3.347,14.17c-2.344,4.463-12.625,34.955-13.518,38.507s-1.657,6.906-1.657,6.906-5.133-2.343-5.133-5.691,4.463-31.019,5.244-36.486S550.2,1520.9,550.2,1520.9Z" transform="translate(-502.162 -1355.894)" fill="#de9673"/>
      <path id="Path_16016" data-name="Path 16016" d="M534.31,1514.254s1,12.831.893,16.179-1.674,10.935-1.674,12.943,0,43.622,1.663,48.644-4.676,1.568-4.676,1.568-11.046-27.373-11.046-38.792,1.339-17.109.558-24.362-4.253-16.8-4.253-16.8Z" transform="translate(-488.617 -1353.267)" fill="#eea886"/>
      <path id="Path_16017" data-name="Path 16017" d="M507.781,1353.68a39.908,39.908,0,0,0-7.5,16.982c-1.562,9.708,1.848,28.013,3.062,33.31,1.065,4.646,3.1,19.52,3.212,21.082,0,0,19.965,2.261,35.14-2.537,0,0,1.388-20.774,2.28-29.589s-3.462-38.579-3.462-38.579Z" transform="translate(-478.796 -1254.455)" fill="#27c0fa"/>
      <path id="Path_16018" data-name="Path 16018" d="M558.676,1730.369c-7.151-6.245-5.238-12.658-5.238-12.658a10.6,10.6,0,0,0-5.18-.436c-2.322.579-3.566,6.116-2.638,7.886l.724,9.093,1.18-.094-.386-4.854c1.38,4.687,2.692,10.569,5.862,11.5,4.255,1.245,11.024.508,11.8-.939S558.676,1730.369,558.676,1730.369Z" transform="translate(-506.863 -1478.959)" fill="#1d3b54"/>
      <path id="Path_16019" data-name="Path 16019" d="M577.742,1175.541s-1.769,10.532-.241,14.07-8.121-4.136-8.121-4.136S573.384,1173.872,577.742,1175.541Z" transform="translate(-521.732 -1144.306)" fill="#754836"/>
      <path id="Path_16020" data-name="Path 16020" d="M552.9,1098.744s-15.488-3.546-17.417,13,5.038,18.628.321,29.843,11.518-3.654,11.518-3.654Z" transform="translate(-500.461 -1096.768)" fill="#754836"/>
      <path id="Path_16021" data-name="Path 16021" d="M556.628,1098.626c3.976-.08,12.726,2.165,13.787,12.726a32.753,32.753,0,0,1-1.149,5.037c-.751,2.209,1.061,8.838.531,9.147a14.424,14.424,0,0,1-2.7.663s-2.519,7.114-5.038,6.982-12-2.371-16.247-11.43S540.573,1098.95,556.628,1098.626Z" transform="translate(-505.521 -1096.891)" fill="#eea886"/>
      <g id="Group_1061" data-name="Group 1061" transform="translate(8.259 112.135) rotate(14)">
        <g id="Group_1060" data-name="Group 1060">
          <path id="Path_16023" data-name="Path 16023" d="M473.292,1396.967a46.809,46.809,0,0,0,1.336,5.608c.865,2.752,1.662,3.63,1.315,5.208-.261,1.19-1.609,2.084-1.948,1.7s-.5-5.011-2.423-4.989.573,5.733-.568,5.313-5.537-2.827-5.26-5.16,2.035-4.018,1.922-7.5c-.1-3.162.883-4.483.883-4.483Z" transform="translate(-465.73 -1392.662)" fill="#eea886"/>
        </g>
      </g>
      <path id="Path_16027" data-name="Path 16027" d="M534.372,1196.778s6,2.466,7.075,3.216,3.216,9.434,3.752,10.184,5.715,7.189,5,12.409c-.563,4.1-2.881,6.271-4.382,7.879s-2.891,10.264-3.361,11.551,1.025,18.172,1.025,18.172-17.615,6.856-33.373-4.829c0,0,3.147-11.307,3.147-13.344s-2.037-16.4-7.5-24.871.965-17.474,5.146-18.546,12.221-4.074,12.221-4.074Z" transform="translate(-481.123 -1156.136)" fill="#27c0fa"/>
      <path id="Path_16028" data-name="Path 16028" d="M492.746,1201.812s-8.816-.543-13.238,4.6-4.181,11.256-5.306,13.91-3.7,14.07-4.261,15.919-1.112,12.243-1.916,20.6-.641,23.976-.641,23.976l8.435-1.529s.34-14.884.554-23.514,7.236-23.878,9.889-30.552S499.477,1206,492.746,1201.812Z" transform="translate(-458.713 -1160.626)" fill="#27c0fa"/>
      <path id="Path_16029" data-name="Path 16029" d="M594.306,1207.554a7.279,7.279,0,0,1,5.726,4.106c1.849,3.859,2.557,7.069,3.039,8.034s7.172,13.675,7.574,16.489-.241,7.96-3.779,9.327-16.241,1.528-16.241,1.528,3.216-6.536.241-9.912c0,0,9.219-1.665,11.4-1.886C604.57,1235.006,591.385,1210.449,594.306,1207.554Z" transform="translate(-534.856 -1164.184)" fill="#27c0fa"/>
      <g id="Group_1067" data-name="Group 1067" transform="translate(38.331 45.786)">
        <path id="Path_16030" data-name="Path 16030" d="M545.006,1222.371l17.177,40.118L583.6,1252.4l-15.839-38.526Z" transform="translate(-545.006 -1213.875)" fill="#1d3b54"/>
      </g>
      <g id="Group_1068" data-name="Group 1068" transform="translate(44.853 73.992)">
        <path id="Path_16031" data-name="Path 16031" d="M565.4,1287.665s-2.326.618-3.063.726.174,1.471,1.078,1.512S565.4,1287.665,565.4,1287.665Z" transform="translate(-562.068 -1287.665)" fill="#eea886"/>
      </g>
      <g id="Group_1069" data-name="Group 1069" transform="translate(44.855 72.941)">
        <path id="Path_16032" data-name="Path 16032" d="M566.963,1297.384a4.9,4.9,0,0,0,1.54-.307s.8-.526,1.4-.865a4.776,4.776,0,0,1,.469-.242,8.993,8.993,0,0,0,2.585-1.261c1.01-.784,4.294-3.915,4.294-3.915l-2.172-3.272-1.678-2.606s-7.059.194-8.084.816a3.028,3.028,0,0,0-.282.193,11.432,11.432,0,0,0-1.56,1.777c-.143.137-1.476,1.589-1.4,2.173a1.925,1.925,0,0,0,1.022,1.568,4.6,4.6,0,0,0,1.11,2.275,2.861,2.861,0,0,0,1.489,2.04S566.084,1297.217,566.963,1297.384Z" transform="translate(-562.073 -1284.916)" fill="#eea886"/>
      </g>
      <path id="Path_16033" data-name="Path 16033" d="M591.256,1258.675s10.458-1.87,13.347-2.175a36.094,36.094,0,0,0-.331-6.779c-.528-3.11-3.081-7.282-3.081-7.282l5.348,4.9s4.4,8.426,4.5,10.4.621,5.011-1.981,8.094-14.884,1.672-14.884,1.672S595.2,1263.718,591.256,1258.675Z" transform="translate(-535.246 -1185.734)" fill="#27c0fa"/>
      <path id="Path_16034" data-name="Path 16034" d="M563.678,1171.1s-.339,1-.733,2.481c-.2.758-.418,1.642-.611,2.584-.531,2.607-.886,5.661-.264,7.719,0,0-5.627,1.774-9.807-6.226,0,0,2.13-8.432-.182-13.646S563.678,1171.1,563.678,1171.1Z" transform="translate(-510.884 -1136.491)" fill="#eea886"/>
      <path id="Path_16035" data-name="Path 16035" d="M569.055,1108.552s-6.569,4.212-12.991,4.919-9.994,10.42-9.994,10.42-10.1-15.723-1.966-25.385S570.793,1096.326,569.055,1108.552Z" transform="translate(-504.161 -1094.091)" fill="#754836"/>
      <path id="Path_16036" data-name="Path 16036" d="M566.82,1140.375c0-1.24-1.325-3.137-3.4-1.5s.486,7.6,2.165,7.07S566.82,1141.656,566.82,1140.375Z" transform="translate(-517.569 -1121.364)" fill="#eea886"/>
      <path id="Path_16037" data-name="Path 16037" d="M562.016,1195.872s2.647,7.813-3.543,7.773-8.886-4.909-10.654-9.228a22.476,22.476,0,0,1,4.181-1.586C553.327,1192.629,562.016,1195.872,562.016,1195.872Z" transform="translate(-508.412 -1155.083)" fill="#eea886"/>
      <g id="Group_1070" data-name="Group 1070" transform="translate(41.078 237.763)">
        <path id="Path_16040" data-name="Path 16040" d="M557.689,1717.107a58.437,58.437,0,0,0,1.826,6.781c1.013,2.789,5.758,8.943,5.624,9.745s-5.387,1.938-7.712.082-4.463-7.594-4.943-11.133a26.262,26.262,0,0,1-.225-5.823S555.452,1715.108,557.689,1717.107Z" transform="translate(-552.191 -1716.118)" fill="#eea886"/>
      </g>
      <path id="Path_16041" data-name="Path 16041" d="M568.9,1178.786c-.2.758-.5,1.671-.732,2.574a26.811,26.811,0,0,1-7.517-7.507C563.534,1176.612,568.9,1178.786,568.9,1178.786Z" transform="translate(-516.34 -1143.365)" fill="#a77860"/>
    </g>
    <g id="Group_1105" data-name="Group 1105" transform="translate(1085.464 536.312)">
      <g id="Group_1073" data-name="Group 1073" transform="translate(46.02 61.441)">
        <g id="Group_1072" data-name="Group 1072">
          <path id="Path_16042" data-name="Path 16042" d="M823.292,1309.305a29.01,29.01,0,0,1-8.545,2.589s-3.928-5.76-6.226-10.07c-5.482-10.285-7.1-15.1-6.633-19.048.841-7.1,14.8-35.494,14.8-35.494l15.495,5.979-11.862,21.083c-1.107,2.16-2.536,5.672-4.012,8.528-1.934,3.743.394,12.31,1.773,15.886C818.081,1298.758,820.609,1305.687,823.292,1309.305Z" transform="translate(-801.811 -1247.282)" fill="#eea886"/>
        </g>
      </g>
      <g id="Group_1075" data-name="Group 1075" transform="translate(0 234.083)">
        <g id="Group_1074" data-name="Group 1074">
          <path id="Path_16043" data-name="Path 16043" d="M700.494,1705.292a10.266,10.266,0,0,0,1.321,6c1.779,3.432,9.745,12.177,9.2,15.768s-9.755,3.168-15.536-3.156-14.367-12.888-14.05-14.406,8.986-9.407,12-10.455S700.494,1705.292,700.494,1705.292Z" transform="translate(-681.417 -1698.94)" fill="#353a3d"/>
        </g>
      </g>
      <g id="Group_1077" data-name="Group 1077" transform="translate(11.678 230.415)">
        <g id="Group_1076" data-name="Group 1076">
          <path id="Path_16044" data-name="Path 16044" d="M722.547,1695.982l-3.256,3.507-7.322-6.242,3.366-3.9Z" transform="translate(-711.969 -1689.344)" fill="#eea886"/>
        </g>
      </g>
      <g id="Group_1078" data-name="Group 1078" transform="translate(12.202 179.475)">
        <path id="Path_16045" data-name="Path 16045" d="M713.339,1607.018c3.572-4.05,32.4-33.545,32.4-33.545,14.7-16.946,20.454-17.394,20.454-17.394a85.515,85.515,0,0,1,8.758.768c.724.1,3.085.075,3.842.2,9.361,1.518,9.621.45,6.2,8.119-5.628,12.609-62.063,48.992-62.063,48.992Z" transform="translate(-713.339 -1556.078)" fill="#1d3b54"/>
      </g>
      <g id="Group_1080" data-name="Group 1080" transform="translate(133.745 245.659)">
        <g id="Group_1079" data-name="Group 1079">
          <path id="Path_16046" data-name="Path 16046" d="M1041.458,1729.353a39.211,39.211,0,0,0,8.7,2.571c4.073.555,13.887-1.061,16.673,1.615s-3.22,10.422-12.259,11.576-20.616,3.068-21.742,1.862-2.066-12.043-1.132-15.306S1041.458,1729.353,1041.458,1729.353Z" transform="translate(-1031.314 -1729.227)" fill="#353a3d"/>
        </g>
      </g>
      <g id="Group_1082" data-name="Group 1082" transform="translate(132.652 240.995)">
        <g id="Group_1081" data-name="Group 1081">
          <path id="Path_16047" data-name="Path 16047" d="M1037.751,1717.024l1.941,4.791-9.762,2.32-1.473-5.129Z" transform="translate(-1028.457 -1717.024)" fill="#eea886"/>
        </g>
      </g>
      <g id="Group_1083" data-name="Group 1083" transform="translate(103.898 177.237)">
        <path id="Path_16048" data-name="Path 16048" d="M976.628,1553.418s-3.973-15.152,5.358,20.545c0,0,9.834,38.09,10.916,40.257.256.514-12.328,2.817-12.56,2.724-2.19-.875-21.783-49.676-26.652-58.688C949.4,1550.32,976.628,1553.418,976.628,1553.418Z" transform="translate(-953.232 -1550.224)" fill="#1d3b54"/>
      </g>
      <g id="Group_1085" data-name="Group 1085" transform="translate(78.915 132.471)">
        <g id="Group_1084" data-name="Group 1084">
          <path id="Path_16049" data-name="Path 16049" d="M936.253,1481.068l-19.586,11.267s-7.705-9.464-12.81-13.328c-.525-.391-1.049-.79-1.581-1.2-.754-.569-1.508-1.153-2.261-1.743-.547-.428-1.1-.864-1.64-1.3a76.675,76.675,0,0,1-9.139-8.208c-5.548-6.405,6.6-46.906,21.934-28.843C911.171,1437.708,931.732,1457.013,936.253,1481.068Z" transform="translate(-887.87 -1433.106)" fill="#1d3b54"/>
        </g>
      </g>
      <g id="Group_1087" data-name="Group 1087" transform="translate(57.931 132.271)">
        <g id="Group_1086" data-name="Group 1086">
          <path id="Path_16050" data-name="Path 16050" d="M876.034,1432.583s-9.652,44.347-19.165,59.432c0,0-16.155-5.447-23.576-8.355,0,0-.72-32.049,0-40.423C833.958,1435.424,876.034,1432.583,876.034,1432.583Z" transform="translate(-832.972 -1432.583)" fill="#1d3b54"/>
        </g>
      </g>
      <g id="Group_1089" data-name="Group 1089" transform="translate(56.309 42.842)">
        <g id="Group_1088" data-name="Group 1088">
          <path id="Path_16051" data-name="Path 16051" d="M828.729,1303.6s4.069-39.849.7-58.391c-2.242-12.326,1-32.328,8.391-43.12a26.4,26.4,0,0,1,2.785-3.469s14.919,3.95,16.412,4.992a30.565,30.565,0,0,1,3.869,4.078h0c4.245,5.206,10.514,14.631,11.123,23.781.443,6.656.808,12.768,1.224,19.075.124,1.918.257,3.855.394,5.832.334,4.745.716,9.714,1.193,15.191.264,3.047,2.318,12.714,3.669,21.628Z" transform="translate(-828.729 -1198.624)" fill="#389df9"/>
        </g>
      </g>
      <path id="Path_16052" data-name="Path 16052" d="M919.256,1509.527c-.754-.569-1.507-1.153-2.261-1.743-.547-.428-1.1-.864-1.64-1.3.783-2.5,5.039-13.889,6.709-22.023A69.516,69.516,0,0,1,919.256,1509.527Z" transform="translate(-825.935 -1332.36)" fill="#031d5a"/>
      <path id="Path_16053" data-name="Path 16053" d="M929.674,1318.384s-8.683,13.2-10.222-19.393l9.828,13.561C929.4,1314.47,929.537,1316.407,929.674,1318.384Z" transform="translate(-828.466 -1217.784)" fill="#436da6"/>
      <g id="Group_1091" data-name="Group 1091" transform="translate(67.789 28.094)">
        <g id="Group_1090" data-name="Group 1090">
          <path id="Path_16054" data-name="Path 16054" d="M859.157,1174.785s1.555-8.619-.257-13.63,14.845,8.446,14.845,8.446,0,.7.028,1.739c.023.814.067,1.84.14,2.915a22.082,22.082,0,0,0,.931,5.569C875.958,1182.645,859.157,1174.785,859.157,1174.785Z" transform="translate(-858.763 -1160.039)" fill="#eea886"/>
        </g>
      </g>
      <g id="Group_1092" data-name="Group 1092" transform="translate(66.583 4.494)">
        <path id="Path_16055" data-name="Path 16055" d="M881.3,1106.442s3.511,6.613,1.742,7.626c-1.461.837,1.657,7.324,2.063,8.384s-2.649,1.807-3.3,2.482-2.629,9.03-5.142,9.266-13.807-3.776-16.867-7-5.494-17.717-3.4-23.809S875.1,1094.89,881.3,1106.442Z" transform="translate(-855.609 -1098.298)" fill="#eea886"/>
      </g>
      <g id="Group_1093" data-name="Group 1093" transform="translate(63.389 0)">
        <path id="Path_16056" data-name="Path 16056" d="M876.834,1100.612s3.676-7.092-2.879-12.415-18.769,3.862-20.141,4.206-9.508,2.94-5.425,15.04c3.7,10.978,4.18,12.216,4.18,12.216s2.25-7.3,3.682-8.321c2.237-1.6,7.113-1.181,7.113-1.181s-2.284-6.187,1.355-7.037S873.167,1099.224,876.834,1100.612Z" transform="translate(-847.254 -1086.542)" fill="#3c4145"/>
      </g>
      <g id="Group_1094" data-name="Group 1094" transform="translate(70.166 17.028)">
        <path id="Path_16057" data-name="Path 16057" d="M870.468,1134.118c-.315-.849-1.327-4.494-4.463-2.378s1.886,9.008,2.43,9.1S873.118,1141.26,870.468,1134.118Z" transform="translate(-864.982 -1131.088)" fill="#eea886"/>
      </g>
      <path id="Path_16058" data-name="Path 16058" d="M882.9,1185.934c-5.162-1.387-9.588-6.99-9.588-6.99,1.411,1.377,9.449,4.075,9.449,4.075C882.784,1183.833,882.829,1184.859,882.9,1185.934Z" transform="translate(-799.963 -1143.624)" fill="#a77860"/>
      <g id="Group_1095" data-name="Group 1095" transform="translate(104.391 83.589)">
        <path id="Path_16059" data-name="Path 16059" d="M990.7,1310.829l-8.405,43.276-27.776-5.4,7.32-43.487Z" transform="translate(-954.521 -1305.224)" fill="#616161"/>
        <path id="Path_16060" data-name="Path 16060" d="M991.791,1317.355l-7.465,38.435L959.657,1351l6.5-38.622Z" transform="translate(-957.694 -1309.643)" fill="#e0cec7"/>
        <path id="Path_16061" data-name="Path 16061" d="M1006.517,1316.53l.524-2.7-9.973-1.937-.914,2.622Z" transform="translate(-980.24 -1309.345)" fill="#616161"/>
      </g>
      <g id="Group_1100" data-name="Group 1100" transform="translate(121.52 105.811)">
        <g id="Group_1099" data-name="Group 1099">
          <g id="Group_1098" data-name="Group 1098">
            <g id="Group_1097" data-name="Group 1097">
              <g id="Group_1096" data-name="Group 1096">
                <path id="Path_16062" data-name="Path 16062" d="M1015.138,1377.124a6.019,6.019,0,0,1-1.865.475s-1.166-.157-2-.218a5.682,5.682,0,0,0-.647-.02,11.039,11.039,0,0,1-3.526-.028c-1.531-.333-7.764-3.47-7.764-3.47l.739-3.85.178-3.7s9.087-3.088,10.549-2.943a3.717,3.717,0,0,1,.414.064,14.059,14.059,0,0,1,2.665,1.141c.23.076,2.472.977,2.692,1.666a2.358,2.358,0,0,1-.3,2.274,5.644,5.644,0,0,1-.024,3.1,3.508,3.508,0,0,1-.568,3.044S1016.021,1376.474,1015.138,1377.124Z" transform="translate(-999.334 -1363.36)" fill="#eea886"/>
              </g>
            </g>
          </g>
        </g>
      </g>
      <g id="Group_1102" data-name="Group 1102" transform="translate(70.777 67.384)">
        <g id="Group_1101" data-name="Group 1101">
          <path id="Path_16063" data-name="Path 16063" d="M920.334,1303.352a29.013,29.013,0,0,1-3.01,8.406s-6.966-.275-11.8-1c-11.526-1.722-16.357-3.29-19.251-6.018-5.2-4.9-19.695-33.03-19.695-33.03l14.032-8.885,9.868,22.086c1.076,2.176,3.045,5.416,4.46,8.3,1.855,3.783,10.123,7.016,13.817,8.039C908.758,1301.255,915.829,1303.352,920.334,1303.352Z" transform="translate(-866.58 -1262.828)" fill="#eea886"/>
        </g>
      </g>
      <g id="Group_1104" data-name="Group 1104" transform="translate(67.692 59.166)">
        <g id="Group_1103" data-name="Group 1103">
          <path id="Path_16064" data-name="Path 16064" d="M882.624,1261.555l-15.951,8.294s-3.163-6.12-4.089-8.109c-2.657-5.706-6.765-14.329-1.6-17.972,11.151-7.863,15.944,5.184,18.683,12.338A38.192,38.192,0,0,0,882.624,1261.555Z" transform="translate(-858.509 -1241.329)" fill="#389df9"/>
        </g>
      </g>
    </g>
    <path id="Path_16065" data-name="Path 16065" d="M9120.342,838.314l3.064.47.426-6.195-2.928-2.169-1.775,1.625Z" transform="translate(-8115 -170)" fill="#eea886"/>
    <g id="Mask_Group_40" data-name="Mask Group 40" transform="translate(1009.939 664.962) rotate(30)" clip-path="url(#clip-path)">
      <g id="Group_1107" data-name="Group 1107" transform="matrix(-0.695, -0.719, 0.719, -0.695, -2.388, 12.633)">
        <g id="Group_1047-2" data-name="Group 1047" transform="translate(0 0)">
          <g id="Group_1046-2" data-name="Group 1046">
            <path id="Path_16006-2" data-name="Path 16006" d="M10.977,10.532S8.6,9,7.232,9.857a9.062,9.062,0,0,1-3.817.861C2.581,10.761.065,11.849,0,10.8S4.061,8.8,4.886,8.434,2.077,6.289,1.668,5.441,4.539-1.26,6.893.247s3.874,4.67,4.34,4.853a17.133,17.133,0,0,1,1.756,1.028Z" fill="#eea886"/>
          </g>
        </g>
      </g>
    </g>
  </g>
</svg>
