<svg xmlns="http://www.w3.org/2000/svg" width="1055.799" height="782.298" viewBox="0 0 1055.799 782.298">
  <g id="Group_1274" data-name="Group 1274" transform="translate(-402 -10053.15)">
    <g id="Group_1134" data-name="Group 1134" transform="translate(635.39 10402.537)">
      <circle id="Ellipse_1639" data-name="Ellipse 1639" cx="155.284" cy="155.284" r="155.284" transform="translate(137.347 48.038)" fill="#389df9" opacity="0.41"/>
      <g id="Group_1119" data-name="Group 1119" transform="translate(40.265 57.777)">
        <path id="Path_16069" data-name="Path 16069" d="M75.608,424.68a2.891,2.891,0,1,0-.02-1.509l-1.593.021a9.958,9.958,0,0,0-2.467-5.735l2.941-3.019a2.924,2.924,0,1,0-1.08-1.053L70.447,416.4a9.962,9.962,0,0,0-5.8-2.315l-.021-1.594a2.891,2.891,0,1,0-1.509.02l.021,1.594a9.959,9.959,0,0,0-5.612,2.352l-2.906-2.83a2.886,2.886,0,1,0-4.535.673h0a2.862,2.862,0,0,0,3.482.408l2.893,2.818a9.963,9.963,0,0,0-2.426,5.924l-1.593.022a2.891,2.891,0,1,0,.02,1.509l1.593-.021a9.963,9.963,0,0,0,2.467,5.735l-2.707,2.78a2.883,2.883,0,1,0,.673,4.535h0a2.889,2.889,0,0,0,.408-3.482l2.707-2.78a9.963,9.963,0,0,0,5.8,2.315l.022,1.594a2.891,2.891,0,1,0,1.508-.02l-.021-1.594a9.96,9.96,0,0,0,5.859-2.58l2.893,2.818a2.919,2.919,0,1,0,1.052-1.081l-2.9-2.829a9.959,9.959,0,0,0,2.2-5.672Zm-14.92-5.329a1.844,1.844,0,1,1,1.868,1.82A1.844,1.844,0,0,1,60.688,419.351Zm3.267,5.673a1.281,1.281,0,1,1,1.264-1.3A1.28,1.28,0,0,1,63.955,425.024Zm3.829-1.748a1.453,1.453,0,1,1,1.433-1.472A1.453,1.453,0,0,1,67.784,423.276Z" transform="translate(-46.775 -140.701)" fill="#f9d8ad"/>
        <path id="Path_16071" data-name="Path 16071" d="M459.81,74.783a2.281,2.281,0,1,0-.015-1.189l-1.257.016a7.853,7.853,0,0,0-1.945-4.523l2.319-2.38a2.307,2.307,0,1,0-.852-.83l-2.319,2.381a7.856,7.856,0,0,0-4.572-1.826l-.016-1.256a2.279,2.279,0,1,0-1.189.016l.016,1.256a7.855,7.855,0,0,0-4.425,1.855l-2.291-2.232a2.276,2.276,0,1,0-3.575.531h0a2.256,2.256,0,0,0,2.745.321l2.282,2.223a7.851,7.851,0,0,0-1.913,4.671l-1.256.017a2.28,2.28,0,1,0,.015,1.189l1.256-.017a7.856,7.856,0,0,0,1.945,4.523l-2.134,2.192a2.274,2.274,0,1,0,.53,3.575h0a2.278,2.278,0,0,0,.322-2.746l2.134-2.191a7.861,7.861,0,0,0,4.573,1.825l.016,1.257a2.279,2.279,0,1,0,1.189-.016l-.016-1.257a7.854,7.854,0,0,0,4.619-2.034l2.281,2.222a2.3,2.3,0,1,0,.83-.853l-2.291-2.231a7.848,7.848,0,0,0,1.738-4.473Zm-11.765-4.2a1.454,1.454,0,1,1,1.473,1.435A1.455,1.455,0,0,1,448.044,70.581Zm2.576,4.473a1.01,1.01,0,1,1,1-1.023A1.01,1.01,0,0,1,450.621,75.055Zm3.019-1.379a1.145,1.145,0,1,1,1.13-1.16A1.145,1.145,0,0,1,453.639,73.676Z" transform="translate(-136.981 -60.705)" fill="#f8efea"/>
        <path id="Path_16072" data-name="Path 16072" d="M280.072,110.168a2.281,2.281,0,1,0-.015-1.189l-1.256.016a7.857,7.857,0,0,0-1.945-4.523l2.319-2.38a2.307,2.307,0,1,0-.852-.83L276,103.643a7.857,7.857,0,0,0-4.573-1.826l-.016-1.256a2.28,2.28,0,1,0-1.19.016l.016,1.256a7.857,7.857,0,0,0-4.426,1.855l-2.291-2.232a2.276,2.276,0,1,0-3.575.53h0a2.257,2.257,0,0,0,2.746.321l2.281,2.223a7.855,7.855,0,0,0-1.912,4.671l-1.256.017a2.28,2.28,0,1,0,.015,1.189l1.256-.017a7.856,7.856,0,0,0,1.945,4.523l-2.135,2.192a2.273,2.273,0,1,0,.531,3.575h0a2.276,2.276,0,0,0,.321-2.746l2.135-2.191a7.856,7.856,0,0,0,4.572,1.825l.017,1.256a2.28,2.28,0,1,0,1.189-.015l-.017-1.257a7.856,7.856,0,0,0,4.62-2.034l2.281,2.222a2.3,2.3,0,1,0,.83-.853l-2.29-2.231a7.855,7.855,0,0,0,1.738-4.473Zm-11.765-4.2a1.454,1.454,0,1,1,1.472,1.435A1.454,1.454,0,0,1,268.307,105.966Zm2.576,4.473a1.01,1.01,0,1,1,1-1.023A1.01,1.01,0,0,1,270.884,110.44Zm3.019-1.379a1.145,1.145,0,1,1,1.13-1.16A1.145,1.145,0,0,1,273.9,109.061Z" transform="translate(-95.44 -68.883)" fill="#f8efea"/>
        <path id="Path_16074" data-name="Path 16074" d="M692.436,407.475a3.557,3.557,0,1,0-.424-1.807l-1.909.448a12.257,12.257,0,0,0-4.486-6.236l2.732-4.408a3.6,3.6,0,1,0-1.578-.978l-2.732,4.409a12.258,12.258,0,0,0-7.581-1.243l-.448-1.909a3.557,3.557,0,1,0-1.807.424l.448,1.909a12.259,12.259,0,0,0-6.119,4.317l-4.242-2.629a3.551,3.551,0,1,0-5.27,2.011h0a3.522,3.522,0,0,0,4.292-.434l4.225,2.619a12.248,12.248,0,0,0-1.342,7.762l-1.909.448a3.557,3.557,0,1,0,.424,1.807l1.908-.448a12.255,12.255,0,0,0,4.486,6.236l-2.515,4.058a3.548,3.548,0,1,0,2.012,5.27h0a3.554,3.554,0,0,0-.434-4.292l2.515-4.058a12.256,12.256,0,0,0,7.581,1.243l.448,1.909a3.557,3.557,0,1,0,1.807-.424l-.448-1.909a12.258,12.258,0,0,0,6.354-4.656l4.223,2.618a3.6,3.6,0,1,0,.977-1.578l-4.241-2.629a12.261,12.261,0,0,0,1.143-7.4ZM673.1,405.034a2.269,2.269,0,1,1,2.727,1.69A2.27,2.27,0,0,1,673.1,405.034Zm5.431,5.948a1.576,1.576,0,1,1,1.175-1.894A1.576,1.576,0,0,1,678.527,410.982Zm4.136-3.115a1.788,1.788,0,1,1,1.332-2.149A1.787,1.787,0,0,1,682.663,407.867Z" transform="translate(-187.889 -136.469)" fill="#f9d8ad"/>
      </g>
      <g id="Group_1123" data-name="Group 1123" transform="translate(298.736 105.683)">
        <g id="Group_1120" data-name="Group 1120" transform="translate(6.58 236.388)">
          <path id="Path_16076" data-name="Path 16076" d="M520.939,395.834l5.447,89.726h-56.4V472.08L466.6,485.56H391.5l15.028-89.726Z" transform="translate(-391.498 -395.834)" fill="#031d5a"/>
          <path id="Path_16077" data-name="Path 16077" d="M407.151,413.7l2.992-17.864H524.557l.617,2.707C516.507,399.91,437.643,414.443,407.151,413.7Z" transform="translate(-395.116 -395.834)" fill="#031d5a"/>
          <path id="Path_16078" data-name="Path 16078" d="M493.584,479.853l3.393-22.125,16.92-3.687" transform="translate(-415.092 -403.608)" fill="#031d5a" stroke="#e5ffff" stroke-linecap="round" stroke-linejoin="round" stroke-width="1.5"/>
          <line id="Line_29" data-name="Line 29" x1="11.75" y2="76.658" transform="translate(9.975 13.068)" fill="none" stroke="#031d5a" stroke-linecap="round" stroke-linejoin="round" stroke-width="1.5"/>
          <path id="Path_16079" data-name="Path 16079" d="M428.394,410.916s-3.092,30.687-14.979,31.8" transform="translate(-396.563 -397.848)" fill="#031d5a" stroke="#ba2f42" stroke-linecap="round" stroke-linejoin="round" stroke-width="1.5"/>
          <path id="Path_16080" data-name="Path 16080" d="M508.164,433.283h0V395.834h8.224v28.181C516.388,429.134,512.706,433.283,508.164,433.283Z" transform="translate(-418.462 -395.834)" fill="#031d5a" stroke="#e5ffff" stroke-linecap="round" stroke-linejoin="round" stroke-width="1.5"/>
          <line id="Line_30" data-name="Line 30" y2="14.968" transform="translate(89.702 37.449)" fill="none" stroke="#031d5a" stroke-linecap="round" stroke-linejoin="round" stroke-width="1.5"/>
        </g>
        <g id="Group_1122" data-name="Group 1122">
          <path id="Path_16081" data-name="Path 16081" d="M722.624,225.954l-34.894,4.98c-2.762.394-5.308-1.83-5.658-4.942h0c-.35-3.112,1.624-5.981,4.386-6.375l34.894-4.979c2.762-.394,5.308,1.829,5.657,4.941h0C727.36,222.691,725.386,225.56,722.624,225.954Z" transform="translate(-452.067 -135.241)" fill="#ffa297"/>
          <g id="Group_1121" data-name="Group 1121" transform="translate(215.473 60.964)">
            <path id="Path_16082" data-name="Path 16082" d="M677.677,228.34c-3.476,8.918-11.25,30.343-14.359,50.986-.961,6.375,3.378,12.2,9.116,12.2h32.89c4.782,0,8.775-4.1,9.211-9.47.749-9.2-.021-23.77-9.01-37.584a32.133,32.133,0,0,1-4.669-14.087c-.376-3.616-3.1-6.336-6.331-6.336H683.515A6.39,6.39,0,0,0,677.677,228.34Z" transform="translate(-663.183 -197.469)" fill="#389df9"/>
            <path id="Path_16083" data-name="Path 16083" d="M671.312,279.327c3.11-20.643,10.884-42.068,14.36-50.986a6.391,6.391,0,0,1,5.838-4.292h-8a6.39,6.39,0,0,0-5.838,4.292c-3.476,8.918-11.25,30.343-14.359,50.986-.961,6.375,3.378,12.2,9.116,12.2h8C674.69,291.526,670.351,285.7,671.312,279.327Z" transform="translate(-663.183 -197.469)" fill="#27c0fa"/>
            <rect id="Rectangle_1651" data-name="Rectangle 1651" width="13.992" height="7.208" transform="translate(19.02 19.371)" fill="#f8efea"/>
            <path id="Path_16084" data-name="Path 16084" d="M717.353,196.375l-37.578-3v10.061l7.729,4.055v5.256h11.06v-4.2l4.582-.989,8.692,18.408,3.525-.922-3.969-19.265,5.96-1.286Z" transform="translate(-667.018 -193.372)" fill="#f73c4f"/>
            <path id="Path_16085" data-name="Path 16085" d="M689.826,209.663l11.06,1.051v4.2h-11.06Z" transform="translate(-669.341 -195.548)" fill="#ba2f42"/>
            <line id="Line_31" data-name="Line 31" y1="1.78" x2="8.247" transform="translate(36.128 12.398)" fill="none" stroke="#ba2f42" stroke-linecap="round" stroke-linejoin="round" stroke-width="1.5"/>
            <path id="Path_16086" data-name="Path 16086" d="M728.648,197.791l1.8.9v4.787l-1.8.507Z" transform="translate(-678.314 -193.962)" fill="#27c0fa"/>
          </g>
          <path id="Path_16087" data-name="Path 16087" d="M718.619,245.278a4.58,4.58,0,0,0,1.095-2.905c0-2.328-1.9-4.32-4.593-5.148a4.669,4.669,0,0,0,1.343-3.193c0-3.072-3.3-5.562-7.374-5.562s-7.373,2.49-7.373,5.562c0,2.328,1.9,4.32,4.592,5.148a4.67,4.67,0,0,0-1.343,3.193c0,2.394,2.009,4.428,4.822,5.212a4.032,4.032,0,0,0-.7,2.229c0,2.777,2.985,5.028,6.667,5.028s6.666-2.251,6.666-5.028C722.424,247.811,720.867,246.087,718.619,245.278Z" transform="translate(-456.616 -137.095)" fill="#ffa297"/>
          <path id="Path_16088" data-name="Path 16088" d="M656.937,215.6c-2.9-.27-5.793.638-8.726.543-2.879-.093-5.573-.4-8.427-.278-7.319.306-9.736,5.912-13.729,10.917a74.294,74.294,0,0,0-7.21,10.21c-.967,1.781-36.821,60.57-36.821,60.57l-4.194-7.461-48.645,33.764,20.445,36.545c10.928,14.7,30.192,13.46,30.192,13.46,45.879-2.282,60.744-104.586,61.429-109.484a29.516,29.516,0,0,0,2.712-6.429A39.837,39.837,0,0,0,645.4,248.7c.115-2.625-.656-5.2.064-7.68,1.4-4.835,3.961-9.841,3.73-15.055,3.163-.44,8.781-1.195,11.214-3.343C663.727,219.693,660.747,215.957,656.937,215.6Z" transform="translate(-416.741 -135.37)" fill="#ffa297"/>
          <path id="Path_16089" data-name="Path 16089" d="M456.271,164.336c-.411-6.958-2.285-13.706-1.326-20.839.652-4.85,1.905-11.682,7.116-11.565.094-5.137,7.535-6.178,10.779-6.325,3.375-.153,6.753.285,10.092-.012,2.582-.23,4.045-1.48,6.385-2.278,3.6-1.228,3.753,1.486,5.178,3.8,1.9,3.083,8.234-.317,11.214.681,4.455,1.493,6.8,5.836,6.174,10.938-.444,3.626-2.56,5.786-3.6,8.893,2.706.081,3.767,2.872,2.985,5.591-.976,3.4-4.348,5.921-7.089,7.339a41.908,41.908,0,0,1-6.06,2.1c-2.937.995-5.7,2.609-8.718,3.27a90.8,90.8,0,0,1-19.508,1.777,35.7,35.7,0,0,1-11.163-1.787,8.5,8.5,0,0,1-1.683-.773C456.389,164.763,456.436,164.427,456.271,164.336Z" transform="translate(-399.52 -123.011)" fill="#641216"/>
          <path id="Path_16091" data-name="Path 16091" d="M462.222,214.807a44.1,44.1,0,0,0-14.663.088c-14.44,2.514-51.762,10.633-56.546,34.882-5.373,27.236-8.073,130.763-8.073,130.763H523.233l-3.877-69.56,26.189-22.345-26.189-41.255S505.968,221.918,462.222,214.807Z" transform="translate(-382.94 -135.194)" fill="#69a4c2"/>
          <path id="Path_16092" data-name="Path 16092" d="M482.295,243.187c19.4-1.193,22.027-13.465,21.981-20.22a106.536,106.536,0,0,0-27.532-8.159,44.1,44.1,0,0,0-14.663.088,163.118,163.118,0,0,0-16.311,3.666h0S447.566,245.323,482.295,243.187Z" transform="translate(-397.461 -135.194)" fill="#fff"/>
          <path id="Path_16093" data-name="Path 16093" d="M483.979,235.529c11.22,0,14.69-3.031,16.431-15.12a111.232,111.232,0,0,0-21.395-5.6,44.1,44.1,0,0,0-14.663.088c-2.51.437-5.505,1.048-8.754,1.88C455.819,230.6,471.659,235.529,483.979,235.529Z" transform="translate(-399.733 -135.194)" fill="#ffa297"/>
          <rect id="Rectangle_1652" data-name="Rectangle 1652" width="24.656" height="38.958" transform="translate(64.247 49.652)" fill="#ffa297"/>
          <path id="Path_16094" data-name="Path 16094" d="M466.5,180.316v11.071s12.745,17.277,24.656,18.319v-29.39Z" transform="translate(-402.252 -130.664)" fill="#f55c2b"/>
          <path id="Path_16095" data-name="Path 16095" d="M594.951,310.2s-7.366,6.839-9.833,13.592" transform="translate(-429.668 -148.01)" fill="none" stroke="#f55c2b" stroke-linecap="round" stroke-linejoin="round" stroke-width="1.5"/>
          <path id="Path_16096" data-name="Path 16096" d="M639.062,290.4v-.265" transform="translate(-442.135 -145.33)" fill="none"/>
          <path id="Path_16097" data-name="Path 16097" d="M434.4,477.343H382.94l2.444-145.035H434.4Z" transform="translate(-382.94 -150.962)" fill="#ffa297"/>
          <path id="Path_16098" data-name="Path 16098" d="M385.985,332.308h49.02l-49.465,9.308Z" transform="translate(-383.541 -150.962)" fill="#f55c2b"/>
          <line id="Line_32" data-name="Line 32" y1="35.895" x2="1.41" transform="translate(51.464 145.452)" fill="none" stroke="#376f92" stroke-linecap="round" stroke-linejoin="round" stroke-width="1.5"/>
          <line id="Line_33" data-name="Line 33" x1="2.996" y1="30.984" transform="translate(133.419 144.803)" fill="none" stroke="#376f92" stroke-linecap="round" stroke-linejoin="round" stroke-width="1.5"/>
          <path id="Path_16099" data-name="Path 16099" d="M474.988,153.284c-1.5,10.725-15.241,13.7-15.241,13.7l-2.216-7.562a4.582,4.582,0,0,0-4.216-.49c-2.948,1.216-4.242,5.576-2.89,9.74,1.249,3.848,4.322,6.175,7.108,5.545,1.948,13.651,11.7,24.033,23.449,24.033,13.15,0,23.81-13,23.81-29.044a34.478,34.478,0,0,0-1.942-11.5C493.193,160.886,474.988,153.284,474.988,153.284Z" transform="translate(-398.413 -127.054)" fill="#ffa297"/>
          <path id="Path_16100" data-name="Path 16100" d="M461.752,166.754s-9.386,31.276,25.5,36.064c0,0,14.58,2.738,18.242-6.547a29.7,29.7,0,0,0,.857-17.673,69.419,69.419,0,0,1-31.612-3.082s-5.112-5.562-5.287-11.917Z" transform="translate(-400.89 -128.432)" fill="#641216"/>
          <line id="Line_34" data-name="Line 34" x1="6.855" y2="1.371" transform="translate(225.597 90.6)" fill="none" stroke="#f55c2b" stroke-linecap="round" stroke-linejoin="round" stroke-width="1.5"/>
          <path id="Path_16101" data-name="Path 16101" d="M677.446,246.121a15.2,15.2,0,0,1-7.744,7.945" transform="translate(-449.217 -139.452)" fill="none" stroke="#f55c2b" stroke-linecap="round" stroke-linejoin="round" stroke-width="1.5"/>
          <path id="Path_16102" data-name="Path 16102" d="M707.69,240.512s4.886-2.636,8.812-1.956" transform="translate(-457.996 -138.427)" fill="none" stroke="#f55c2b" stroke-linecap="round" stroke-linejoin="round" stroke-width="1.5"/>
          <path id="Path_16103" data-name="Path 16103" d="M712.215,250.172a17.4,17.4,0,0,1,8.831-2.306" transform="translate(-459.042 -139.682)" fill="none" stroke="#f55c2b" stroke-linecap="round" stroke-linejoin="round" stroke-width="1.5"/>
          <path id="Path_16104" data-name="Path 16104" d="M515.35,156.381l-43-.341v-9.386l43,.341Z" transform="translate(-403.605 -126.169)" fill="#f73c4f"/>
          <path id="Path_16105" data-name="Path 16105" d="M476.98,143.79l.1,24.513a7.955,7.955,0,0,0,3.812,6.459l2.31,1.316a7.964,7.964,0,0,1,3.816,6.528l.551,9.932c.188,3.4,2.659,6.071,5.683,6.142l23.052.52.241-55.41Z" transform="translate(-404.675 -125.786)" fill="none" stroke="#fff" stroke-miterlimit="10" stroke-width="1.5"/>
          <rect id="Rectangle_1653" data-name="Rectangle 1653" width="14.344" height="3.972" transform="translate(54.402 22.986)" fill="#fff"/>
          <rect id="Rectangle_1654" data-name="Rectangle 1654" width="6.576" height="55.017" transform="translate(87.654 18.004)" fill="#fff" opacity="0.5"/>
          <rect id="Rectangle_1655" data-name="Rectangle 1655" width="3.288" height="55.017" transform="translate(96.819 18.004)" fill="#fff" opacity="0.5"/>
        </g>
      </g>
      <g id="Group_1129" data-name="Group 1129" transform="translate(18.61 100.702)">
        <g id="Group_1124" data-name="Group 1124" transform="translate(61.028 234.979)">
          <path id="Path_16106" data-name="Path 16106" d="M118.469,388.5,97.983,484.882h67.859l3.577-14.48,3.386,14.48h66.562L229.358,388.5Z" transform="translate(-97.983 -388.499)" fill="#2a878e"/>
          <path id="Path_16107" data-name="Path 16107" d="M236.988,404.461,235.331,388.5H124.441l-.617,2.907C132.492,392.878,206.5,405.261,236.988,404.461Z" transform="translate(-103.955 -388.499)" fill="#20707b"/>
          <path id="Path_16108" data-name="Path 16108" d="M184.787,478.929l-3.393-23.766-16.92-3.961" transform="translate(-113.35 -397.027)" fill="none" stroke="#89c4c0" stroke-linecap="round" stroke-linejoin="round" stroke-width="1.5"/>
          <line id="Line_35" data-name="Line 35" x2="13.331" y2="93.427" transform="translate(118.162 2.955)" fill="none" stroke="#89c4c0" stroke-linecap="round" stroke-linejoin="round" stroke-width="1.5"/>
          <path id="Path_16109" data-name="Path 16109" d="M239.027,391.92s4.284,44.046,16.17,45.235" transform="translate(-130.581 -388.964)" fill="none" stroke="#89c4c0" stroke-linecap="round" stroke-linejoin="round" stroke-width="1.5"/>
        </g>
        <path id="Path_16110" data-name="Path 16110" d="M69.84,295.022s-27.965,59.434,2.115,83.72c0,0,11.729,5.272,22.784-1.33s23.745-39.533,23.745-39.533L97.805,314.3l-4.528,5.961,1.462-25.238Z" transform="translate(-27.717 -140.807)" fill="#ffa297"/>
        <path id="Path_16111" data-name="Path 16111" d="M58.272,338.9c11.17-11.819,35.979-34.421,35.979-34.421h0l.548-9.456H69.9S59.8,316.493,58.272,338.9Z" transform="translate(-27.777 -140.807)" fill="#f55c2b"/>
        <path id="Path_16112" data-name="Path 16112" d="M108.4,317.334l-4.528,5.961s13.4,27.232,13.721,41.938a205.064,205.064,0,0,0,11.487-24.32Z" transform="translate(-38.317 -143.842)" fill="#f55c2b"/>
        <g id="Group_1125" data-name="Group 1125" transform="translate(5.108 138.324)">
          <path id="Path_16113" data-name="Path 16113" d="M63.8,283.9s-7.475-11.671-18.879-5.438c-8.808,4.813-16.224.5-17.494,4.678s8.282,7.391,14.882,6.9c0,0-14.091,13.917-16.645,24.169s7.669,1.29,7.669,1.29-6.207,7.507-4.409,9.976c2.21,3.034,6.621,1.07,8.844-1.486,0,0-.647,5,3.428,4.246,2.534-.471,7.778-5.288,7.778-5.288s-3.97,5.724-.983,6.493,7.7-1.635,15.067-10.542S87.742,292.333,63.8,283.9Z" transform="translate(-25.253 -276.63)" fill="#ffa297"/>
          <path id="Path_16114" data-name="Path 16114" d="M47.434,292.148s8.727,4.946,13.828,2.327" transform="translate(-30.38 -278.74)" fill="none" stroke="#f55c2b" stroke-linecap="round" stroke-linejoin="round" stroke-width="1.5"/>
          <line id="Line_36" data-name="Line 36" y1="13.338" x2="11.163" transform="translate(8.079 25.528)" fill="none" stroke="#f55c2b" stroke-linecap="round" stroke-linejoin="round" stroke-width="1.5"/>
          <path id="Path_16115" data-name="Path 16115" d="M41.529,328.682c.088-.527,14.945-17.519,14.945-17.519" transform="translate(-29.015 -281.326)" fill="none" stroke="#f55c2b" stroke-linecap="round" stroke-linejoin="round" stroke-width="1.5"/>
          <line id="Line_37" data-name="Line 37" y1="12.339" x2="10.079" transform="translate(23.72 33.974)" fill="none" stroke="#f55c2b" stroke-linecap="round" stroke-linejoin="round" stroke-width="1.5"/>
          <line id="Line_38" data-name="Line 38" x2="20" y2="12.185" transform="translate(17.656 24.049)" fill="none" stroke="#f55c2b" stroke-linecap="round" stroke-linejoin="round" stroke-width="1.5"/>
        </g>
        <path id="Path_16116" data-name="Path 16116" d="M242.364,206.453c-4.455-28.56-35.731-23.629-37.493-29.2s4.583-14.561,0-32.231c-3.441-13.267-16.815-14.488-23.268-14.273-.059-1.534-.491-3.3-.584-4.163-.141-1.293-.86-8.72-3.2-7.359-2.066,1.2-.356,5.823-.315,7.7-.5-2.192-4.378-12.264-7.3-9.214-1,1.051-.828,2.754-.265,4.451-6.993-5.551-16.641-8.988-25.11-.565-9,8.951-7.035,21.552-5.07,28.256a8.632,8.632,0,0,1-1.226,7.488c-3.64,4.932-6.276,13.294-6.276,13.294-21.15-.685-33.84,26.163-26.085,51.915s35.249,28.743,35.249,28.743c19.035,21.208,53.227,7.049,53.227,7.049C236.242,264.816,246.818,235.013,242.364,206.453Z" transform="translate(-38.317 -116.532)" fill="#641216"/>
        <path id="Path_16117" data-name="Path 16117" d="M160.09,217.366s-40.185,2.68-51.934,17.021-30.777,64.192-30.777,64.192l19.732,16.514s4.935,10.034,12.925,16.636l-.705,36.258H228.651l-3.861-48.656a104.13,104.13,0,0,1,.18-11.828c1.262-17.321,19.13-70.951-37.094-82.064Z" transform="translate(-32.193 -130.246)" fill="#389df9"/>
        <path id="Path_16118" data-name="Path 16118" d="M119.852,348.806s1.64-.551,4.883-1.4c11.054-2.9,41.881-9.138,70.626,1.4" transform="translate(-42.009 -147.322)" fill="#27c0fa" stroke="#27c0fa" stroke-linecap="round" stroke-linejoin="round" stroke-width="1.5"/>
        <path id="Path_16119" data-name="Path 16119" d="M177.006,253.478c16.08,0,29.869-13.463,30.362-27.3-1.035-.278-2.084-.534-3.162-.741l-27.787-8.072a165.315,165.315,0,0,0-28.139,4.715,22.626,22.626,0,0,0-.25,3.291C148.03,239.581,160.613,253.478,177.006,253.478Z" transform="translate(-48.522 -130.246)" fill="#fff"/>
        <path id="Path_16120" data-name="Path 16120" d="M204.228,221.385l-10.3-2.993,1.421-28H171.185l-4.723,24.6c-3.535.523-7.622,1.235-11.853,2.191a19.131,19.131,0,0,0-.754,5.314c0,12.066,11.283,21.848,25.2,21.848s25.2-9.782,25.2-21.848Q204.26,221.936,204.228,221.385Z" transform="translate(-49.868 -126.577)" fill="#ffa297"/>
        <path id="Path_16121" data-name="Path 16121" d="M171.1,211.606c19.14-1.02,28.139-19.322,28.139-19.322h0l.1-1.9H175.169Z" transform="translate(-53.853 -126.577)" fill="#f55c2b"/>
        <path id="Path_16122" data-name="Path 16122" d="M202.17,168.57a4.556,4.556,0,0,0-4.06.511c-.007.016-2.047,4.862-2,8.026,0,0-1.954-5.81-4.3-6.338-1.874-.421-6.708-.041-11.67-2.132a12.866,12.866,0,0,1-3.741-2.106l-.017-.011a3.363,3.363,0,0,1-.308-.258c-5.534-4.636-8.195-13.052-8.195-13.052l-6.811,6.311a12.589,12.589,0,0,0-3.885,8.781c-.03.837-.035,1.757-.035,2.837,0,15.444,9.574,27.964,21.385,27.964,8.343,0,15.566-6.249,19.088-15.363h0c2.974,1.128,6.406-1.353,7.663-5.542S205.144,169.7,202.17,168.57Z" transform="translate(-50.627 -121.52)" fill="#ffa297"/>
        <path id="Path_16123" data-name="Path 16123" d="M193.822,170.768c-1.874-.421-6.708-.041-11.67-2.132a12.865,12.865,0,0,1-3.741-2.106l-.017-.011a3.362,3.362,0,0,1-.308-.258c-5.534-4.636-8.195-13.052-8.195-13.052l-4.007,3.713c2.464,4.31,8.058,12.8,14.015,12.989,5.4.175,11.07.657,14.176.95A1.9,1.9,0,0,0,193.822,170.768Z" transform="translate(-52.648 -121.52)" fill="#f55c2b"/>
        <path id="Path_16124" data-name="Path 16124" d="M214.559,284.192C204.513,299.705,195.3,313.92,195.3,313.92l42.512,36.4" transform="translate(-59.446 -139.334)" fill="none" stroke="#063d51" stroke-linecap="round" stroke-linejoin="round" stroke-width="1.5"/>
        <g id="Group_1126" data-name="Group 1126" transform="translate(0 125.388)">
          <path id="Path_16125" data-name="Path 16125" d="M66.47,283.67v-.008a4.812,4.812,0,0,0-4.509-5.066,4.5,4.5,0,0,0-4.074,2.9,5.709,5.709,0,0,0-1.449-.267l0-.017a4.356,4.356,0,0,0-4.082-4.586,4.356,4.356,0,0,0-4.082,4.586c0,.064.015.123.017.186a3.818,3.818,0,0,0-1.165-.186,4.824,4.824,0,0,0,0,9.582,3.834,3.834,0,0,0,.663-.064,5.989,5.989,0,0,0-.663,2.755c0,3.038,2.192,5.5,4.9,5.5a4.964,4.964,0,0,0,4.6-3.631c.072-.006.144-.01.215-.019a5.669,5.669,0,0,0,5.023,3.341,5.972,5.972,0,0,0,5.646-5.378,4.858,4.858,0,0,0,3.2-4.729A4.683,4.683,0,0,0,66.47,283.67Z" transform="translate(-24.216 -263.694)" fill="#fff"/>
          <path id="Path_16126" data-name="Path 16126" d="M62.075,267.643a3.013,3.013,0,1,0-2.663-2.993A2.843,2.843,0,0,0,62.075,267.643Z" transform="translate(-28.04 -261.658)" fill="#fff"/>
          <path id="Path_16127" data-name="Path 16127" d="M49.02,270.087a1.795,1.795,0,1,0-1.586-1.782A1.693,1.693,0,0,0,49.02,270.087Z" transform="translate(-25.272 -262.319)" fill="#fff"/>
          <path id="Path_16128" data-name="Path 16128" d="M37.783,305.522a3.781,3.781,0,0,0,.088-.782,3.207,3.207,0,0,0-3-3.376,3.115,3.115,0,0,0-2.941,2.686c-.022,0-.042-.008-.064-.008a4.1,4.1,0,0,0,0,8.148,3.385,3.385,0,0,0,2.39-1.033,3.8,3.8,0,0,0,3.526,2.809,4.251,4.251,0,0,0,0-8.445Z" transform="translate(-20.835 -267.058)" fill="#fff"/>
          <ellipse id="Ellipse_1640" data-name="Ellipse 1640" cx="2.086" cy="2.344" rx="2.086" ry="2.344" transform="translate(17.622 28.827)" fill="#fff"/>
          <path id="Path_16129" data-name="Path 16129" d="M78.612,274.774a1.4,1.4,0,1,0,1.234,1.387A1.317,1.317,0,0,0,78.612,274.774Z" transform="translate(-32.193 -263.442)" fill="#fff"/>
          <path id="Path_16130" data-name="Path 16130" d="M52.226,315.347a2.2,2.2,0,1,0,1.948,2.189A2.079,2.079,0,0,0,52.226,315.347Z" transform="translate(-25.929 -268.96)" fill="#fff"/>
          <path id="Path_16131" data-name="Path 16131" d="M20.793,312.89a2.469,2.469,0,0,0,0,4.9,2.469,2.469,0,0,0,0-4.9Z" transform="translate(-18.61 -268.626)" fill="#fff"/>
          <path id="Path_16132" data-name="Path 16132" d="M34.455,320.414a1.7,1.7,0,1,0,1.5,1.688A1.6,1.6,0,0,0,34.455,320.414Z" transform="translate(-21.925 -269.649)" fill="#fff"/>
        </g>
        <g id="Group_1127" data-name="Group 1127" transform="translate(23.885 126.497)">
          <path id="Path_16133" data-name="Path 16133" d="M161.065,321.291l-48.738-31.952s-7.755-16.174-14.629-18.352-16.919-5.546-19.21-7.922c0,0-4.583-1.387-4.406,5.149s9.693,7.724,10.4,11.091c0,0-30.843,1.189-31.2,4.952s1.692,6.5,11.985,7.861c0,0-14.629-.731-15.51,3.032s5.288,6.734,10.751,6.536c0,0-5.464,0-5.288,3.367s11.1,4.158,11.1,4.158,1.234,4.754,9.694,5.347,22.383,1.783,24.5,2.971c0,0,32.782,50.5,54.46,56.444,0,0,18.33,2.179,27.494-3.565s21.679-22.974,21.679-22.974l-37.717-32.48Z" transform="translate(-49.675 -262.942)" fill="#ffa297"/>
          <path id="Path_16134" data-name="Path 16134" d="M225.685,371.723a162.333,162.333,0,0,0,13.565-16.1l-37.717-32.48S228.322,353.244,225.685,371.723Z" transform="translate(-84.773 -271.129)" fill="#f55c2b"/>
          <line id="Line_39" data-name="Line 39" x2="12.778" y2="0.953" transform="translate(15.594 29.175)" fill="none" stroke="#f55c2b" stroke-linecap="round" stroke-linejoin="round" stroke-width="1.5"/>
          <line id="Line_40" data-name="Line 40" x2="17.685" transform="translate(9.982 38.745)" fill="none" stroke="#f55c2b" stroke-linecap="round" stroke-linejoin="round" stroke-width="1.5"/>
          <line id="Line_41" data-name="Line 41" x2="11.72" y2="0.726" transform="translate(16.652 46.269)" fill="none" stroke="#f55c2b" stroke-linecap="round" stroke-linejoin="round" stroke-width="1.5"/>
          <path id="Path_16135" data-name="Path 16135" d="M94.942,281.6s4.847.5,4.671-1.783" transform="translate(-60.137 -265.237)" fill="none" stroke="#f55c2b" stroke-linecap="round" stroke-linejoin="round" stroke-width="1.5"/>
          <path id="Path_16136" data-name="Path 16136" d="M115.8,325.95s5.552.3,6.785-1.09" transform="translate(-64.958 -271.363)" fill="none" stroke="#f55c2b" stroke-linecap="round" stroke-linejoin="round" stroke-width="1.5"/>
        </g>
        <path id="Path_16137" data-name="Path 16137" d="M92.434,284.637a2.579,2.579,0,0,0-.464.053,4.453,4.453,0,0,0,.1-.891,3.567,3.567,0,1,0-7.085,0c0,.1.019.194.026.292a4.966,4.966,0,0,0-2.982,4.676,4.725,4.725,0,0,0,4.4,4.951,4.511,4.511,0,0,0,4.173-3.388,2.669,2.669,0,0,0,1.83.76,3.248,3.248,0,0,0,0-6.453Z" transform="translate(-33.267 -138.739)" fill="#fff"/>
        <g id="Group_1128" data-name="Group 1128" transform="translate(6.714 94.255)">
          <path id="Path_16138" data-name="Path 16138" d="M37.619,252.173c0,3.4-2.115,6.151-5.138,6.151s-5.138-2.754-5.138-6.151S32.48,242,32.48,242,37.619,248.775,37.619,252.173Z" transform="translate(-27.342 -227.852)" fill="#69a4c2"/>
          <path id="Path_16139" data-name="Path 16139" d="M58.859,263.9c0,2.509-1.562,4.543-3.794,4.543s-3.8-2.034-3.8-4.543,3.8-7.509,3.8-7.509S58.859,261.387,58.859,263.9Z" transform="translate(-32.872 -229.808)" fill="#69a4c2"/>
          <path id="Path_16140" data-name="Path 16140" d="M54.864,233.133c0,2.508-1.562,4.542-3.8,4.542s-3.794-2.034-3.794-4.542,3.794-7.509,3.794-7.509S54.864,230.624,54.864,233.133Z" transform="translate(-31.949 -225.624)" fill="#69a4c2"/>
        </g>
        <path id="Path_16141" data-name="Path 16141" d="M169.124,151.036s-1.625-12.213-6.56-13.8" transform="translate(-51.881 -119.348)" fill="none" stroke="#440a10" stroke-linecap="round" stroke-linejoin="round" stroke-width="1.5"/>
        <line id="Line_42" data-name="Line 42" y1="10.6" x2="1.466" transform="translate(80.048 131.373)" fill="none" stroke="#27c0fa" stroke-linecap="round" stroke-linejoin="round" stroke-width="1.5"/>
      </g>
      <g id="Group_1133" data-name="Group 1133" transform="translate(153.545 103.377)">
        <path id="Path_16142" data-name="Path 16142" d="M405.2,493.757H267.621l4.691-42.8H402.075Z" transform="translate(-210.33 -165.071)" fill="#376f92"/>
        <path id="Path_16143" data-name="Path 16143" d="M402.688,450.961H272.925l-2.652,24.191h0c5.059-5.24,132.415-10.6,132.415-10.6l.931-.844Z" transform="translate(-210.943 -165.071)" fill="#063d51"/>
        <rect id="Rectangle_1656" data-name="Rectangle 1656" width="10.428" height="28.625" transform="translate(119.882 299.482)" fill="none" stroke="#063d51" stroke-linecap="round" stroke-linejoin="round" stroke-width="1.5"/>
        <path id="Path_16144" data-name="Path 16144" d="M419.81,300.357a119.653,119.653,0,0,1-7.1-11.827c-9.147-17.3-28.718-30-45.722-33.484-18.764-3.841-37.528-9.208-37.528-9.208h-9.9s-18.764,5.367-37.529,9.208c-17,3.481-36.574,16.181-45.721,33.484a119.342,119.342,0,0,1-7.1,11.827c-8.834,12.86-26.2,42.443-13.635,60.768,0,0,16.158,18.615,40.656,6.205v70.916H392.789V367.33c24.5,12.41,40.656-6.205,40.656-6.205C446.015,342.8,428.643,313.217,419.81,300.357Z" transform="translate(-197.28 -138.764)" fill="#436da6"/>
        <ellipse id="Ellipse_1641" data-name="Ellipse 1641" cx="29.319" cy="33.242" rx="29.319" ry="33.242" transform="translate(0.309 158.98)" fill="#f73c4f"/>
        <path id="Path_16145" data-name="Path 16145" d="M385.162,253.8c-16.627-3.659-31.686-7.965-31.686-7.965h-9.9s-13.186,3.77-28.5,7.253c4.439,17.254,18.483,29.865,35.134,29.865C366.629,282.955,380.525,270.692,385.162,253.8Z" transform="translate(-221.297 -138.764)" fill="#fff"/>
        <path id="Path_16146" data-name="Path 16146" d="M379.557,251.95c-13.121-3.116-23.594-6.112-23.594-6.112h-9.9s-8.73,2.5-20.232,5.3c3.368,13.292,14.163,23.02,26.969,23.02C365.342,274.16,375.963,264.827,379.557,251.95Z" transform="translate(-223.783 -138.764)" fill="#ffa297"/>
        <path id="Path_16147" data-name="Path 16147" d="M372.507,251.291h-33.18l1.564-48.36h30.052Z" transform="translate(-226.903 -133.261)" fill="#ffa297"/>
        <path id="Path_16148" data-name="Path 16148" d="M341.264,202.931l-.325,10.047h0s8.874,14.133,31.159,14.133l-.782-24.18Z" transform="translate(-227.275 -133.261)" fill="#f55c2b"/>
        <ellipse id="Ellipse_1642" data-name="Ellipse 1642" cx="6.304" cy="8.957" rx="6.304" ry="8.957" transform="translate(97.991 44.776)" fill="#ffa297"/>
        <ellipse id="Ellipse_1643" data-name="Ellipse 1643" cx="6.304" cy="8.957" rx="6.304" ry="8.957" transform="translate(144.51 44.776)" fill="#ffa297"/>
        <path id="Path_16149" data-name="Path 16149" d="M379.708,145a23.318,23.318,0,0,0-2.473-6.216c-.967-1.515-2.615-2.627-3.5-3.919a4.451,4.451,0,0,0,.827-4.415c-1.259-4.415-4.952-4.529-8.56-4.738a20.95,20.95,0,0,0-4.2.194c-.158-1.091-.9-1.839-2.607-1.861-3.311-.042-5.912,1.574-8.365,3.68.71-3.055-.022-6.488-3.288-3.663-3.522,3.048-5.434,7.74-5.959,12.581a12.053,12.053,0,0,0-6.539-1.36c-2.678.128-5.522,2.858-7.2,5.169-3.054,4.207-3.159,9.705-3.385,14.895a37.706,37.706,0,0,0,2.34,16.162c1.13,2.786,2.7,5.53,3.944,8.1l40.346,1.274c3.186-2.046,3.887-3.325,5.327-5.928,1.565-2.831,1.5-6.925,1.635-10.247.082-2.049-.27-2.824.591-4.466C380.889,155.956,380.985,149.681,379.708,145Z" transform="translate(-223.453 -123.011)" fill="#641216"/>
        <path id="Path_16150" data-name="Path 16150" d="M356.117,167.477c-12.2,2.4-15.136-8.864-15.136-8.864-9.622,6.8-11.186,13.74-12.19,18.791-.023.627-.038,1.257-.038,1.893,0,19.5,10.734,35.31,23.977,35.31s23.976-15.809,23.976-35.31a50.854,50.854,0,0,0-.692-8.39,5.836,5.836,0,0,0-5.113-5.1C367.438,165.583,362.55,166.213,356.117,167.477Z" transform="translate(-224.459 -127.577)" fill="#ffa297"/>
        <path id="Path_16151" data-name="Path 16151" d="M379.933,172.812c-.082-.641-.174-1.277-.278-1.9a5.836,5.836,0,0,0-5.113-5.1c-3.463-.221-8.351.41-14.783,1.674-12.2,2.4-15.136-8.864-15.136-8.864l-.117.085a18.546,18.546,0,0,0,2.607,6.722,15.813,15.813,0,0,0,9.815,7.116c5.108,1.065,10.248-.649,15.389-.629A31.729,31.729,0,0,1,379.933,172.812Z" transform="translate(-228.099 -127.577)" fill="#f55c2b"/>
        <g id="Group_1130" data-name="Group 1130" transform="translate(0 41.105)">
          <path id="Path_16152" data-name="Path 16152" d="M287.379,191.765c2.387-2.731-.19-5.447-.19-5.447-3.372-2.66-2.492-13.74-9.138-15.957-4.063-1.355-10.024,4.5-14.045,9.251l-1.657-.9a6.343,6.343,0,0,0-7.557,0c-7.167-4.727-11.858-.591-11.858-.591h-3.258c-8.339.887-5.733,9.159-9.9,15.66s-4.561,10.49-6.645,28.219S185.859,290.254,194.46,319.8s30.232,25.707,30.232,25.707c29.84-6.5,28.668-45.357,30.231-64.415s6.646-49.642,6.646-49.642c10.554,1.773,18.112-11.819,19.416-19.058s5.734-11.967,7.557-14.036C290.124,196.565,290.329,193.661,287.379,191.765Zm-10.827,5.412c-.912,3.251-6.254,4.285-6.254,4.285l1.479-11.691c-.035.191-.047.05.031-1.158l2.862-3.451,2.208,3.816a8.493,8.493,0,0,0,2.443,3.661A10.754,10.754,0,0,0,276.553,197.177Z" transform="translate(-193.108 -170.163)" fill="#ffa297"/>
          <path id="Path_16153" data-name="Path 16153" d="M255.81,179.289s6.971,1.995,6.776,8.2.462,25.686-8.316,23.268c-6.832-1.882-5.464-9.75-5.073-14.625" transform="translate(-205.984 -171.334)" fill="none" stroke="#f55c2b" stroke-linecap="round" stroke-linejoin="round" stroke-width="1.5"/>
          <path id="Path_16154" data-name="Path 16154" d="M264.8,204.857a7.244,7.244,0,0,0,7.342,4.1c5.57-.333,6.548-7.978,6.352-12.521s-.2-13.224-7.134-16.473" transform="translate(-209.678 -171.421)" fill="none" stroke="#f55c2b" stroke-linecap="round" stroke-linejoin="round" stroke-width="1.5"/>
          <path id="Path_16155" data-name="Path 16155" d="M281.276,207.663a4.713,4.713,0,0,0,4.448,3.427c3.715.221,4.952-5.024,4.952-5.024" transform="translate(-213.486 -174.768)" fill="none" stroke="#f55c2b" stroke-linecap="round" stroke-linejoin="round" stroke-width="1.5"/>
          <path id="Path_16156" data-name="Path 16156" d="M285.318,181s7.912,3.428,7.8,9" transform="translate(-214.42 -171.553)" fill="none" stroke="#f55c2b" stroke-linecap="round" stroke-linejoin="round" stroke-width="1.5"/>
          <path id="Path_16157" data-name="Path 16157" d="M276.35,239.927s-4.529-1.92-5.7-3.694c0,0-9.773,3.1-13.585,1.108" transform="translate(-207.89 -178.637)" fill="none" stroke="#f55c2b" stroke-linecap="round" stroke-linejoin="round" stroke-width="1.5"/>
          <path id="Path_16158" data-name="Path 16158" d="M277.586,212.337s2,5.651,0,10.859" transform="translate(-212.633 -175.572)" fill="none" stroke="#f55c2b" stroke-linecap="round" stroke-linejoin="round" stroke-width="1.5"/>
          <path id="Path_16159" data-name="Path 16159" d="M305.238,195.7s3.9-3.073,8.057-.873" transform="translate(-219.024 -173.225)" fill="none" stroke="#f55c2b" stroke-linecap="round" stroke-linejoin="round" stroke-width="1.5"/>
          <path id="Path_16160" data-name="Path 16160" d="M298.853,186.625a26.7,26.7,0,0,1-1.115-5.048" transform="translate(-217.291 -171.627)" fill="none" stroke="#f55c2b" stroke-linecap="round" stroke-linejoin="round" stroke-width="1.5"/>
        </g>
        <path id="Path_16161" data-name="Path 16161" d="M269.775,382.93a85.055,85.055,0,0,0,7.623-15.458" transform="translate(-210.828 -154.363)" fill="none" stroke="#ba2f42" stroke-linecap="round" stroke-linejoin="round" stroke-width="1.5"/>
        <path id="Path_16162" data-name="Path 16162" d="M218.059,374.01s34.812,8.532,43.8-34.9" transform="translate(-198.875 -150.725)" fill="none" stroke="#ba2f42" stroke-linecap="round" stroke-linejoin="round" stroke-width="1.5"/>
        <ellipse id="Ellipse_1644" data-name="Ellipse 1644" cx="29.319" cy="33.242" rx="29.319" ry="33.242" transform="translate(195.556 158.98)" fill="#f73c4f"/>
        <g id="Group_1131" data-name="Group 1131" transform="translate(157.933 41.105)">
          <path id="Path_16163" data-name="Path 16163" d="M399.652,198.359c1.825,2.069,6.255,6.8,7.558,14.036s8.861,20.831,19.416,19.058c0,0,5.082,30.583,6.646,49.642s.391,57.915,30.231,64.415c0,0,21.631,3.841,30.232-25.707S467.151,239.727,465.067,222s-2.476-21.718-6.646-28.219-1.563-14.774-9.9-15.66H445.26s-4.691-4.136-11.858.591a6.344,6.344,0,0,0-7.558,0l-1.657.9c-4.02-4.754-9.981-10.606-14.045-9.251-6.645,2.217-5.766,13.3-9.137,15.957,0,0-2.577,2.715-.191,5.447C397.865,193.661,398.07,196.565,399.652,198.359Zm9.219-5.72a8.481,8.481,0,0,0,2.444-3.661l2.208-3.816,2.863,3.451c.077,1.207.065,1.349.031,1.158l1.479,11.691s-5.343-1.034-6.255-4.285A10.748,10.748,0,0,0,408.871,192.638Z" transform="translate(-398.515 -170.163)" fill="#ffa297"/>
          <path id="Path_16164" data-name="Path 16164" d="M457.273,179.289s-6.971,1.995-6.776,8.2-.462,25.686,8.316,23.268c6.832-1.882,5.464-9.75,5.073-14.625" transform="translate(-410.528 -171.334)" fill="none" stroke="#f55c2b" stroke-linecap="round" stroke-linejoin="round" stroke-width="1.5"/>
          <path id="Path_16165" data-name="Path 16165" d="M448.3,204.857a7.245,7.245,0,0,1-7.342,4.1c-5.571-.333-6.548-7.978-6.352-12.521s.2-13.224,7.134-16.473" transform="translate(-406.85 -171.421)" fill="none" stroke="#f55c2b" stroke-linecap="round" stroke-linejoin="round" stroke-width="1.5"/>
          <path id="Path_16166" data-name="Path 16166" d="M433.121,207.663a4.713,4.713,0,0,1-4.448,3.427c-3.714.221-4.952-5.024-4.952-5.024" transform="translate(-404.34 -174.768)" fill="none" stroke="#f55c2b" stroke-linecap="round" stroke-linejoin="round" stroke-width="1.5"/>
          <path id="Path_16167" data-name="Path 16167" d="M429.558,181s-7.912,3.428-7.8,9" transform="translate(-403.886 -171.553)" fill="none" stroke="#f55c2b" stroke-linecap="round" stroke-linejoin="round" stroke-width="1.5"/>
          <path id="Path_16168" data-name="Path 16168" d="M435.076,239.927s4.528-1.92,5.7-3.694c0,0,9.772,3.1,13.585,1.108" transform="translate(-406.965 -178.637)" fill="none" stroke="#f55c2b" stroke-linecap="round" stroke-linejoin="round" stroke-width="1.5"/>
          <path id="Path_16169" data-name="Path 16169" d="M439.37,212.337s-2,5.651,0,10.859" transform="translate(-407.752 -175.572)" fill="none" stroke="#f55c2b" stroke-linecap="round" stroke-linejoin="round" stroke-width="1.5"/>
          <path id="Path_16170" data-name="Path 16170" d="M409.562,195.7s-3.9-3.073-8.057-.873" transform="translate(-399.206 -173.225)" fill="none" stroke="#f55c2b" stroke-linecap="round" stroke-linejoin="round" stroke-width="1.5"/>
          <path id="Path_16171" data-name="Path 16171" d="M418.034,186.625a26.641,26.641,0,0,0,1.115-5.048" transform="translate(-403.026 -171.627)" fill="none" stroke="#f55c2b" stroke-linecap="round" stroke-linejoin="round" stroke-width="1.5"/>
        </g>
        <path id="Path_16172" data-name="Path 16172" d="M445.157,382.93a85.075,85.075,0,0,1-7.624-15.458" transform="translate(-249.6 -154.363)" fill="none" stroke="#ba2f42" stroke-linecap="round" stroke-linejoin="round" stroke-width="1.5"/>
        <path id="Path_16173" data-name="Path 16173" d="M486,374.01s-34.812,8.532-43.8-34.9" transform="translate(-250.677 -150.725)" fill="none" stroke="#ba2f42" stroke-linecap="round" stroke-linejoin="round" stroke-width="1.5"/>
        <line id="Line_43" data-name="Line 43" x1="0.449" y2="4.141" transform="translate(111.975 109.748)" fill="none" stroke="#f55c2b" stroke-linecap="round" stroke-linejoin="round" stroke-width="1.5"/>
        <line id="Line_44" data-name="Line 44" x2="0.246" y2="6.815" transform="translate(145.25 107.074)" fill="none" stroke="#f55c2b" stroke-linecap="round" stroke-linejoin="round" stroke-width="1.5"/>
        <rect id="Rectangle_1657" data-name="Rectangle 1657" width="136.562" height="34.777" transform="translate(58.947 232.009)" fill="#fff"/>
        <g id="Group_1132" data-name="Group 1132" transform="translate(94.271 57.869)">
          <path id="Path_16174" data-name="Path 16174" d="M327.206,192.635l-11.489,2.012,16.327,12.873" transform="translate(-315.717 -189.81)" fill="none" stroke="#2a878e" stroke-linecap="round" stroke-linejoin="round" stroke-width="1.5"/>
          <path id="Path_16175" data-name="Path 16175" d="M385.9,192.635l11.489,2.012L381.058,207.52" transform="translate(-330.819 -189.81)" fill="none" stroke="#2a878e" stroke-linecap="round" stroke-linejoin="round" stroke-width="1.5"/>
          <path id="Path_16176" data-name="Path 16176" d="M328.753,191.482c3.513,14.507,9.133,27.073,23.977,27.073,15.115,0,20.463-12.566,23.976-27.073l-23.976-2.088Z" transform="translate(-318.73 -189.394)" fill="#89c4c0"/>
          <path id="Path_16177" data-name="Path 16177" d="M378.464,191.314c-3.322,13.722-8.234,26.113-21.552,27.371.75.071,1.522.116,2.326.116,15.115,0,20.463-12.566,23.976-27.073Z" transform="translate(-325.238 -189.64)" fill="#2a878e"/>
          <line id="Line_45" data-name="Line 45" x2="34.089" transform="translate(18.153 10.25)" fill="none" stroke="#2a878e" stroke-linecap="round" stroke-linejoin="round" stroke-width="1.5"/>
          <line id="Line_46" data-name="Line 46" x2="27.809" transform="translate(22.134 18.966)" fill="none" stroke="#2a878e" stroke-linecap="round" stroke-linejoin="round" stroke-width="1.5"/>
        </g>
      </g>
    </g>
    <g id="Group_1273" data-name="Group 1273" transform="translate(-47 33)">
      <g id="Group_1276" data-name="Group 1276">
        <g id="Group_1139" data-name="Group 1139" transform="translate(760.604 10110.454)">
          <text id="FREE_CAMPUS" data-name="FREE CAMPUS" transform="translate(205.809 118.207)" fill="#111d5e" font-size="13" font-family="Montserrat-Regular, Montserrat" letter-spacing="0.18em"><tspan x="-60.119" y="0">FREE CAMPUS</tspan></text>
          <g id="Group_1138" data-name="Group 1138" transform="translate(137.397 64.538)">
            <rect id="Rectangle_1660" data-name="Rectangle 1660" width="141.424" height="29.678" rx="8.266" transform="translate(0 4.542)" fill="#389df9"/>
            <text id="COVID-19" transform="translate(69.269 28)" fill="#fff" font-size="26" font-family="Montserrat-Black, Montserrat" font-weight="800"><tspan x="-64.259" y="0">COVID-19</tspan></text>
          </g>
        </g>
        <g id="Group_1162" data-name="Group 1162" transform="translate(732.841 9754.709)">
          <g id="Group_1150" data-name="Group 1150" transform="translate(165.159 265.441)">
            <g id="Group_1140" data-name="Group 1140" transform="translate(63.868)">
              <path id="Path_16182" data-name="Path 16182" d="M249.868,301.531h-4.086l.677-32.215h2.86Z" transform="translate(-240.739 -266.004)" fill="#e20505"/>
              <ellipse id="Ellipse_1645" data-name="Ellipse 1645" cx="7.151" cy="3.312" rx="7.151" ry="3.312" fill="#e20505"/>
            </g>
            <g id="Group_1141" data-name="Group 1141" transform="translate(21.065 14.103)">
              <path id="Path_16183" data-name="Path 16183" d="M218.718,311.335l-3.13,2.626L195.4,288.848l2.191-1.839Z" transform="translate(-190.617 -282.677)" fill="#e20505"/>
              <path id="Path_16184" data-name="Path 16184" d="M201.16,282.6c1.175,1.4-.324,4.6-3.349,7.134s-6.431,3.46-7.606,2.059.323-4.6,3.349-7.134S199.984,281.195,201.16,282.6Z" transform="translate(-189.804 -281.941)" fill="#e20505"/>
            </g>
            <g id="Group_1142" data-name="Group 1142" transform="translate(0 52.909)">
              <path id="Path_16185" data-name="Path 16185" d="M201.27,339.015l-.71,4.024-31.608-6.261.5-2.817Z" transform="translate(-165.71 -328.304)" fill="#e20505"/>
              <path id="Path_16186" data-name="Path 16186" d="M169.892,327.366c1.8.318,2.705,3.727,2.02,7.617s-2.7,6.784-4.5,6.466-2.705-3.728-2.02-7.617S168.09,327.048,169.892,327.366Z" transform="translate(-165.159 -327.342)" fill="#e20505"/>
            </g>
            <g id="Group_1143" data-name="Group 1143" transform="translate(7.052 88.345)">
              <path id="Path_16187" data-name="Path 16187" d="M205.56,368.8l2.043,3.539-28.238,15.521-1.43-2.477Z" transform="translate(-174.067 -368.802)" fill="#e20505"/>
              <path id="Path_16188" data-name="Path 16188" d="M174.418,382.369c1.585-.915,4.469,1.117,6.444,4.537s2.291,6.933.707,7.848-4.469-1.116-6.443-4.536S172.834,383.283,174.418,382.369Z" transform="translate(-173.409 -370.741)" fill="#e20505"/>
            </g>
            <g id="Group_1144" data-name="Group 1144" transform="translate(92.773 14.103)">
              <path id="Path_16189" data-name="Path 16189" d="M276.829,313.878l-3.13-2.626,21.226-24.243,2.191,1.839Z" transform="translate(-273.699 -282.677)" fill="#e20505"/>
              <path id="Path_16190" data-name="Path 16190" d="M304.293,291.788c-1.175,1.4-4.58.479-7.606-2.059s-4.524-5.733-3.349-7.134,4.581-.48,7.606,2.059S305.469,290.387,304.293,291.788Z" transform="translate(-276.494 -281.941)" fill="#e20505"/>
            </g>
            <g id="Group_1145" data-name="Group 1145" transform="translate(49.452 21.407)">
              <path id="Path_16191" data-name="Path 16191" d="M238.172,315.847l-2.854,1.017L227.77,294.2l2-.712Z" transform="translate(-223.707 -290.922)" fill="#e20505"/>
              <path id="Path_16192" data-name="Path 16192" d="M233.072,291.625c.456,1.277-1.411,3.109-4.169,4.093s-5.363.744-5.818-.533,1.411-3.11,4.169-4.093S232.616,290.348,233.072,291.625Z" transform="translate(-223.016 -290.487)" fill="#e20505"/>
            </g>
            <g id="Group_1146" data-name="Group 1146" transform="translate(24.31 41.764)">
              <path id="Path_16193" data-name="Path 16193" d="M218.855,330.507l-1.532,2.614-20.352-12.512,1.072-1.83Z" transform="translate(-194.09 -314.953)" fill="#e20505"/>
              <path id="Path_16194" data-name="Path 16194" d="M199.7,314.47c1.17.685.918,3.289-.562,5.816s-3.629,4.018-4.8,3.332-.918-3.289.562-5.816S198.528,313.783,199.7,314.47Z" transform="translate(-193.601 -314.303)" fill="#e20505"/>
            </g>
            <g id="Group_1147" data-name="Group 1147" transform="translate(18.884 75.273)">
              <path id="Path_16195" data-name="Path 16195" d="M213.543,353.508l.506,2.987-23.633,3.5-.354-2.091Z" transform="translate(-187.66 -353.508)" fill="#e20505"/>
              <path id="Path_16196" data-name="Path 16196" d="M188.944,353.753c1.338-.227,2.818,1.929,3.308,4.816s-.2,5.41-1.535,5.637-2.818-1.929-3.307-4.816S187.608,353.98,188.944,353.753Z" transform="translate(-187.252 -353.541)" fill="#e20505"/>
            </g>
            <g id="Group_1148" data-name="Group 1148" transform="translate(39.559 93.016)">
              <path id="Path_16197" data-name="Path 16197" d="M230.74,374.266l2.308,1.963L217.192,394.1l-1.615-1.374Z" transform="translate(-212.042 -374.266)" fill="#e20505"/>
              <path id="Path_16198" data-name="Path 16198" d="M211.744,392.566c.879-1.033,3.4-.332,5.63,1.564s3.327,4.272,2.448,5.305-3.4.333-5.63-1.564S210.866,393.6,211.744,392.566Z" transform="translate(-211.441 -376.855)" fill="#e20505"/>
            </g>
            <g id="Group_1149" data-name="Group 1149" transform="translate(79.509 21.605)">
              <path id="Path_16199" data-name="Path 16199" d="M261.021,317.009l-2.84-1.055,8.788-22.216,1.988.739Z" transform="translate(-258.181 -291.156)" fill="#e20505"/>
              <path id="Path_16200" data-name="Path 16200" d="M273.738,295.515c-.473,1.271-3.08,1.475-5.825.456s-4.587-2.877-4.115-4.148,3.08-1.475,5.825-.456S274.21,294.243,273.738,295.515Z" transform="translate(-258.986 -290.718)" fill="#e20505"/>
            </g>
          </g>
          <path id="Path_16201" data-name="Path 16201" d="M238.2,398.6a59.109,59.109,0,1,1,59.109-59.109A59.176,59.176,0,0,1,238.2,398.6Zm0-108.37a49.261,49.261,0,1,0,49.261,49.262A49.317,49.317,0,0,0,238.2,290.232Z" transform="translate(-2.024 -2.171)" fill="#389df9"/>
          <g id="Group_1159" data-name="Group 1159" transform="translate(205.911 307.759)">
            <g id="Group_1151" data-name="Group 1151" transform="translate(0 63.049)">
              <path id="Path_16202" data-name="Path 16202" d="M229.74,388.716l3.84,1.4-11.655,30.041-2.688-.978Z" transform="translate(-213.767 -388.716)" fill="#e20505"/>
              <path id="Path_16203" data-name="Path 16203" d="M212.933,421.807c.625-1.719,4.14-2.017,7.852-.667s6.212,3.839,5.587,5.557-4.141,2.017-7.852.667S212.307,423.526,212.933,421.807Z" transform="translate(-212.837 -393.304)" fill="#e20505"/>
            </g>
            <g id="Group_1152" data-name="Group 1152" transform="translate(40.842 63.005)">
              <path id="Path_16204" data-name="Path 16204" d="M260.62,390.062l3.84-1.4,10.382,30.5-2.688.978Z" transform="translate(-260.62 -388.664)" fill="#e20505"/>
              <path id="Path_16205" data-name="Path 16205" d="M267.809,426.7c-.626-1.719,1.875-4.207,5.586-5.557s7.226-1.052,7.852.667-1.875,4.207-5.586,5.557S268.434,428.417,267.809,426.7Z" transform="translate(-261.651 -393.259)" fill="#e20505"/>
            </g>
            <g id="Group_1153" data-name="Group 1153" transform="translate(60.762 45.916)">
              <path id="Path_16206" data-name="Path 16206" d="M283.926,372.209l2.043-3.539,27.56,16.694-1.43,2.477Z" transform="translate(-283.926 -368.671)" fill="#e20505"/>
              <path id="Path_16207" data-name="Path 16207" d="M313.37,394.754c-1.584-.915-1.268-4.428.707-7.848s4.859-5.452,6.444-4.537,1.267,4.428-.708,7.849S314.953,395.668,313.37,394.754Z" transform="translate(-288.057 -370.629)" fill="#e20505"/>
            </g>
            <g id="Group_1154" data-name="Group 1154" transform="translate(65.703 10.591)">
              <path id="Path_16208" data-name="Path 16208" d="M290.417,342.912l-.709-4.024,31.843-4.927.5,2.817Z" transform="translate(-289.707 -328.304)" fill="#e20505"/>
              <path id="Path_16209" data-name="Path 16209" d="M327.9,341.449c-1.8.318-3.818-2.577-4.5-6.466s.219-7.3,2.02-7.617,3.817,2.578,4.5,6.467S329.7,341.132,327.9,341.449Z" transform="translate(-294.568 -327.342)" fill="#e20505"/>
            </g>
            <g id="Group_1155" data-name="Group 1155" transform="translate(25.199 56.841)">
              <path id="Path_16210" data-name="Path 16210" d="M246.989,381.453l3.03.02-.66,23.882-2.121-.014Z" transform="translate(-242.997 -381.453)" fill="#e20505"/>
              <path id="Path_16211" data-name="Path 16211" d="M242.319,408.956c.009-1.356,2.39-2.439,5.317-2.421s5.3,1.135,5.286,2.491-2.39,2.44-5.317,2.421S242.31,410.312,242.319,408.956Z" transform="translate(-242.319 -385.096)" fill="#e20505"/>
            </g>
            <g id="Group_1156" data-name="Group 1156" transform="translate(57.086 33.215)">
              <path id="Path_16212" data-name="Path 16212" d="M279.625,356.791l.546-2.98,23.4,4.8-.382,2.086Z" transform="translate(-279.625 -353.811)" fill="#e20505"/>
              <ellipse id="Ellipse_1646" data-name="Ellipse 1646" cx="5.302" cy="2.456" rx="5.302" ry="2.456" transform="matrix(0.18, -0.984, 0.984, 0.18, 20.389, 10.612)" fill="#e20505"/>
            </g>
            <g id="Group_1157" data-name="Group 1157" transform="translate(53.495 0)">
              <path id="Path_16213" data-name="Path 16213" d="M276.922,333.453l-1.5-2.634,21.012-11.369,1.048,1.843Z" transform="translate(-275.424 -315.604)" fill="#e20505"/>
              <path id="Path_16214" data-name="Path 16214" d="M302.666,324.327c-1.179.67-3.308-.85-4.755-3.395s-1.665-5.152-.486-5.822,3.308.85,4.755,3.395S303.846,323.656,302.666,324.327Z" transform="translate(-278.51 -314.951)" fill="#e20505"/>
            </g>
            <g id="Group_1158" data-name="Group 1158" transform="translate(46.896 49.662)">
              <path id="Path_16215" data-name="Path 16215" d="M282.019,398.467c-.865-1.044.262-3.405,2.518-5.272s4.785-2.534,5.65-1.49-.262,3.405-2.518,5.273S282.884,399.511,282.019,398.467Z" transform="translate(-269.74 -375.691)" fill="#e20505"/>
              <path id="Path_16216" data-name="Path 16216" d="M267.7,374.986l2.334-1.932,14.845,18.718-1.633,1.352Z" transform="translate(-267.703 -373.054)" fill="#e20505"/>
            </g>
          </g>
          <g id="Group_1161" data-name="Group 1161" transform="translate(196.21 297.355)">
            <path id="Path_16761" data-name="Path 16761" d="M39.968,0A39.968,39.968,0,1,1,0,39.968,39.968,39.968,0,0,1,39.968,0Z" transform="translate(0 0)" fill="#cb1e1e"/>
            <g id="Group_1160" data-name="Group 1160" transform="translate(9.219 9.251)" opacity="0.49">
              <path id="Path_16217" data-name="Path 16217" d="M230.518,334.229c-5.128,6.112-12.312,8.528-16.044,5.4S211.872,329,217,322.887s12.312-8.528,16.045-5.4S235.647,328.118,230.518,334.229Z" transform="translate(-212.273 -313.968)" fill="#e89898"/>
              <path id="Path_16218" data-name="Path 16218" d="M258.641,326.226c-4.8-2.774-7.325-7.4-5.631-10.335s6.962-3.064,11.765-.291,7.326,7.4,5.632,10.335S263.446,329,258.641,326.226Z" transform="translate(-218.115 -313.602)" fill="#e89898"/>
              <ellipse id="Ellipse_1648" data-name="Ellipse 1648" cx="5.065" cy="8.293" rx="5.065" ry="8.293" transform="translate(2.43 50.07) rotate(-45)" fill="#e89898"/>
              <path id="Path_16219" data-name="Path 16219" d="M277.623,346.169c-.473-3.647.949-6.838,3.176-7.127s4.417,2.433,4.891,6.08-.95,6.839-3.177,7.128S278.1,349.816,277.623,346.169Z" transform="translate(-221.754 -317.295)" fill="#e89898"/>
              <ellipse id="Ellipse_1649" data-name="Ellipse 1649" cx="14.413" cy="8.802" rx="14.413" ry="8.802" transform="matrix(0.89, -0.456, 0.456, 0.89, 25.557, 51.094)" fill="#e89898"/>
            </g>
          </g>
          <path id="Path_16220" data-name="Path 16220" d="M203.221,385.931a4.923,4.923,0,0,1-3.481-8.4l75.412-75.41a4.923,4.923,0,0,1,6.963,6.963L206.7,384.489A4.906,4.906,0,0,1,203.221,385.931Z" transform="translate(-4.814 -5.118)" fill="#389df9"/>
        </g>
      </g>
      <g id="Group_1196" data-name="Group 1196" transform="translate(408.192 9970.454)">
        <g id="Group_1177" data-name="Group 1177" transform="translate(40.808 440.545)">
          <g id="Group_1174" data-name="Group 1174" transform="translate(0 79.024)">
            <g id="Group_1163" data-name="Group 1163">
              <path id="Path_16221" data-name="Path 16221" d="M308.137,334.509a97.132,97.132,0,0,1-171.042,63.053c-.032-.032-.032,0-.032,0a97.151,97.151,0,0,1,124.268-146.14h.032A97.152,97.152,0,0,1,308.137,334.509Z" transform="translate(-113.808 -237.343)" fill="#389df9"/>
              <path id="Path_16222" data-name="Path 16222" d="M284.618,314.443a97.192,97.192,0,0,1-147.523,83.119c-.032-.032-.032,0-.032,0a97.151,97.151,0,0,1,124.268-146.14h.032A96.522,96.522,0,0,1,284.618,314.443Z" transform="translate(-113.808 -237.343)" fill="#a3cdff"/>
            </g>
            <g id="Group_1173" data-name="Group 1173" transform="translate(17.957 52.644)">
              <g id="Group_1166" data-name="Group 1166" transform="translate(32.494 77.608)">
                <path id="Path_16223" data-name="Path 16223" d="M221.363,282.44h-90.45a1.489,1.489,0,0,1,0-2.979h90.45a1.489,1.489,0,1,1,0,2.979Z" transform="translate(-129.424 -273.643)" fill="#fff"/>
                <g id="Group_1164" data-name="Group 1164">
                  <path id="Path_16224" data-name="Path 16224" d="M130.913,286.524a1.489,1.489,0,0,1-1.053-2.543l5.883-5.883a1.488,1.488,0,1,1,2.106,2.1l-5.883,5.886A1.485,1.485,0,0,1,130.913,286.524Z" transform="translate(-129.424 -277.66)" fill="#fff"/>
                  <path id="Path_16225" data-name="Path 16225" d="M136.8,288.347a1.485,1.485,0,0,1-1.053-.436l-5.883-5.886a1.489,1.489,0,1,1,2.106-2.106l5.883,5.886a1.489,1.489,0,0,1-1.053,2.543Z" transform="translate(-129.424 -273.597)" fill="#fff"/>
                </g>
                <g id="Group_1165" data-name="Group 1165" transform="translate(84.563)">
                  <path id="Path_16226" data-name="Path 16226" d="M162.975,286.524a1.485,1.485,0,0,1-1.053-.436l-5.886-5.886a1.488,1.488,0,1,1,2.106-2.1l5.886,5.883a1.489,1.489,0,0,1-1.053,2.543Z" transform="translate(-155.599 -277.66)" fill="#fff"/>
                  <path id="Path_16227" data-name="Path 16227" d="M157.088,288.347a1.489,1.489,0,0,1-1.053-2.543l5.886-5.886a1.489,1.489,0,0,1,2.106,2.106l-5.886,5.886A1.485,1.485,0,0,1,157.088,288.347Z" transform="translate(-155.599 -273.597)" fill="#fff"/>
                </g>
              </g>
              <text id="_4_M" data-name="4 M" transform="translate(60.463 29.707)" fill="#fff" font-size="18" font-family="Montserrat-SemiBold, Montserrat" font-weight="600"><tspan x="0" y="0">4 M</tspan></text>
              <g id="Group_1169" data-name="Group 1169">
                <g id="Group_1167" data-name="Group 1167" transform="translate(0 38.025)">
                  <path id="Path_16228" data-name="Path 16228" d="M173.428,294.646H123.255a3.909,3.909,0,0,1-3.845-4.523,29.312,29.312,0,0,1,28.947-24.715,28.569,28.569,0,0,1,14.183,3.715,29.106,29.106,0,0,1,14.7,21A3.886,3.886,0,0,1,173.428,294.646Z" transform="translate(-119.366 -265.408)" fill="#fff"/>
                  <path id="Path_16229" data-name="Path 16229" d="M153.789,292.08H128.17c4.555-.743,9.111-1.648,13.633-2.682,2.908-.646,6.171-1.615,7.592-4.232,1.131-2.035.84-4.523.226-6.72a27.137,27.137,0,0,0-6.72-11.889,29.106,29.106,0,0,1,14.7,21A3.886,3.886,0,0,1,153.789,292.08Z" transform="translate(-99.728 -262.843)" fill="#c6c6c6"/>
                </g>
                <g id="Group_1168" data-name="Group 1168" transform="translate(15.035)">
                  <path id="Path_16230" data-name="Path 16230" d="M151.869,270.793c0,9.5-6.235,17.187-13.924,17.187a12.405,12.405,0,0,1-9.337-4.491,18.876,18.876,0,0,1-4.588-12.7c0-9.466,6.235-17.155,13.924-17.155a11.205,11.205,0,0,1,6.009,1.712C148.638,258.064,151.869,263.976,151.869,270.793Z" transform="translate(-124.02 -253.638)" fill="#fff"/>
                  <path id="Path_16231" data-name="Path 16231" d="M148.7,269.611c0,9.5-6.235,17.187-13.924,17.187a12.406,12.406,0,0,1-9.337-4.491,10.377,10.377,0,0,0,4.717,1.583,12.673,12.673,0,0,0,9.3-3.554,18.088,18.088,0,0,0,4.975-8.852,20.163,20.163,0,0,0-.162-11.243,16.579,16.579,0,0,0-3.489-6.074C145.47,256.882,148.7,262.794,148.7,269.611Z" transform="translate(-120.852 -252.456)" fill="#c6c6c6"/>
                </g>
              </g>
              <g id="Group_1172" data-name="Group 1172" transform="translate(100.491)">
                <g id="Group_1170" data-name="Group 1170" transform="translate(0 38.025)">
                  <path id="Path_16232" data-name="Path 16232" d="M204.533,294.646H154.36a3.909,3.909,0,0,1-3.845-4.523,29.312,29.312,0,0,1,28.947-24.715,28.569,28.569,0,0,1,14.183,3.715,29.106,29.106,0,0,1,14.7,21A3.886,3.886,0,0,1,204.533,294.646Z" transform="translate(-150.471 -265.408)" fill="#fff"/>
                  <path id="Path_16233" data-name="Path 16233" d="M184.894,292.08H159.275c4.555-.743,9.111-1.648,13.634-2.682,2.908-.646,6.171-1.615,7.592-4.232,1.131-2.035.84-4.523.226-6.72a27.138,27.138,0,0,0-6.72-11.889,29.106,29.106,0,0,1,14.7,21A3.886,3.886,0,0,1,184.894,292.08Z" transform="translate(-130.833 -262.843)" fill="#c6c6c6"/>
                </g>
                <g id="Group_1171" data-name="Group 1171" transform="translate(15.035)">
                  <path id="Path_16234" data-name="Path 16234" d="M182.974,270.793c0,9.5-6.235,17.187-13.924,17.187a12.406,12.406,0,0,1-9.337-4.491,18.876,18.876,0,0,1-4.588-12.7c0-9.466,6.235-17.155,13.924-17.155a11.205,11.205,0,0,1,6.009,1.712C179.743,258.064,182.974,263.976,182.974,270.793Z" transform="translate(-155.125 -253.638)" fill="#fff"/>
                  <path id="Path_16235" data-name="Path 16235" d="M179.806,269.611c0,9.5-6.235,17.187-13.924,17.187a12.406,12.406,0,0,1-9.337-4.491,10.377,10.377,0,0,0,4.717,1.583,12.673,12.673,0,0,0,9.3-3.554,18.087,18.087,0,0,0,4.975-8.852,20.161,20.161,0,0,0-.162-11.243,16.578,16.578,0,0,0-3.489-6.074C176.575,256.882,179.806,262.794,179.806,269.611Z" transform="translate(-151.957 -252.456)" fill="#c6c6c6"/>
                </g>
              </g>
            </g>
          </g>
          <g id="Group_1176" data-name="Group 1176" transform="translate(22.857)">
            <g id="Group_1175" data-name="Group 1175">
              <text id="SOCIAL_DISTANCING" data-name="SOCIAL
DISTANCING" transform="translate(62 18)" fill="#111d5e" font-size="19" font-family="Montserrat-SemiBold, Montserrat" font-weight="600"><tspan x="-36.717" y="0">SOCIAL</tspan><tspan x="-61.921" y="22">DISTANCING</tspan></text>
            </g>
          </g>
        </g>
        <g id="Group_1183" data-name="Group 1183" transform="translate(902.278 415.546)">
          <g id="Group_1180" data-name="Group 1180" transform="translate(0 78.13)">
            <g id="Group_1178" data-name="Group 1178">
              <path id="Path_16236" data-name="Path 16236" d="M368.287,266.567a97.131,97.131,0,0,1-171.041,63.056c-.032-.032-.032,0-.032,0A97.152,97.152,0,0,1,321.481,183.48h.032A97.152,97.152,0,0,1,368.287,266.567Z" transform="translate(-173.959 -169.401)" fill="#389df9"/>
              <path id="Path_16237" data-name="Path 16237" d="M344.771,246.5a97.2,97.2,0,0,1-147.525,83.119c-.032-.032-.032,0-.032,0A97.152,97.152,0,0,1,321.481,183.48h.032A96.54,96.54,0,0,1,344.771,246.5Z" transform="translate(-173.959 -169.401)" fill="#a3cdff"/>
            </g>
            <g id="Group_1179" data-name="Group 1179" transform="translate(15.88 55.813)">
              <path id="Path_16238" data-name="Path 16238" d="M339.683,192.286c-7.786-12.987-30.142-1.486-42,14.8-8.4,11.534-23.713,8.464-31.919,5.686a16.133,16.133,0,0,0-3.231-.743,17.044,17.044,0,0,0-7.947.743c-8.206,2.778-23.552,5.848-31.951-5.686-11.857-16.283-34.213-27.784-42-14.8-10.112,16.832,24.2,90.362,79.539,90.362q2.423,0,4.749-.194C317.424,278.448,349.5,208.633,339.683,192.286ZM208.615,223.01c-4.555,3.424-12.987-.129-18.8-7.915S183,198.23,187.551,194.806c4.588-3.392,12.987.129,18.8,7.915S213.2,219.585,208.615,223.01Zm121.893-7.915c-5.815,7.786-14.247,11.34-18.8,7.915-4.588-3.425-3.554-12.5,2.261-20.289s14.215-11.307,18.8-7.915C337.324,198.23,336.323,207.309,330.508,215.094Z" transform="translate(-178.874 -186.677)" fill="#fff"/>
              <path id="Path_16239" data-name="Path 16239" d="M281.918,192.286c-7.786-12.987-30.142-1.486-42,14.8-8.4,11.534-23.713,8.464-31.919,5.686a16.136,16.136,0,0,0-3.231-.743,56.625,56.625,0,0,1,2.391,70.429C259.659,278.448,291.74,208.633,281.918,192.286Zm-9.175,22.809c-5.815,7.786-14.247,11.34-18.8,7.915-4.587-3.425-3.554-12.5,2.262-20.289s14.215-11.307,18.8-7.915C279.56,198.23,278.559,207.309,272.743,215.094Z" transform="translate(-121.11 -186.677)" fill="#c6c6c6"/>
            </g>
          </g>
          <g id="Group_1182" data-name="Group 1182" transform="translate(3.422 0)">
            <g id="Group_1181" data-name="Group 1181" transform="translate(0 0)">
              <text id="MASKS_PROVIDED" data-name="MASKS
 PROVIDED" transform="translate(78 18)" fill="#111d5e" font-size="19" font-family="Montserrat-SemiBold, Montserrat" font-weight="600"><tspan x="-34.922" y="0">MASKS</tspan><tspan x="-56.031" y="22" xml:space="preserve"> PROVIDED</tspan></text>
            </g>
          </g>
        </g>
        <g id="Group_1195" data-name="Group 1195" transform="translate(729.808 116.546)">
          <g id="Group_1192" data-name="Group 1192" transform="translate(0 79.023)">
            <g id="Group_1188" data-name="Group 1188">
              <path id="Path_16246" data-name="Path 16246" d="M519.383,334.509a97.132,97.132,0,0,1-171.042,63.053c-.032-.032-.032,0-.032,0a97.151,97.151,0,0,1,124.268-146.14h.032A97.152,97.152,0,0,1,519.383,334.509Z" transform="translate(-325.054 -237.343)" fill="#389df9"/>
              <path id="Path_16247" data-name="Path 16247" d="M495.867,314.443a97.195,97.195,0,0,1-147.526,83.119c-.032-.032-.032,0-.032,0a97.151,97.151,0,0,1,124.268-146.14h.032A96.525,96.525,0,0,1,495.867,314.443Z" transform="translate(-325.054 -237.343)" fill="#a3cdff"/>
            </g>
            <g id="Group_1191" data-name="Group 1191" transform="translate(59.723 35.568)">
              <g id="Group_1189" data-name="Group 1189" transform="translate(24.618 19.015)">
                <path id="Path_16248" data-name="Path 16248" d="M376.812,256.661v12.6H351.16v-12.6a2.427,2.427,0,0,1,2.455-2.423h20.741A2.427,2.427,0,0,1,376.812,256.661Z" transform="translate(-351.16 -254.238)" fill="#c6c6c6"/>
                <path id="Path_16249" data-name="Path 16249" d="M370.706,256.661v12.6H351.16v-12.6a2.427,2.427,0,0,1,2.455-2.423H368.25A2.427,2.427,0,0,1,370.706,256.661Z" transform="translate(-351.16 -254.238)" fill="#fff"/>
              </g>
              <path id="Path_16250" data-name="Path 16250" d="M349.9,258.358h-3.712V256.09a6.827,6.827,0,0,1,6.817-6.82h16.728v3.709H353.006a3.109,3.109,0,0,0-3.1,3.111Z" transform="translate(-337.631 -246.305)" fill="#fff"/>
              <rect id="Rectangle_1661" data-name="Rectangle 1661" width="16.446" height="9.641" rx="0.741" transform="translate(27.71 0)" fill="#fff"/>
              <rect id="Rectangle_1662" data-name="Rectangle 1662" width="6.522" height="11.413" transform="translate(32.673 8.436)" fill="#fff"/>
              <g id="Group_1190" data-name="Group 1190" transform="translate(0 27.996)">
                <path id="Path_16251" data-name="Path 16251" d="M418.427,280.8v62.966H343.54V280.8a23.784,23.784,0,0,1,23.81-23.778h27.267A23.784,23.784,0,0,1,418.427,280.8Z" transform="translate(-343.54 -257.018)" fill="#c6c6c6"/>
                <path id="Path_16252" data-name="Path 16252" d="M403.049,280.8v62.966H343.54V280.8a23.784,23.784,0,0,1,23.81-23.778h11.921A23.777,23.777,0,0,1,403.049,280.8Z" transform="translate(-343.54 -257.018)" fill="#fff"/>
              </g>
            </g>
          </g>
          <g id="Group_1194" data-name="Group 1194" transform="translate(33 0)">
            <g id="Group_1193" data-name="Group 1193" transform="translate(0 0)">
              <text id="SANITIZED_CLASSROOMS" data-name="SANITIZED 
CLASSROOMS" transform="translate(64 18)" fill="#111d5e" font-size="19" font-family="Montserrat-SemiBold, Montserrat" font-weight="600"><tspan x="-55.699" y="0">SANITIZED </tspan><tspan x="-69.701" y="22">CLASSROOMS</tspan></text>
            </g>
          </g>
        </g>
      </g>
    </g>
    <g id="Group_1271" data-name="Group 1271" transform="translate(-165 59.329)">
      <g id="Group_1187" data-name="Group 1187" transform="translate(725.33 10081.671)">
        <g id="Group_1186" data-name="Group 1186" transform="translate(-0.33 78.329)">
          <g id="Group_1184" data-name="Group 1184">
            <path id="Path_16240" data-name="Path 16240" d="M459.233,266.567A97.132,97.132,0,0,1,288.19,329.624c-.032-.036-.032,0-.032,0A97.152,97.152,0,0,1,412.427,183.48h.032A97.152,97.152,0,0,1,459.233,266.567Z" transform="translate(-264.903 -169.401)" fill="#389df9"/>
            <path id="Path_16241" data-name="Path 16241" d="M435.714,246.5A97.2,97.2,0,0,1,288.19,329.624c-.032-.036-.032,0-.032,0A97.152,97.152,0,0,1,412.427,183.48h.032A96.528,96.528,0,0,1,435.714,246.5Z" transform="translate(-264.903 -169.401)" fill="#a3cdff"/>
          </g>
        </g>
        <text id="TEMPERATURE_CHECK" data-name="TEMPERATURE
CHECK" transform="translate(97 18)" fill="#111d5e" font-size="19" font-family="Montserrat-SemiBold, Montserrat" font-weight="600"><tspan x="-74.451" y="0">TEMPERATURE</tspan><tspan x="-34.77" y="22">CHECK</tspan></text>
      </g>
      <g id="Group_1270" data-name="Group 1270" transform="translate(463.305 9984.06)">
        <g id="Group_1254" data-name="Group 1254" transform="translate(306.694 265.074)">
          <path id="Path_16734" data-name="Path 16734" d="M360.42,295.435l8.54-7.455V247.813h14.747a6.386,6.386,0,1,0,0-12.772H352.124l-1.862.826a48.181,48.181,0,0,0-14.4,9.86l-14.41,14.328a74.344,74.344,0,0,0-10.958,13.857l-3.8,6.2a72.735,72.735,0,0,0,25.163,19.516l2.127-4.193Z" transform="translate(-306.694 -235.041)" fill="#fff"/>
        </g>
        <g id="Group_1263" data-name="Group 1263" transform="translate(317.872 215.94)">
          <g id="Group_1256" data-name="Group 1256" transform="translate(23.515 44.188)">
            <path id="Path_16735" data-name="Path 16735" d="M328.708,236.411l-6.3,16.481a33.723,33.723,0,0,0-2.225,12.052v33.327a4.5,4.5,0,0,0,4.5,4.5h12.193a4.5,4.5,0,0,0,4.5-4.5V262.1a14.627,14.627,0,0,1,.926-5.119l8.918-23.866Z" transform="translate(-320.181 -233.118)" fill="#cee6e8"/>
            <path id="Path_16736" data-name="Path 16736" d="M332.24,236.411l-6.3,16.481a33.725,33.725,0,0,0-2.225,12.052v33.327a4.5,4.5,0,0,0,4.5,4.5h12.193a4.5,4.5,0,0,0,4.5-4.5V262.1a14.628,14.628,0,0,1,.926-5.119l8.918-23.866Z" transform="translate(-314.624 -233.118)" fill="#c6c6c6"/>
            <g id="Group_1255" data-name="Group 1255" transform="translate(6.236)">
              <path id="Path_16737" data-name="Path 16737" d="M331.7,242.4l2.29-5.989,12.893-1.886.525-1.407L324.9,236.41l-2.29,5.989Z" transform="translate(-322.605 -233.118)" fill="#c6c6c6"/>
              <path id="Path_16738" data-name="Path 16738" d="M341.322,234.525l-12.893,1.886-2.29,5.989,13.257-2.719,9.845-2.019,1.7-4.544Z" transform="translate(-317.049 -233.118)" fill="#c6c6c6"/>
            </g>
          </g>
          <g id="Group_1262" data-name="Group 1262">
            <path id="Path_16739" data-name="Path 16739" d="M361.133,256.592h-27.21a2.892,2.892,0,0,1-2.835-3.462L337.8,219.82a4.818,4.818,0,0,1,4.723-3.866h27.21a2.892,2.892,0,0,1,2.835,3.462l-6.714,33.309A4.817,4.817,0,0,1,361.133,256.592Z" transform="translate(-279.607 -215.918)" fill="#c6c6c6"/>
            <path id="Path_16740" data-name="Path 16740" d="M373.8,219.93a3.375,3.375,0,0,0-3.323-3.954H347.319l-10.107-.036-10.217,47.406c8.846.033,16.643-2.2,35.655-5.777a7,7,0,0,0,5.6-5.672Z" transform="translate(-285.952 -215.94)" fill="#fff"/>
            <path id="Path_16741" data-name="Path 16741" d="M348.511,263.4H316.743a3.374,3.374,0,0,1-3.308-4.041l7.838-38.889a5.622,5.622,0,0,1,5.513-4.514h31.771A3.374,3.374,0,0,1,361.862,220l-7.835,38.889A5.627,5.627,0,0,1,348.511,263.4Z" transform="translate(-307.381 -215.918)" fill="#c6c6c6"/>
            <path id="Path_16742" data-name="Path 16742" d="M346.184,263.4H314.416a3.374,3.374,0,0,1-3.308-4.041l7.838-38.889a5.622,5.622,0,0,1,5.513-4.514h31.771A3.377,3.377,0,0,1,359.537,220L351.7,258.884A5.627,5.627,0,0,1,346.184,263.4Z" transform="translate(-311.04 -215.918)" fill="#98a1af"/>
            <g id="Group_1261" data-name="Group 1261" transform="translate(3.171 4.538)">
              <g id="Group_1257" data-name="Group 1257" transform="translate(4.112)">
                <path id="Path_16743" data-name="Path 16743" d="M321.9,217.7h-1.9a1.129,1.129,0,0,0-1.1.9l-5.032,24.97h1.9L320.8,218.6A1.124,1.124,0,0,1,321.9,217.7Z" transform="translate(-313.871 -217.704)" fill="#797c98"/>
                <path id="Path_16744" data-name="Path 16744" d="M320.743,217.7a1.124,1.124,0,0,0-1.1.9l-5.034,24.97h29.42l5.214-25.87Z" transform="translate(-312.712 -217.704)" fill="#f2cf72"/>
              </g>
              <g id="Group_1258" data-name="Group 1258" transform="translate(0 28.777)">
                <path id="Path_16745" data-name="Path 16745" d="M314.5,229.794l-1.495,7.416a1.124,1.124,0,0,0,1.1,1.348h6a1.125,1.125,0,0,0,1.1-.9l1.494-7.416a1.124,1.124,0,0,0-1.1-1.348h-6A1.124,1.124,0,0,0,314.5,229.794Z" transform="translate(-311.155 -228.891)" fill="#797c98"/>
                <path id="Path_16746" data-name="Path 16746" d="M313.789,229.794l-1.495,7.416a1.126,1.126,0,0,0,1.1,1.348h6a1.128,1.128,0,0,0,1.1-.9l1.492-7.416a1.124,1.124,0,0,0-1.1-1.348h-6A1.126,1.126,0,0,0,313.789,229.794Z" transform="translate(-312.272 -228.891)" fill="#c6d2d6"/>
              </g>
              <g id="Group_1259" data-name="Group 1259" transform="translate(22.446 28.777)">
                <path id="Path_16747" data-name="Path 16747" d="M322.833,238.558h6.575a1.125,1.125,0,0,0,1.1-.9l1.494-7.416a1.126,1.126,0,0,0-1.1-1.348h-6.575a1.128,1.128,0,0,0-1.1.9l-1.492,7.416A1.124,1.124,0,0,0,322.833,238.558Z" transform="translate(-319.88 -228.891)" fill="#797c98"/>
                <path id="Path_16748" data-name="Path 16748" d="M322.125,238.558H328.7a1.124,1.124,0,0,0,1.1-.9l1.494-7.416a1.124,1.124,0,0,0-1.1-1.348h-6.575a1.124,1.124,0,0,0-1.1.9l-1.495,7.416A1.124,1.124,0,0,0,322.125,238.558Z" transform="translate(-320.998 -228.891)" fill="#c6d2d6"/>
              </g>
              <g id="Group_1260" data-name="Group 1260" transform="translate(10.385 28.777)">
                <path id="Path_16749" data-name="Path 16749" d="M318.538,229.794l-1.495,7.416a1.124,1.124,0,0,0,1.1,1.348h7.676a1.129,1.129,0,0,0,1.1-.9l1.495-7.416a1.127,1.127,0,0,0-1.1-1.348h-7.676A1.124,1.124,0,0,0,318.538,229.794Z" transform="translate(-315.192 -228.891)" fill="#797c98"/>
                <path id="Path_16750" data-name="Path 16750" d="M317.826,229.794l-1.495,7.416a1.127,1.127,0,0,0,1.1,1.348h7.676a1.125,1.125,0,0,0,1.1-.9l1.495-7.416a1.124,1.124,0,0,0-1.1-1.348H318.93A1.129,1.129,0,0,0,317.826,229.794Z" transform="translate(-316.309 -228.891)" fill="#c6d2d6"/>
              </g>
            </g>
          </g>
        </g>
        <g id="Group_1269" data-name="Group 1269" transform="translate(331.43 277.846)">
          <g id="Group_1267" data-name="Group 1267" transform="translate(28.99 8.671)">
            <g id="Group_1264" data-name="Group 1264">
              <path id="Path_16751" data-name="Path 16751" d="M342.2,256.313h-8.154a6.47,6.47,0,0,1-6.47-6.469h0a6.469,6.469,0,0,1,6.47-6.467H342.2a6.469,6.469,0,0,1,6.469,6.467h0A6.469,6.469,0,0,1,342.2,256.313Z" transform="translate(-327.58 -243.377)" fill="#fff"/>
            </g>
            <g id="Group_1265" data-name="Group 1265" transform="translate(1.266 12.936)">
              <path id="Path_16753" data-name="Path 16753" d="M333.628,259.513h6.325a5.552,5.552,0,0,0,5.554-5.554h0a5.553,5.553,0,0,0-5.554-5.554h-6.325a5.555,5.555,0,0,0-5.556,5.554h0A5.554,5.554,0,0,0,333.628,259.513Z" transform="translate(-328.072 -248.406)" fill="#fff"/>
              <path id="Path_16754" data-name="Path 16754" d="M333.289,249.281h-1.037a3.3,3.3,0,1,0,0,6.608h.988A14.736,14.736,0,0,0,333.289,249.281Z" transform="translate(-326.696 -247.03)" fill="#fff"/>
            </g>
            <g id="Group_1266" data-name="Group 1266" transform="translate(3.095 24.044)">
              <path id="Path_16755" data-name="Path 16755" d="M333.634,262.427h4.826a4.85,4.85,0,0,0,4.851-4.851h0a4.852,4.852,0,0,0-4.851-4.852h-4.826a4.852,4.852,0,0,0-4.852,4.852h0A4.85,4.85,0,0,0,333.634,262.427Z" transform="translate(-328.783 -252.724)" fill="#fff"/>
              <path id="Path_16756" data-name="Path 16756" d="M332.893,253.6h-.633a2.6,2.6,0,1,0,0,5.2h.594A14.788,14.788,0,0,0,332.893,253.6Z" transform="translate(-327.409 -251.348)" fill="#fff"/>
            </g>
          </g>
          <g id="Group_1268" data-name="Group 1268">
            <path id="Path_16757" data-name="Path 16757" d="M316.31,249.943l14.611-8.432a11.253,11.253,0,0,1,5.621-1.5h19.7a6.679,6.679,0,0,1,6.678,6.68h0a6.676,6.676,0,0,1-5.834,6.624l-13.294,1.7-.944,1.595a42.436,42.436,0,0,1-21.212,17.955l-1.273.494Z" transform="translate(-316.31 -240.006)" fill="#fff"/>
            <path id="Path_16758" data-name="Path 16758" d="M338.147,243.957a5.2,5.2,0,0,0-.309-3.249,6.646,6.646,0,0,0-2.966-.7H329.9a14.493,14.493,0,0,1,3.8,7.91A5.247,5.247,0,0,0,338.147,243.957Z" transform="translate(-294.937 -240.006)" fill="#fff"/>
          </g>
        </g>
      </g>
    </g>
  </g>
</svg>
