<svg xmlns="http://www.w3.org/2000/svg" xmlns:xlink="http://www.w3.org/1999/xlink" width="267.54" height="203.777" viewBox="0 0 267.54 203.777"><defs><style>.a,.w{fill:#389df9;}.a,.f{opacity:0.1;}.b{fill:#3a3768;}.c{fill:#d48a9b;}.d{opacity:0.05;}.e{fill:#efc6cd;}.g{fill:#fff;}.h{fill:#d3dae1;}.i{fill:url(#a);}.j{fill:#585b8a;}.k{opacity:0.2;}.l{fill:#636992;}.m{fill:#ffd6d6;}.n{fill:#dce6f2;}.o{fill:#565988;}.p{fill:#505484;}.q{fill:#575988;}.r{fill:#d28690;}.s{fill:#575989;}.t{fill:#353045;}.u{fill:#f0f3f7;}.v{fill:#663d5c;}.x{opacity:0.3;}.y{opacity:0.15;}.z{fill:#ffd037;}.aa{fill:#65617d;}.ab{fill:#9d9cb5;}.ac{fill:#4b4770;}.ad{fill:#d4dfec;}</style><linearGradient id="a" x1="0.5" y1="1" x2="0.5" gradientUnits="objectBoundingBox"><stop offset="0" stop-color="gray" stop-opacity="0.251"/><stop offset="0.54" stop-color="gray" stop-opacity="0.122"/><stop offset="1" stop-color="gray" stop-opacity="0.102"/></linearGradient></defs><g transform="translate(0.24 0.803)"><path class="a" d="M370.128,99.394c-.047.218-.091.436-.142.651a70.045,70.045,0,0,1-8.134,21.1c-.13.218-.26.436-.392.654a60.634,60.634,0,0,1-9.17,11.575,27.8,27.8,0,0,1-6.587,5.059c-3.533,1.846-7.664,2.6-11.724,3.208-4.217.639-8.492,1.173-12.755,1.748q-2.272.3-4.518.639c-4.119.61-8.208,1.315-12.2,2.25a71.518,71.518,0,0,0-14.234,4.79q-.541.245-1.07.519c-.353.176-.708.355-1.055.536s-.69.362-1.031.548c-.176.1-.353.191-.526.291s-.345.189-.514.286c-.509.284-1.009.575-1.508.869l-.02.012c-.331.193-.656.392-.979.59-1.846,1.121-3.653,2.292-5.46,3.47l-1.136.735-1.761,1.139c-.343.223-.693.446-1.038.666-.245.162-.49.323-.757.49-1.283.808-2.583,1.6-3.918,2.358-.316.181-.634.362-.955.539a54.272,54.272,0,0,1-8.428,3.8l-.039.015a38.44,38.44,0,0,1-4.476,1.264c-.874.191-1.751.348-2.637.468a28.272,28.272,0,0,1-7.15.1c-4.67-.541-9.045-2.334-13.712-2.938-9.608-1.224-18.94,2.72-27.976,5.811q-3.333,1.139-6.714,2.133c-1.5.443-3,.862-4.518,1.266A170,170,0,0,1,164.562,181a79.79,79.79,0,0,1-12.035.267,44.191,44.191,0,0,1-4.515-.49,28.74,28.74,0,0,1-13.61-5.436,26.578,26.578,0,0,1-7.062-9.06,39.536,39.536,0,0,1-3.651-10.906c-.093-.517-.176-1.036-.245-1.555q-.184-1.332-.274-2.679a38.343,38.343,0,0,1,1.685-14.165c1.616-5.123,4.31-10.039,5.495-15.2q.073-.328.14-.654a22.64,22.64,0,0,0,.36-2.373c.6-6.342-1.714-12.525-3.533-18.727-.064-.215-.127-.433-.189-.651q-.294-1.033-.563-2.064a43.038,43.038,0,0,1-.651-20.123c.047-.218.1-.436.157-.651a29.462,29.462,0,0,1,5.539-11.345,43.92,43.92,0,0,1,10.443-9.04q2.882-1.885,5.96-3.524,2.2-1.175,4.515-2.226a88.923,88.923,0,0,1,40.38-7.774c.735.032,1.469.071,2.2.125s1.538.118,2.307.189c8.977.872,17.711,2.975,26.384,5.274,2.907.771,5.808,1.562,8.707,2.338,1.29.343,2.578.686,3.869,1.019,6.32,1.633,12.733,3.112,19.227,4.217q2.255.389,4.515.71a129.341,129.341,0,0,0,15.791,1.339q3.083.061,6.168-.054,1.557-.056,3.117-.169c10.737-.757,21.115-3.289,31.509-5.654q2.255-.514,4.518-1.014c1.979-.436,3.957-.857,5.945-1.246,12.373-2.431,23.4-1.033,34.905,3.984,2.615,1.139,5.228,2.515,6.829,4.652s2,4.763,2.3,7.3c.424,3.609.7,7.265.806,10.94,0,.215,0,.433.015.651A98.206,98.206,0,0,1,370.128,99.394Z" transform="translate(-106.229 -40.784)"/><path class="a" d="M296.791,121.468h-.808v.654h.916Zm-9.165,0a.042.042,0,0,0,0,.017c-.022.179-.047.357-.071.539v.1h7v-.039l.49-.615Zm-18.769,0v-21.1h8.056c-.086-.056-.174-.115-.264-.169l-.118-.076-.152-.093c-.088-.051-.176-.1-.269-.152s-.149-.083-.228-.125l-.054-.029h-6.971V98.561l-.189.073-.2.093h-.015l-.042.022-.125.066-.125.066c-.122.066-.245.14-.367.215l-.118.078-.245.157c-.316.211-.627.431-.948.637-.081.051-.162.1-.245.149-.174.1-.353.2-.536.289a2.044,2.044,0,0,1-.245.105l-.132.051-.122.042h0a5.735,5.735,0,0,1-.882.23v20.627H252.246c0,.024.017.044.024.069.066.2.132.389.2.585h11.876v22.616h.184l.213.012.384.022.615.073.282.027.306.032h.047l.541.066.115.015.262.037.375.054h0l.9-.039h0l.122.022a.852.852,0,0,1,.152.025V122.122H287.53v-.1c.024-.181.049-.36.071-.539a.043.043,0,0,1,0-.017Zm27.934,0h-.808v.654h.916Zm-9.67,0c-.029.218-.056.436-.086.654h7.809l.531-.654Zm-18.264,0v-21.1h8.056c-.086-.056-.174-.115-.264-.169l-.118-.076-.152-.093c-.088-.051-.176-.1-.269-.152s-.149-.083-.228-.125l-.054-.029h-6.971V98.561l-.189.073-.2.093h-.015l-.042.022-.125.066-.125.066c-.122.066-.245.14-.367.215l-.118.078-.245.157c-.316.211-.627.431-.948.637-.081.051-.162.1-.245.149-.174.1-.353.2-.536.289a2.044,2.044,0,0,1-.245.105l-.132.051-.122.042h0a5.735,5.735,0,0,1-.882.23v20.627H252.246c0,.024.017.044.024.069.066.193.135.389.2.585h11.873V144.73h.184l.213.012.384.022.615.076.282.027.306.032h.047l.541.066.115.015.262.037.375.054h0l.9-.039h0l.122.022a.852.852,0,0,1,.152.025V122.122h18.2c.029-.218.056-.436.086-.654Zm61.1-43.938h50.8c0-.218,0-.436-.015-.651H329.96V51.261q-2.263.49-4.518,1.014v24.6H270.192l-.14-.125.211-.186h0L290.814,58.1q-3.085.118-6.168.054L268.855,72.341V56.819q-2.262-.321-4.515-.71V71.626L241.251,50.874c-2.9-.776-5.8-1.567-8.707-2.338l31.4,28.218-.14.125H206.162v-33.6q-1.153-.108-2.307-.189c-.735-.054-1.469-.093-2.2-.125V76.879H161.264V50.744q-2.287,1.048-4.515,2.226V76.879H134.807c-.054.215-.11.433-.157.651h22.1V99.717H135.865c.061.218.125.436.189.651h20.7v21.1H139.227q-.066.326-.14.654h17.662v58.995c1.469.228,2.99.387,4.515.49V122.122h40.38v54.245c1.516-.4,3.019-.823,4.518-1.266V122.122h58.18v47.393a38.433,38.433,0,0,0,4.476-1.263l.039-.015V122.122h56.585v22.229q2.253-.331,4.518-.634V122.122H370.2c.132-.218.262-.436.392-.654H329.96v-21.1h48.762c.051-.215.1-.433.142-.651h-48.9Zm-168.7,0h40.38V99.717h-40.38Zm0,43.938v-21.1h40.38v21.1Zm44.9-43.938h58.18V99.717h-58.18Zm0,43.938v-21.1h58.18v21.1Zm119.28,0H268.857v-21.1h56.585Zm0-21.751H268.857V78.125l.793-.6h55.792Zm-37.817,21.751a.042.042,0,0,0,0,.017c-.022.179-.047.357-.071.539v.1h7v-.039l.49-.615Zm9.165,0h-.808v.654h.916Zm-27.934,0v-21.1h8.056c-.086-.056-.174-.115-.264-.169l-.118-.076-.152-.093c-.088-.051-.176-.1-.269-.152s-.149-.083-.228-.125l-.054-.029h-6.971V98.561l-.189.073-.2.093h-.015l-.042.022-.125.066-.125.066c-.122.066-.245.14-.367.215l-.118.078-.245.157c-.316.211-.627.431-.948.637-.081.051-.162.1-.245.149-.174.1-.353.2-.536.289a2.044,2.044,0,0,1-.245.105l-.132.051-.122.042h0a5.735,5.735,0,0,1-.882.23v20.627H252.246c0,.024.017.044.024.069.066.2.132.389.2.585h11.876v22.616h.184l.213.012.384.022.615.073.282.027.306.032h.047l.541.066.115.015.262.037.375.054h0l.9-.039h0l.122.022a.852.852,0,0,1,.152.025V122.122H287.53v-.1c.024-.181.049-.36.071-.539a.043.043,0,0,1,0-.017Z" transform="translate(-114.966 -41.107)"/><path class="a" d="M318.024,117.448h.35a.71.71,0,0,1-.428-.571h0c0-.451.673-.818,1.5-.818h10.47c.823,0,1.494.367,1.494.818h0c0,.448-.671.818-1.494.818h-.35a.7.7,0,0,1,.429.568c0,.384-.49.708-1.144.793h3.014c.82,0,1.494.367,1.494.818s-.673.818-1.494.818H321.388c-.82,0-1.494-.37-1.494-.818,0-.384.49-.705,1.144-.793h-3.014c-.823,0-1.494-.367-1.494-.818S317.2,117.448,318.024,117.448Z" transform="translate(-252.31 -96.3)"/><path class="a" d="M781.464,149.218h.35a.71.71,0,0,1-.426-.571h0c0-.451.671-.818,1.494-.818h10.47c.823,0,1.5.367,1.5.818h0c0,.448-.673.815-1.5.815H793a.71.71,0,0,1,.426.571c0,.384-.49.708-1.143.793H795.3c.823,0,1.494.367,1.494.818s-.671.818-1.494.818h-10.47c-.823,0-1.5-.37-1.5-.818,0-.384.49-.708,1.143-.793h-3.014c-.82,0-1.494-.367-1.494-.818S780.643,149.218,781.464,149.218Z" transform="translate(-602.271 -120.291)"/><path class="a" d="M252.386,285.178h.348a.708.708,0,0,1-.426-.571h0c0-.448.673-.818,1.494-.818h10.473c.82,0,1.494.37,1.494.818h0c0,.451-.673.818-1.494.818h-.35a.7.7,0,0,1,.426.568c0,.384-.49.708-1.143.793h3.014c.823,0,1.5.37,1.5.818s-.673.818-1.5.818H255.76c-.823,0-1.494-.367-1.494-.818,0-.382.49-.705,1.144-.793h-3.024c-.823,0-1.5-.367-1.5-.818S251.573,285.178,252.386,285.178Z" transform="translate(-202.743 -222.959)"/><ellipse class="a" cx="15.906" cy="52.344" rx="15.906" ry="52.344" transform="translate(141.041 144.1) rotate(-78.45)"/><path class="b" d="M828.56,382.094s2.784-13.666,13.414-12.4c0,0,7.346.5,8.857,5.314v10.629Z" transform="translate(-638.962 -287.766)"/><path class="c" d="M682.8,381.358l-94.657-7.848L576,376.042,576.759,393l.828.1.943,25.463,92.884,16.7,9.873-8.352v-27.6l1.263-.742Z" transform="translate(-434.996 -281.966)"/><path class="d" d="M979.912,405.56l-.255,17.209-10.25,4.809-.127-17.971Z" transform="translate(-731.976 -306.168)"/><path class="d" d="M975.925,478.94l.125,27.082-9.87,8.352.634-31.384Z" transform="translate(-729.635 -361.58)"/><path class="d" d="M582.781,454.992l94.537,11.535.049-2.189L582.71,454.13Z" transform="translate(-440.063 -342.845)"/><path class="d" d="M977.1,479.934v-.994l-9.366,4.133v2.194Z" transform="translate(-730.805 -361.58)"/><path class="e" d="M575.48,376.042l12.148-2.532,94.657,7.848-10.629,4.048Z" transform="translate(-434.603 -281.966)"/><path class="f" d="M948.974,407.55l4.645.3-7.7,2.3-3.92-.282Z" transform="translate(-711.376 -307.671)"/><path class="g" d="M948.974,406.72l4.645.3-7.7,2.307-3.92-.284Z" transform="translate(-711.376 -307.044)"/><path class="h" d="M1022.32,444.491c.184-.078.377.071.573.108.113.022.228,0,.34.022.228.029.453.181.671.105" transform="translate(-785.278 -344.293)"/><path class="h" d="M1021.34,445.06c.181-.078.377.069.573.108.113.02.228,0,.34.02.228.032.453.184.671.108" transform="translate(-784.538 -344.723)"/><path class="h" d="M1019.08,446.2c.184-.078.38.069.576.105.11.022.228,0,.338.022.23.032.456.184.671.105" transform="translate(-782.831 -345.584)"/><path class="f" d="M866.974,398.21l4.645.306-7.7,2.3-3.92-.284Z" transform="translate(-649.455 -300.618)"/><path class="g" d="M866.974,397.39l4.645.3-7.7,2.3-3.92-.282Z" transform="translate(-649.455 -299.998)"/><path class="h" d="M940.32,435.16c.184-.078.377.069.573.108.113.02.228,0,.34.02.228.032.453.184.671.108" transform="translate(-723.357 -337.247)"/><path class="h" d="M939.34,435.73c.181-.078.377.068.573.105.113.022.228,0,.34.022.228.032.453.184.671.105" transform="translate(-722.617 -337.677)"/><path class="h" d="M937.08,436.861c.184-.078.379.071.575.108.11.022.228,0,.338.022.23.029.456.184.671.105" transform="translate(-720.91 -338.531)"/><path class="f" d="M906.3,402.88l4.648.3-7.7,2.307-3.923-.284Z" transform="translate(-679.154 -304.144)"/><path class="g" d="M906.3,402.06l4.648.3-7.7,2.3-3.923-.284Z" transform="translate(-679.154 -303.525)"/><path class="h" d="M979.65,439.83c.184-.078.379.069.575.105.11.022.225,0,.338.022.228.029.455.184.671.105" transform="translate(-753.056 -340.773)"/><path class="h" d="M978.67,440.391c.184-.078.38.071.575.108.11.022.225,0,.338.022.228.029.455.184.671.105" transform="translate(-752.316 -341.197)"/><path class="h" d="M976.42,441.53c.181-.078.377.068.573.108.113.02.228,0,.34.02.228.032.453.184.671.108" transform="translate(-750.617 -342.057)"/><ellipse class="a" cx="49.58" cy="10.206" rx="49.58" ry="10.206" transform="translate(72.403 173.454)"/><path class="i" d="M482.307,279.462a33.213,33.213,0,0,0-2.622-9.082l.159-1.567s.034-.784-.017-1.959a8.91,8.91,0,0,1,.286-2.174,4.477,4.477,0,0,0-.644-3.183c-.108-.154.054-3.134-.911-4.6s-7.39-4.18-7.39-4.18-.345-.722-.833-1.567l.044-.086a9.21,9.21,0,0,0-1.469-1.981c-.394-.421-.774-.661-1.08-.544a8.813,8.813,0,0,1-.284-1.241c.064.017.13.034.193.047a2,2,0,0,0,.808.02,2.4,2.4,0,0,0,1.327-1.175,18.736,18.736,0,0,0,3.382-8.274,5.261,5.261,0,0,0-.086-1.827,6.165,6.165,0,0,0-.573-1.335,10.725,10.725,0,0,0-1.616-2.383A9.206,9.206,0,0,0,466.641,230a15.03,15.03,0,0,0-5.607-.419c-.49.056-.979.137-1.469.169a15.267,15.267,0,0,1-1.863-.032l-3.205-.186-.015-.049-.534-.032a1.351,1.351,0,0,0,.262,1.308,2.232,2.232,0,0,1,.541,1.263,2.583,2.583,0,0,1-.62,1.224,1.178,1.178,0,0,0-.2,1.281.736.736,0,0,0,.13.142,1.614,1.614,0,0,0,1.178.313h.073a7.976,7.976,0,0,0-1.623,4.829A8.12,8.12,0,0,0,458.12,247c.047.159.093.323.137.49a15,15,0,0,1,.514,5.294l-.056.122-.034-.13s-3.776,2.561-4.9,3.24a7.075,7.075,0,0,0-2.3,3.6c-.054.627-1.822,10.081-1.822,10.081a23.168,23.168,0,0,0-.886,2.919l-2.255,1.981a34.672,34.672,0,0,1-6,.105l.039.26a20.351,20.351,0,0,0-3.614-.49,3.832,3.832,0,0,0-1.959.262l-.047.022-.037.017a7.761,7.761,0,0,0-2.057.578c-.078.032-.149.064-.218.1l.015-.321-5.034-.26-2.571-.522s-.911-.735-1.447-.627-1.66-.627-1.66-.627a4.488,4.488,0,0,0-.828-.514c-.086-.593-.14-.953-.14-.953s-2-7.938-3.5-12.606a10.744,10.744,0,0,0-3.3-5.321c-.38-.661-.629-1.087-.629-1.087a4.863,4.863,0,0,0-1.3-1.9c-.037-.059-.064-.088-.078-.088a.286.286,0,0,0-.144.022,15.575,15.575,0,0,1-.022-7.013,7.74,7.74,0,0,0,2.826-5.965v-.208A7.706,7.706,0,0,0,413,232.5l-.083-.093a.648.648,0,0,0,.064-.051,1.313,1.313,0,0,0,.463-1.263,8.664,8.664,0,0,0-.666-1.286,8.326,8.326,0,0,1-.272-1.048,3.231,3.231,0,0,0-.771-1.344l.037.1a4.653,4.653,0,0,0-4.1-1.376c-1.1.176-2.133.691-3.242.85-.8.113-1.606.039-2.407.12a6.246,6.246,0,0,0-2.135.617,1.224,1.224,0,0,0-.453.333,1.791,1.791,0,0,0-.225.629,8.315,8.315,0,0,1-1.758,2.527,5.913,5.913,0,0,0-1.185,3.267,2.557,2.557,0,0,0,.086.894c.054.174.137.338.176.514a3.528,3.528,0,0,1-.3,1.609,3.131,3.131,0,0,0,.174,2.042c.967,2.165,4.143,2.887,4.8,5.159a6.32,6.32,0,0,0,1.589.49c.044.225.083.453.115.683a.182.182,0,0,0-.042.025,4.87,4.87,0,0,0-1.07,2.449l-.1.083c-.35.289-1.548,1.259-2.63,2.005-1.286.889-3.428,3.866-4.927,4.755s-2.733,6.366-2.409,8.357,1.66,7.574,1.124,9.611.8,11.335.8,11.335a13.691,13.691,0,0,1,2.625.779l-.027.406-.081,1.224s-2.427,8.776-1.5,15.532-.428,7.451-.428,7.451.284,2.995-.428,4.04a8.694,8.694,0,0,0-.857,3.342s-.071,5.154.071,6.611.213,4.111-.287,4.738a18.142,18.142,0,0,0-1.357,5.987c.071,1.254-1.785,4.111-.786,7.8s-2.938,3.761-2.938,3.761.5,5.632,1.572,7.243l.157.23c-.027.093-.054.191-.083.3-.4,1.469-.957,3.788-.573,4.349.57.837.857.7.857.7l.213,3.761s4.285,3.622,7.571,3.484,2.642-3.484,2.642-3.484l-2.8-7.258-.1-.245,3.11-5.877s.857-2.576,1.07-3.482,1.376-4.116,1.376-4.116,2.938-6.964,3-7.8.286-5.36.857-6.268a58.013,58.013,0,0,0,2.143-6.122l.039.034a2.064,2.064,0,0,1,.534,2.054,16.416,16.416,0,0,0-.144,4.038,27.466,27.466,0,0,1-.428,3.484c-.286,1.185-.355,10.865.144,13.161a37.26,37.26,0,0,1,.367,6.584c-.335,1.383-.629,3.1-.083,3.306.931.35,5.644.279,5.644.279s2-.7,4.714,1.741,11.068-.7,11.068-.7,2.571-.7-2.5-2.716a43.119,43.119,0,0,1-7.317-3.35c.034-.066.071-.132.1-.2,0,0-2.072-1.959-.358-5.431a15.124,15.124,0,0,0,1.643-6.408l.286-11.7-.857-15.534-.664-16.3.117-.039c.113,3,.7,10.132,3.761,8.749,3.857-1.741.571-6.268.571-6.268l-1.731-3.374.517-.176-1.937-6.259a14.119,14.119,0,0,1-.073-3.69,14.6,14.6,0,0,0-.044-2.155,38.644,38.644,0,0,1,5.4-.806c.514.125,3.391.149,4.523.154-.37.289-.666.575-.666.575l4.606,3.1s1.562-.855,1.888-1.761a2.033,2.033,0,0,0,.862-.46c.049,1.07.333,2.228,1.322,2.255a1.715,1.715,0,0,0,.72-.142l7.532-1.491-.646,4.038.451.8c-.228,3.406-.49,7.023-.72,10.2l-.105.7.054.012c-.357,4.9-.644,8.607-.644,8.607a4.512,4.512,0,0,1,1.878-1.888l.049,7.268s.377,11.491.377,13.059.051,5.066.051,5.066.806,4.283,1.286,5.693.857,7.836.857,7.836,1.126,1.775.644,2.449,1.876,2.14,1.876,2.14a9.193,9.193,0,0,0-1.609,3.4c-.012.157.142.323.421.49-.088.071-.179.142-.279.211a4.892,4.892,0,0,1-3.247.656c-4.18-.367-7.126,3.5-4.555,4.283s10.284.94,10.284.94,2.336-1.457,4.163-.8c-.027,1.533.049,2.938.061,3.124l-.022.017a16.984,16.984,0,0,1-5.225,3.352c-2.938.992-3.59,5.015.213,5.536s9.373-.627,9.373-.627a17.277,17.277,0,0,1,5.088-2.61c2.2-.47,4.072-1.516,3.7-2.769-.245-.8-.874-2.9-1.3-4.31q-.037-.127-.074-.245c.066-.147.132-.3.193-.455,0,0-1.124-5.85-.213-7.312s.429-16.09.429-16.09-1.555-3.707-.749-5.953-1.285-5.434-1.285-5.434a99.25,99.25,0,0,1,.84-9.949l.081-.441a20.049,20.049,0,0,0,2.987-1.153s.536-8.046.857-9.873c.032-.171.076-.448.13-.808l.245-1.29h0l.289-1.469h0l.979-5.007,1.768-2.287,4.555-4.652S482.844,284.112,482.307,279.462Zm-70.237-28.73-.034.024a.426.426,0,0,1-.012-.054A.221.221,0,0,0,412.071,250.732Zm45,5.7-.176.384.644-.642-.874.979.294-.617Zm-4.349,8.986c-.169.448-.35.933-.539,1.437l.345-1.031Z" transform="translate(-306.03 -179.379)"/><path class="j" d="M595.644,441.83s-.6,3.994,1.2,4.045,3-3.08,3-3.08l-.735-2.5Z" transform="translate(-463.007 -341.138)"/><path class="k" d="M595.644,441.83s-.6,3.994,1.2,4.045,3-3.08,3-3.08l-.735-2.5Z" transform="translate(-463.007 -341.138)"/><path class="l" d="M404.943,757.974c-3.2.14-7.38-3.479-7.38-3.479l-.208-3.759s-.277.14-.835-.7c-.375-.561.164-2.884.558-4.346.191-.715.348-1.224.348-1.224l7.028,1.88.335.889,2.728,7.253S408.143,757.835,404.943,757.974Z" transform="translate(-312.618 -570.835)"/><path class="l" d="M497.916,731.494s-8.142,3.132-10.774.7-4.594-1.741-4.594-1.741-4.594.071-5.5-.279c-.534-.2-.245-1.944.088-3.33.225-.957.47-1.748.47-1.748s8-2.716,9.256-1.046a6,6,0,0,0,1.334,1.273c1.45,1.048,3.715,2,7.3,3.46C500.421,730.8,497.916,731.494,497.916,731.494Z" transform="translate(-373.3 -555.002)"/><path class="m" d="M527.117,496.35l2.226,4.454s3.2,4.525-.556,6.264-3.688-10.02-3.688-10.02Z" transform="translate(-409.809 -383.471)"/><path class="n" d="M495.25,338.61s2.436,1.114,3.9,5.776,3.411,12.6,3.411,12.6,1.322,8.977,1.112,11.2a14.449,14.449,0,0,0,.071,3.688l1.878,6.264-3.759,1.322-5.776-22.131Z" transform="translate(-387.268 -264.355)"/><path class="d" d="M495.25,338.61s2.436,1.114,3.9,5.776,3.411,12.6,3.411,12.6,1.322,8.977,1.112,11.2a14.449,14.449,0,0,0,.071,3.688l1.878,6.264-3.759,1.322-5.776-22.131Z" transform="translate(-387.268 -264.355)"/><path class="f" d="M406.543,746.368l.335.889-.411.786c-1.6.7-5.568.14-5.568.14s-.735-.933-1.738-2.468c.191-.715.348-1.224.348-1.224Z" transform="translate(-314.707 -570.85)"/><path class="f" d="M489.567,725.647c-2.03,4.6-8.93,2.892-10.847,2.316-.316-.1-.49-.159-.49-.159s.012-.375.017-.965c.225-.957.47-1.748.47-1.748s8-2.716,9.256-1.046a6,6,0,0,0,1.334,1.273A2.358,2.358,0,0,0,489.567,725.647Z" transform="translate(-374.416 -555.002)"/><path class="o" d="M424.57,521.438c-1.67,3.477.35,5.429.35,5.429-2.03,4.6-8.93,2.892-10.847,2.314-.316-.093-.49-.157-.49-.157a42.4,42.4,0,0,0-.348-7.1c-.487-2.3-.419-11.969-.14-13.152a28,28,0,0,0,.416-3.482,16.967,16.967,0,0,1,.14-4.035,2.084,2.084,0,0,0-.519-2.052l-.037-.037a57.943,57.943,0,0,1-2.089,6.122c-.558.9-.764,5.429-.835,6.264s-2.924,7.8-2.924,7.8-1.112,3.2-1.32,4.1-1.046,3.482-1.046,3.482l-3.355,6.474c-1.6.7-5.568.139-5.568.139s-.764-.979-1.81-2.576-1.53-7.236-1.53-7.236,3.827-.071,2.853-3.759.835-6.543.766-7.8a18.527,18.527,0,0,1,1.322-5.984c.487-.627.416-3.271.277-4.733s-.069-6.611-.069-6.611a8.841,8.841,0,0,1,.835-3.34c.7-1.043.419-4.038.419-4.038s1.32-.7.416-7.446,1.469-15.519,1.469-15.519l.081-1.224.127-1.983s19.9-1.254,21.506.277a5.281,5.281,0,0,1,1.016,1.457,14.5,14.5,0,0,1,1.151,3.7l.835,21.088.835,15.519-.279,11.692A15.543,15.543,0,0,1,424.57,521.438Z" transform="translate(-309.768 -356.637)"/><path class="f" d="M481.14,538.42l-2.089,45.236-2.507,4.123c-.316-.093-.49-.157-.49-.157a42.4,42.4,0,0,0-.348-7.1c-.487-2.3-.419-11.969-.14-13.152a28,28,0,0,0,.416-3.482,16.966,16.966,0,0,1,.14-4.035,2.084,2.084,0,0,0-.519-2.052l.034-.245Z" transform="translate(-372.24 -415.239)"/><path class="f" d="M406.717,731.861s5.429-2.157,6.264-1.469-6.4,1.739-6.4,1.739Z" transform="translate(-320.31 -560.102)"/><path class="f" d="M501.022,713.5c-.208.071-5.5,1.959-5.01,3.967S501.022,713.5,501.022,713.5Z" transform="translate(-387.82 -547.449)"/><path class="m" d="M449.07,285.092s1.773,4.28.835,6.474,10.125,5.95,10.125,5.95-3.235-8.352-.1-13.051S449.07,285.092,449.07,285.092Z" transform="translate(-352.396 -222.006)"/><path class="p" d="M662.209,772.937a16.707,16.707,0,0,0-4.958,2.61s-5.429,1.148-9.136.627-3.078-4.542-.208-5.534a16.662,16.662,0,0,0,5.1-3.347c.47-.433.749-.735.749-.735l10.39-2.089s.169.58.4,1.381c.416,1.413,1.031,3.509,1.266,4.307C666.176,771.424,664.35,772.467,662.209,772.937Z" transform="translate(-500.759 -585.938)"/><path class="p" d="M636.1,741.89s-4.386.47-6.212-.573-4.437.627-4.437.627-7.517-.157-10.022-.94.365-4.652,4.437-4.28a4.677,4.677,0,0,0,3.166-.656A3.335,3.335,0,0,0,624.411,734l8.815.521,1.224,3.125Z" transform="translate(-477.312 -562.929)"/><path class="f" d="M660.923,739.071s-10.245-1.675-11.553-3A3.336,3.336,0,0,0,650.749,734l8.815.521,1.224,3.125Z" transform="translate(-503.65 -562.929)"/><path class="q" d="M634.52,513.238l.105,15.292s.365,11.484.365,13.051.051,5.061.051,5.061.784,4.28,1.254,5.691.835,7.836.835,7.836,1.1,1.775.627,2.449,1.827,2.14,1.827,2.14a9.146,9.146,0,0,0-1.565,3.394c-.1,1.357,11.69,3.284,11.69,3.284l-4.591-47.08-3.656-11.795Z" transform="translate(-492.436 -395.712)"/><path class="f" d="M634.52,513.238l.105,15.292s.365,11.484.365,13.051.051,5.061.051,5.061.784,4.28,1.254,5.691.835,7.836.835,7.836,1.1,1.775.627,2.449,1.827,2.14,1.827,2.14a9.146,9.146,0,0,0-1.565,3.394c-.1,1.357,11.69,3.284,11.69,3.284l-4.591-47.08-3.656-11.795Z" transform="translate(-492.436 -395.712)"/><path class="f" d="M687.553,765.863c-3.411,8.132-11.523,1.856-11.523,1.856s0-.157-.02-.426c.47-.433.749-.735.749-.735l10.39-2.089S687.318,765.063,687.553,765.863Z" transform="translate(-523.767 -585.938)"/><path class="q" d="M662.925,569.648c-3.342,8.57-11.641,2.14-11.641,2.14a30,30,0,0,1,.262-6.472c.524-2.035-.575-8.144-.575-8.144s-.627-5.429-1.2-6.68a11.9,11.9,0,0,1-.521-3.967,7.575,7.575,0,0,0-.262-3.029,20.379,20.379,0,0,1-.734-3.967,41.859,41.859,0,0,0-.47-6.315l-1.619-8.081-2.924-16.548.913-.157,16.364-2.87s3.08,15.671,2.035,17.278a6.734,6.734,0,0,0-.588,2.118c-.6,3.555-.82,9.939-.82,9.939s2.035,3.183,1.254,5.429.734,5.95.734,5.95.47,14.616-.419,16.078S662.925,569.648,662.925,569.648Z" transform="translate(-499.021 -390.426)"/><path class="r" d="M679.639,298.806s-14.824,10.439-11.484,5.218c1.8-2.811,1.469-6.391.764-9.094a21.458,21.458,0,0,0-1.469-3.989s12.6-5.358,10.926-.556a8.994,8.994,0,0,0-.49,3.487A9.305,9.305,0,0,0,679.639,298.806Z" transform="translate(-517.302 -226.43)"/><path class="r" d="M584.58,426.058s-6.264-1.81-7.307-.034.313,5.671,2.2,6.3,6.229-2.123,6.229-2.123Z" transform="translate(-448.933 -329.776)"/><path class="j" d="M609.819,416l-2.61,2.4a33.023,33.023,0,0,1-5.847.1s1.2,8.039-.522,9.031l10.544-2.14Z" transform="translate(-467.003 -322.796)"/><path class="f" d="M609.819,416l-2.61,2.4a33.023,33.023,0,0,1-5.847.1s1.2,8.039-.522,9.031l10.544-2.14Z" transform="translate(-467.003 -322.796)"/><path class="f" d="M452.3,249.971a7.836,7.836,0,0,1-7.836,7.836c-4.021-1.932-7.836-3.5-7.836-7.836a7.836,7.836,0,1,1,15.659,0Z" transform="translate(-342.998 -191.27)"/><path class="m" d="M452.409,250.125a7.821,7.821,0,1,1-1.773-4.954A7.821,7.821,0,0,1,452.409,250.125Z" transform="translate(-343.104 -191.635)"/><path class="f" d="M449.465,463.063a17.7,17.7,0,0,1-2.427,1.259s-3.967-.575-4.54.1-5.632.94-5.632.94-7.726-.365-8.874-1.357a4.7,4.7,0,0,0-1.173-.7l.127-1.983s19.9-1.254,21.506.277A5.281,5.281,0,0,1,449.465,463.063Z" transform="translate(-335.594 -356.66)"/><path class="n" d="M436.67,346.409c-.157.886-3.394,2.243-3.394,2.243s-3.967-.573-4.54.105-5.632.94-5.632.94-7.725-.367-8.874-1.359a9.962,9.962,0,0,0-3.707-1.469s-1.305-9.29-.781-11.325-.784-7.623-1.1-9.606.886-7.463,2.348-8.35,3.55-3.864,4.8-4.75c1.055-.747,2.221-1.714,2.561-2.005l.1-.083A4.942,4.942,0,0,1,419.5,308.3c.835-.83,8.507,5.272,8.507,5.272s.054.47.575-.416c.118-.2,1.129,1.261,1.305,1.878,0,0,4.175,7.309,4.437,8.815s1.357,6.42,1.565,7.62c.054.309.142,1.391.245,2.84.02.284.037.585.059.9.154,2.4.321,5.475.421,7.8,0,.264.022.519.029.764a25.993,25.993,0,0,1,.024,2.64Z" transform="translate(-321.832 -241.409)"/><path class="f" d="M415,387.21s2.87,3.5,3.81,3.5S415,387.21,415,387.21Z" transform="translate(-326.668 -301.055)"/><path class="f" d="M426.955,417.91s-4.7,5.115-4.072,6.055S426.955,417.91,426.955,417.91Z" transform="translate(-332.577 -324.238)"/><path class="f" d="M425.62,435.014s5.387-5.9,5.632-7.934Z" transform="translate(-334.688 -331.163)"/><path class="f" d="M453.33,441.454s6.212-3.289,6.734-5.9S453.33,441.454,453.33,441.454Z" transform="translate(-355.613 -337.187)"/><path class="f" d="M482.862,329.481,482,331.567l1.435.678,1.41,3.942s3.888,7.777,3.732,11.822a71.654,71.654,0,0,0,.705,10.125l2.243-.416-1.058-11.9a17.162,17.162,0,0,0-1.366-5.34c-1.792-4.1-5.127-11.68-5.338-11.68-.286,0-.086.105-.086.105Z" transform="translate(-377.262 -256.948)"/><path class="s" d="M483.712,328.628l-.862,2.089,1.437.678,1.408,3.942s3.888,7.777,3.732,11.822a71.667,71.667,0,0,0,.705,10.125l2.245-.416-1.06-11.9a17.1,17.1,0,0,0-1.364-5.34c-1.792-4.106-5.127-11.68-5.336-11.68-.289,0-.088.105-.088.105Z" transform="translate(-377.904 -256.306)"/><path class="m" d="M574.164,433.589a19.568,19.568,0,0,1-4.753-1.959l-.441-.245.054-4.043a7.11,7.11,0,0,1,.8-.4c1.391-.607,4.244-1.432,5.674,1.224C577.425,431.726,575.547,433.682,574.164,433.589Z" transform="translate(-442.937 -330.59)"/><path class="f" d="M450.506,245.09a1.158,1.158,0,0,1-.365.149c-.908.2-1.942-.583-2.72-.081a1.971,1.971,0,0,0-.649,1.511q-.167,1.469-.333,2.919a3.6,3.6,0,0,1-.215,1.006,2.525,2.525,0,0,1-2.4,1.278,1.432,1.432,0,0,1-1.036-.343c-.169-.171-.26-.411-.446-.568-1.224-1.026-1.6,1.489-1.273,2.2.519,1.168,2.363,2.294,1.589,3.778a1.415,1.415,0,0,1-.568.571,7.836,7.836,0,1,1,8.418-12.424Z" transform="translate(-342.974 -191.553)"/><path class="t" d="M434.359,240.034c.184.154.277.394.446.566a1.435,1.435,0,0,0,1.036.343,2.512,2.512,0,0,0,2.4-1.281,3.487,3.487,0,0,0,.218-1l.333-2.919a1.963,1.963,0,0,1,.649-1.511c.779-.49,1.812.279,2.72.081a1.33,1.33,0,0,0,.979-1.533,8.631,8.631,0,0,0-.646-1.283,8.382,8.382,0,0,1-.267-1.046,4.146,4.146,0,0,0-4.677-2.649c-1.077.179-2.079.693-3.159.85-.774.113-1.565.039-2.346.122a5.92,5.92,0,0,0-2.081.615,1.209,1.209,0,0,0-.441.333,1.838,1.838,0,0,0-.22.627,8.37,8.37,0,0,1-1.714,2.527,6.021,6.021,0,0,0-1.161,3.259,2.61,2.61,0,0,0,.083.894c.051.171.132.338.171.514a3.582,3.582,0,0,1-.289,1.606,3.213,3.213,0,0,0,.171,2.042c.94,2.162,4.038,2.885,4.682,5.154a5.142,5.142,0,0,0,1.822.49,1.757,1.757,0,0,0,1.606-.82c.771-1.469-1.07-2.61-1.589-3.776C432.76,241.518,433.125,239.006,434.359,240.034Z" transform="translate(-335.202 -180.635)"/><path class="f" d="M678.418,290.385a9,9,0,0,0-.49,3.487c-.377.321-.789-.639-1.224-.392-1.195.691-2.576,2.334-4.055,2.334a8.122,8.122,0,0,1-3.69-.884,21.454,21.454,0,0,0-1.469-3.989S680.088,285.584,678.418,290.385Z" transform="translate(-517.333 -226.43)"/><path class="r" d="M671.548,258.644A8.144,8.144,0,1,1,663.4,250.5,8.144,8.144,0,0,1,671.548,258.644Z" transform="translate(-508.098 -197.82)"/><path class="u" d="M658.326,324.164s-1.533,1.67-1.741,1.807-4.652,18.854-4.731,19.072-5.292,17.118-5.292,17.118l-8.352,4.106.7-20.671,6.121-17.047s2.02-2.3,2.645-3.132,8.421-5.847,8.421-5.847l1.332,2.745Z" transform="translate(-495.222 -249.978)"/><path class="f" d="M685.758,324.025l-9.6,6.876L676,327.125c.627-.835,8.421-5.845,8.421-5.845Z" transform="translate(-523.759 -251.269)"/><path class="u" d="M686.623,322.315l-9.6,6.876-.149-3.773c.627-.838,8.421-5.847,8.421-5.847Z" transform="translate(-524.416 -249.978)"/><path class="j" d="M639.079,336.59l.321,1.68-2.148,2.182,1.714-3.837s-3.673,2.559-4.775,3.237a6.971,6.971,0,0,0-2.245,3.6c-.042.627-1.775,10.074-1.775,10.074s-1.305,3.5-.938,4.488-1.983,32.258-1.983,32.258a4.653,4.653,0,0,1,3.139-2.407l-.837-18.477s1.019-12.292,1.07-12.449L633,349.658Z" transform="translate(-486.946 -262.83)"/><path class="f" d="M643.2,344.3l-.167,3.428s-2.324,7.334-3.1,8.533-3.159,8.352-3.159,8.352l-1.339,12.424-2.3,1.046L632,376l1.881-12s3.548-10.125,4.072-11.171l2.618-5.514Z" transform="translate(-490.533 -268.652)"/><path class="v" d="M642.315,343.45l-.164,3.428s-2.324,7.334-3.107,8.534-3.156,8.352-3.156,8.352l-1.332,12.422-2.3,1.043-1.148-2.086,1.881-12s3.548-10.128,4.07-11.171l2.637-5.507Z" transform="translate(-489.861 -268.01)"/><path class="r" d="M566.31,446.8l4.488,3.107s3.166-1.775,1.322-2.924a8.176,8.176,0,0,0-4.072-1.322C567.456,445.66,566.31,446.8,566.31,446.8Z" transform="translate(-440.928 -345.193)"/><path class="r" d="M579,425.577a.69.69,0,0,0-.326.59c0,.953.108,3.475.906,2.336.979-1.393.8-2.645,2.3-1.741a8.817,8.817,0,0,1,2.4,2.2l-.416-2.992S580.781,424.455,579,425.577Z" transform="translate(-450.261 -329.715)"/><path class="f" d="M664.99,522.8a6.741,6.741,0,0,0-.588,2.118,17.693,17.693,0,0,1-15.85-3.058,79.885,79.885,0,0,1-1.983-8.35,27.214,27.214,0,0,1,.025-5.118l16.364-2.87S666.036,521.179,664.99,522.8Z" transform="translate(-501.454 -390.395)"/><path class="j" d="M674.343,335.451a16.218,16.218,0,0,0-.26,4.124l-3.759,17.748s-1.827,13.676-2.14,15.5-.835,9.866-.835,9.866a17.68,17.68,0,0,1-18.854-1.878,80.034,80.034,0,0,1-1.983-8.352c-.524-3.1,1.019-15.519,1.748-21.036.218-1.633.365-2.662.365-2.662l2.74-10.179s3.367-8.587,4.62-11.092,6.288-8.132,6.288-8.132c.624-.4,1.624,1,2.365,2.28.561.965.979,1.861.979,1.861s6.264,2.713,7.2,4.163.784,4.437.889,4.594A4.6,4.6,0,0,1,674.343,335.451Z" transform="translate(-501.411 -249.767)"/><path class="f" d="M665.965,329.778s.47,2.767-.735,3.6c-1.163.808-9.821,17.833-10.36,18.9.218-1.636.365-2.664.365-2.664l2.74-10.177s3.369-8.587,4.621-11.095,6.291-8.132,6.291-8.132c.624-.4,1.621,1,2.363,2.28C670.13,324.812,667.8,329.205,665.965,329.778Z" transform="translate(-507.803 -250.408)"/><path class="j" d="M665.1,328.928s.468,2.767-.735,3.6S654.546,350.361,654,351.424c.218-1.633.365-2.662.365-2.662l2.74-10.179s3.367-8.587,4.621-11.092,6.288-8.132,6.288-8.132c.624-.4,1.623,1,2.365,2.28C669.265,323.96,666.929,328.355,665.1,328.928Z" transform="translate(-507.146 -249.766)"/><path class="w" d="M605,410.4l-2.946,15.326v0l-.282,1.467v0l-.634,3.3-2.706-.573-1.261-.267-17.451-3.7-1.283-.272-2.929-.62.573-3.805.237-1.582,2.113-14.031Z" transform="translate(-434.626 -306.236)"/><path class="r" d="M666.143,511.92s-6.942,2.5-5.429,5.48,11.222-2.3,11.222-2.3Z" transform="translate(-512.054 -395.228)"/><path class="f" d="M703.8,599.1c0,.208.262,2.872,1.305,3.81S703.8,599.1,703.8,599.1Z" transform="translate(-544.752 -461.061)"/><path class="f" d="M675.24,637.68s1.251,3.445,6.21,4.856S675.24,637.68,675.24,637.68Z" transform="translate(-523.185 -490.194)"/><path class="f" d="M676.434,258.71a8.142,8.142,0,0,1-4.082,7.059,4.336,4.336,0,0,1-1.224-1.021,1.582,1.582,0,0,1-.419-1.533c.172-.414.624-.676.734-1.1a1.625,1.625,0,0,0-.039-.788c-.091-.4-.176-.808-.265-1.21-.076-.343-.21-.747-.551-.83s-.625.2-.891.411a2.794,2.794,0,0,1-2.693.443c-.786-.424-.566-1.841-.693-2.608a.456.456,0,0,0-.171-.345.715.715,0,0,0-.355-.025,1.022,1.022,0,0,1-.886-.786,6.749,6.749,0,0,1-.142-1.261,1.407,1.407,0,0,0-.563-1.09,1.741,1.741,0,0,0-.928-.152l-1.535.017a8.144,8.144,0,0,1,14.692,4.829Z" transform="translate(-512.983 -197.886)"/><path class="v" d="M665.53,252.922c.267-.211.561-.49.891-.409s.473.49.549.828l.264,1.207a1.639,1.639,0,0,1,.042.791c-.125.431-.575.691-.749,1.1a1.582,1.582,0,0,0,.419,1.53,4.409,4.409,0,0,0,2.52,1.506,1.851,1.851,0,0,0,.786.017,2.326,2.326,0,0,0,1.293-1.173,19,19,0,0,0,3.3-8.269,5.3,5.3,0,0,0-.083-1.824,6.122,6.122,0,0,0-.558-1.335,10.78,10.78,0,0,0-1.574-2.383,8.943,8.943,0,0,0-4.231-2.373,14.33,14.33,0,0,0-5.463-.429c-.49.056-.96.137-1.442.169a14.514,14.514,0,0,1-1.817-.029l-3.6-.215a1.4,1.4,0,0,0,.245,1.308,2.347,2.347,0,0,1,.529,1.263,2.6,2.6,0,0,1-.6,1.224,1.205,1.205,0,0,0-.193,1.281,1.37,1.37,0,0,0,1.224.4l1.817-.02a1.736,1.736,0,0,1,.923.159,1.411,1.411,0,0,1,.563,1.09,7.207,7.207,0,0,0,.142,1.261,1.019,1.019,0,0,0,.886.786.661.661,0,0,1,.355.027.451.451,0,0,1,.171.343c.127.766-.108,2.182.693,2.608A2.82,2.82,0,0,0,665.53,252.922Z" transform="translate(-508.597 -191.114)"/><path class="f" d="M689.864,353.4a3.991,3.991,0,0,0-4.2,2.681c-.979,2.789-2.613,7.821-2.2,9.809.575,2.818,1.254,7.517,1.254,7.517s2.975,1.714,1.469,3.443a9.751,9.751,0,0,0-1.932,4.177,4.342,4.342,0,0,0-2.348,2.61c-.416,1.775-3.237,4.226-3.237,4.226l-4.226,4.229s6.993,7.1,8.4,7.463l4.332-5.064,5.115-6.785,4.437-4.652s1.043-2.449.522-7.1a33.986,33.986,0,0,0-2.559-9.082l.157-1.567S695.327,354.079,689.864,353.4Z" transform="translate(-522.581 -275.507)"/><path class="j" d="M691.571,353.4a3.991,3.991,0,0,0-4.195,2.681c-.979,2.789-2.613,7.821-2.2,9.809.573,2.818,1.251,7.517,1.251,7.517s2.975,1.714,1.469,3.443a9.731,9.731,0,0,0-1.93,4.177,4.35,4.35,0,0,0-2.351,2.61c-.419,1.775-3.235,4.226-3.235,4.226L676.15,392.1s6.993,7.1,8.4,7.463l4.332-5.064,5.1-6.785,4.437-4.652s1.046-2.449.522-7.1a34.135,34.135,0,0,0-2.556-9.082l.157-1.567S697.034,354.08,691.571,353.4Z" transform="translate(-523.872 -275.509)"/><path class="f" d="M721.28,418.34s4.437,5.426,6.317,4.226S721.28,418.34,721.28,418.34Z" transform="translate(-557.952 -324.563)"/><path class="f" d="M728.1,401.28c.47.157,4.334,5.534,6.317,4.9S728.1,401.28,728.1,401.28Z" transform="translate(-563.102 -311.68)"/><path class="f" d="M732.58,439a2.906,2.906,0,0,0,3.445,2.662C739.209,441.243,732.58,439,732.58,439Z" transform="translate(-566.485 -340.164)"/><path class="f" d="M615.711,301.83l-1.721,3.837,2.15-2.182Z" transform="translate(-463.683 -227.837)"/><path class="u" d="M615.711,300.98l-1.721,3.837,2.15-2.182Z" transform="translate(-463.683 -227.196)"/><path class="x" d="M581.489,469.228l-1.283-.272-2.356-4.425.237-1.582Z" transform="translate(-436.393 -349.505)"/><path class="x" d="M668.863,487.65l-.282,1.467v0l-3.34,2.725-1.261-.267Z" transform="translate(-501.433 -368.157)"/><path class="f" d="M445.419,370.886c-.646.108-1.273.206-1.846.279-3.183.419-10.754-3.34-10.754-3.34s-9.239-7.725-11.9-15.032,3.183-8.4,3.183-8.4c2.2-1.254,7,2.243,7.674,2.818a4.359,4.359,0,0,1,1.2,2.975c-.054.94,1.567,2.14,1.567,2.14s2.767,4.8,3.445,5.323a2.723,2.723,0,0,1,1.043,1.88c.208.889,2.035,1.619,2.818,1.565s1.714.262,1.714.678c0,.335.766.5,1.4.556C445.144,365,445.328,368.508,445.419,370.886Z" transform="translate(-330.612 -268.516)"/><path class="f" d="M446.681,367.547c-.49.078-.96.149-1.4.208-3.183.419-10.752-3.34-10.752-3.34s-9.239-7.726-11.9-15.032,3.183-8.4,3.183-8.4c2.2-1.254,6.993,2.243,7.672,2.818a4.372,4.372,0,0,1,1.2,2.975c-.051.94,1.565,2.14,1.565,2.14s2.767,4.8,3.445,5.323a2.735,2.735,0,0,1,1.046,1.88c.211.889,2.035,1.616,2.818,1.565s1.714.262,1.714.678c0,.245.436.409.921.49.02.284.037.585.059.9C446.414,362.155,446.58,365.226,446.681,367.547Z" transform="translate(-331.904 -265.941)"/><path class="f" d="M569.822,428.84l-.2,4.692h-.213l-.441-.245.054-4.043A7.1,7.1,0,0,1,569.822,428.84Z" transform="translate(-442.937 -332.491)"/><path class="n" d="M424.1,342.682s-5.845,1.1-3.183,8.4,11.9,15.035,11.9,15.035,7.569,3.756,10.754,3.34,8.036-1.513,8.663-1.357,4.856.157,4.856.157l.208-4.9-4.9-.262-2.505-.522s-.889-.735-1.41-.627-1.616-.627-1.616-.627a3.12,3.12,0,0,0-1.469-.678c-.632,0-1.827-.157-1.827-.573s-.94-.735-1.714-.678-2.622-.678-2.838-1.577a2.725,2.725,0,0,0-1.043-1.878c-.678-.522-3.445-5.326-3.445-5.326s-1.619-1.2-1.567-2.138a4.381,4.381,0,0,0-1.2-2.977C431.089,344.925,426.29,341.43,424.1,342.682Z" transform="translate(-330.612 -267.227)"/><path class="f" d="M492.014,412.15s-2.245,2.245-1.672,2.662Z" transform="translate(-383.491 -319.888)"/><path class="f" d="M500.249,419.4s-2.924,2.245-2.14,2.4S500.249,419.4,500.249,419.4Z" transform="translate(-389.326 -325.363)"/><path class="f" d="M487,433c.419.211,6.628,3.918,8.979,3.864Z" transform="translate(-381.038 -335.633)"/><path class="f" d="M458.952,315.307s-1.1,3.6-1.516,3.6c-.328,0-5.838-4.461-8.137-6.337l.1-.083a4.929,4.929,0,0,1,1.043-2.449C451.278,309.21,458.952,315.307,458.952,315.307Z" transform="translate(-352.569 -242.723)"/><path class="n" d="M458.093,313.6s-1.095,3.6-1.513,3.6c-.331,0-5.84-4.461-8.139-6.337l.1-.083a4.942,4.942,0,0,1,1.046-2.449C450.421,307.5,458.093,313.6,458.093,313.6Z" transform="translate(-351.92 -241.432)"/><g class="y" transform="translate(91.39 48.441)"><path d="M427.49,282.54h0c.735,1.677,2.757,2.49,3.93,3.827C430.722,284.724,428.682,283.919,427.49,282.54Z" transform="translate(-427.49 -270.456)"/><path d="M448.137,293.955a1.76,1.76,0,0,1-1.606.82,4.686,4.686,0,0,1-1.611-.411,3.132,3.132,0,0,1,.416.886,5.118,5.118,0,0,0,1.822.49,1.742,1.742,0,0,0,1.606-.82c.468-.894-.02-1.658-.59-2.38A1.555,1.555,0,0,1,448.137,293.955Z" transform="translate(-440.652 -278.007)"/><path d="M461.912,236.865a8.39,8.39,0,0,0-.646-1.283,8.006,8.006,0,0,1-.267-1.048,3.247,3.247,0,0,0-.752-1.344,3.1,3.1,0,0,1,.125.37,8.428,8.428,0,0,0,.274,1.053,8.4,8.4,0,0,1,.646,1.283,1.33,1.33,0,0,1-.979,1.533c-.906.2-1.939-.585-2.718-.081a1.956,1.956,0,0,0-.651,1.508q-.164,1.469-.333,2.921a3.505,3.505,0,0,1-.216,1,2.522,2.522,0,0,1-2.4,1.281,1.442,1.442,0,0,1-1.033-.343,6.818,6.818,0,0,0-.448-.568c-1.224-1.028-1.6,1.486-1.273,2.2a4.438,4.438,0,0,0,.6.9c-.269-.808.108-3.134,1.3-2.138a6.324,6.324,0,0,1,.446.568,1.452,1.452,0,0,0,1.036.343,2.523,2.523,0,0,0,2.4-1.281,3.5,3.5,0,0,0,.215-1.006q.166-1.469.333-2.919a1.962,1.962,0,0,1,.649-1.508c.781-.5,1.814.279,2.72.078a1.327,1.327,0,0,0,.972-1.525Z" transform="translate(-445.34 -233.19)"/></g><path class="f" d="M670.595,258.76a1.892,1.892,0,0,1-.786-.02,4.408,4.408,0,0,1-2.517-1.5,1.577,1.577,0,0,1-.419-1.533c.171-.414.622-.673.735-1.1a1.641,1.641,0,0,0-.042-.791L667.3,252.6c-.076-.343-.208-.747-.548-.828s-.624.2-.891.409a2.789,2.789,0,0,1-2.693.443c-.784-.426-.566-1.841-.693-2.608a.458.458,0,0,0-.171-.343.7.7,0,0,0-.357-.027,1.025,1.025,0,0,1-.886-.786,6.955,6.955,0,0,1-.14-1.261,1.413,1.413,0,0,0-.566-1.09,1.76,1.76,0,0,0-.923-.159l-1.817.02c-.448,0-.979-.029-1.224-.4a1.22,1.22,0,0,1,.193-1.281,2.535,2.535,0,0,0,.6-1.224,2.3,2.3,0,0,0-.529-1.263,2.269,2.269,0,0,1-.309-.7l-.522-.032a1.409,1.409,0,0,0,.245,1.308,2.338,2.338,0,0,1,.529,1.261,2.6,2.6,0,0,1-.6,1.224,1.2,1.2,0,0,0-.191,1.281,1.369,1.369,0,0,0,1.224.4l1.817-.022a1.759,1.759,0,0,1,.923.162,1.406,1.406,0,0,1,.566,1.09,6.763,6.763,0,0,0,.142,1.261,1.014,1.014,0,0,0,.886.784.717.717,0,0,1,.355.027.461.461,0,0,1,.171.345c.127.764-.108,2.182.693,2.608a2.778,2.778,0,0,0,2.693-.443c.267-.211.563-.49.894-.411s.473.49.546.828l.267,1.21a1.638,1.638,0,0,1,.039.791c-.122.429-.575.691-.747,1.1a1.581,1.581,0,0,0,.419,1.533,4.408,4.408,0,0,0,2.534,1.5,1.894,1.894,0,0,0,.786.02,1.846,1.846,0,0,0,1.019-.774A1.362,1.362,0,0,1,670.595,258.76Z" transform="translate(-508.419 -191.002)"/><ellipse class="a" cx="5.918" cy="0.908" rx="5.918" ry="0.908" transform="translate(43.921 174.083)"/><ellipse class="a" cx="5.918" cy="0.908" rx="5.918" ry="0.908" transform="translate(250.566 150.463)"/><ellipse class="a" cx="17.14" cy="2.63" rx="17.14" ry="2.63" transform="translate(179.007 185.349)"/><ellipse class="a" cx="13.37" cy="2.052" rx="13.37" ry="2.052" transform="translate(231.503 174.786)"/><ellipse class="a" cx="22.672" cy="3.48" rx="22.672" ry="3.48" transform="translate(220 193.804)"/><ellipse class="a" cx="17.14" cy="2.63" rx="17.14" ry="2.63" transform="translate(7.368 197.715)"/><path class="w" d="M253.2,631.85s.671.877-.309,2.2-1.788,2.449-1.469,3.266c0,0,1.469-2.449,2.694-2.493S254.525,633.329,253.2,631.85Z" transform="translate(-203.092 -485.792)"/><path class="f" d="M253.335,631.85a.98.98,0,0,1,.137.274c1.175,1.381,1.8,2.667.671,2.693-1.05.029-2.312,1.91-2.613,2.385a.91.91,0,0,0,.034.108s1.469-2.449,2.694-2.493S254.659,633.329,253.335,631.85Z" transform="translate(-203.226 -485.792)"/><path class="z" d="M263.517,635.8c0,.308-.037.558-.078.558s-.078-.245-.078-.558.044-.162.086-.162S263.517,635.49,263.517,635.8Z" transform="translate(-212.159 -488.624)"/><path class="z" d="M264.112,637.263c-.269.147-.507.245-.526.2s.181-.186.453-.335.164-.039.184,0S264.384,637.113,264.112,637.263Z" transform="translate(-212.329 -489.718)"/><path class="w" d="M239.8,631.85s-.671.877.309,2.2,1.79,2.449,1.469,3.266c0,0-1.469-2.449-2.681-2.493S238.467,633.329,239.8,631.85Z" transform="translate(-193.231 -485.792)"/><path class="f" d="M239.783,631.85a1.079,1.079,0,0,0-.137.274c-1.175,1.381-1.8,2.667-.671,2.693,1.05.029,2.311,1.91,2.615,2.385a.932.932,0,0,1-.037.108s-1.469-2.449-2.681-2.493S238.451,633.329,239.783,631.85Z" transform="translate(-193.215 -485.792)"/><path class="z" d="M239.35,635.8c0,.308.034.558.076.558s.078-.245.078-.558-.044-.162-.086-.162S239.35,635.49,239.35,635.8Z" transform="translate(-194.029 -488.624)"/><path class="z" d="M237.092,637.263c.272.147.507.245.529.2s-.184-.186-.455-.335-.164-.039-.184,0S236.82,637.113,237.092,637.263Z" transform="translate(-192.199 -489.718)"/><ellipse class="a" cx="7.01" cy="1.075" rx="7.01" ry="1.075" transform="translate(41.328 156.083)"/><path class="aa" d="M244.144,648.089l-.034.274-.047.387-.02.162L244,649.3l-.022.162-.047.387-.536,4.407c-.047.392-.688.7-1.469.7h-2.777c-.774,0-1.415-.306-1.469-.7l-.536-4.407-.047-.387-.02-.162-.049-.387-.02-.162-.047-.387-.034-.274c-.027-.223.321-.409.759-.409h5.7C243.823,647.68,244.171,647.866,244.144,648.089Z" transform="translate(-192.197 -497.746)"/><path class="ab" d="M190.11,614.76l-.047.387h-7.057l-.047-.387Z" transform="translate(-138.197 -464.142)"/><path class="ab" d="M190.248,617l-.047.387h-6.922L183.23,617Z" transform="translate(-138.401 -465.834)"/><path class="ab" d="M190.393,619.24l-.049.387h-6.788l-.047-.387Z" transform="translate(-138.612 -467.525)"/><path class="w" d="M1082.421,618s-.837,3.9,2.887,4.359l.23-.433S1082.652,619.21,1082.421,618Z" transform="translate(-830.602 -475.333)"/><path class="w" d="M1090.264,615.83l-.867.184-.086.02s-2.312-1.876-2.282-6.063a10.332,10.332,0,0,0,1.1,1.746A10.438,10.438,0,0,1,1090.264,615.83Z" transform="translate(-834.142 -469.269)"/><path class="w" d="M1095.084,611.783a.543.543,0,0,1-.465.061c-2.223-.519-1.469-7.765-1.469-7.765.122.056.245.979.769,2.169C1094.813,608.338,1095.8,611.259,1095.084,611.783Z" transform="translate(-838.671 -464.822)"/><path class="w" d="M1109.813,618s.145,3.9-3.58,4.359l-.233-.441S1109.582,619.21,1109.813,618Z" transform="translate(-848.468 -475.333)"/><path class="w" d="M1105.1,610a7.209,7.209,0,0,1-2.973,6.063l-.088-.02-.864-.184a10.56,10.56,0,0,1,2.128-4.114A9.427,9.427,0,0,1,1105.1,610Z" transform="translate(-844.828 -469.292)"/><path class="w" d="M1100.4,611.414a1.354,1.354,0,0,1-.49.38h0a.953.953,0,0,1-.184.061c-.546.127-.734-.267-.7-.938a17.351,17.351,0,0,1,1.469-4.812,6.009,6.009,0,0,1,1.4-2.015S1101.852,609.729,1100.4,611.414Z" transform="translate(-843.195 -464.829)"/><path class="w" d="M1098.378,593.7s-2.483,8.815-.345,10.132S1098.926,594.479,1098.378,593.7Z" transform="translate(-841.796 -456.983)"/><path class="f" d="M1082.421,618s-.837,3.9,2.887,4.359l.23-.433S1082.652,619.21,1082.421,618Z" transform="translate(-830.602 -475.333)"/><path class="f" d="M1090.264,615.83l-.867.184-.086.02s-2.312-1.876-2.282-6.063a10.332,10.332,0,0,0,1.1,1.746A10.438,10.438,0,0,1,1090.264,615.83Z" transform="translate(-834.142 -469.269)"/><path class="f" d="M1095.084,611.783a.543.543,0,0,1-.465.061c-2.223-.519-1.469-7.765-1.469-7.765.122.056.245.979.769,2.169C1094.813,608.338,1095.8,611.259,1095.084,611.783Z" transform="translate(-838.671 -464.822)"/><path class="f" d="M1109.813,618s.145,3.9-3.58,4.359l-.233-.441S1109.582,619.21,1109.813,618Z" transform="translate(-848.468 -475.333)"/><path class="f" d="M1105.1,610a7.209,7.209,0,0,1-2.973,6.063l-.088-.02-.864-.184a10.56,10.56,0,0,1,2.128-4.114A9.427,9.427,0,0,1,1105.1,610Z" transform="translate(-844.828 -469.292)"/><path class="f" d="M1100.4,611.414a1.354,1.354,0,0,1-.49.38h0a.953.953,0,0,1-.184.061c-.546.127-.734-.267-.7-.938a17.351,17.351,0,0,1,1.469-4.812,6.009,6.009,0,0,1,1.4-2.015S1101.852,609.729,1100.4,611.414Z" transform="translate(-843.195 -464.829)"/><path class="f" d="M1098.378,593.7s-2.483,8.815-.345,10.132S1098.926,594.479,1098.378,593.7Z" transform="translate(-841.796 -456.983)"/><path class="w" d="M1082.6,618s-.49,3.9,3.232,4.359l.23-.433S1082.835,619.21,1082.6,618Z" transform="translate(-830.785 -475.333)"/><path class="w" d="M1090.587,615.852l-.867.184-.086.02A7.445,7.445,0,0,1,1087,610s.681.735,1.45,1.746A10.289,10.289,0,0,1,1090.587,615.852Z" transform="translate(-834.12 -469.292)"/><path class="f" d="M1095.08,621.214l-.867.184c-.82-.72-1.146-2.6-1.264-4.3A10.443,10.443,0,0,1,1095.08,621.214Z" transform="translate(-838.613 -474.654)"/><path class="w" d="M1095.715,611.783a.549.549,0,0,1-.468.061c-2.223-.519-1.817-7.765-1.817-7.765a10.055,10.055,0,0,1,1.114,2.169C1095.443,608.338,1096.427,611.259,1095.715,611.783Z" transform="translate(-838.954 -464.822)"/><path class="w" d="M1110.892,618s.49,3.9-3.232,4.359l-.23-.433S1110.662,619.21,1110.892,618Z" transform="translate(-849.548 -475.333)"/><path class="w" d="M1106.17,610a7.434,7.434,0,0,1-2.627,6.063l-.086-.02-.867-.184a10.535,10.535,0,0,1,2.13-4.114C1105.489,610.735,1106.17,610,1106.17,610Z" transform="translate(-845.893 -469.292)"/><path class="f" d="M1104.72,617.1c-.113,1.582-.4,3.323-1.1,4.136a1.237,1.237,0,0,1-.159.162l-.867-.184A10.406,10.406,0,0,1,1104.72,617.1Z" transform="translate(-845.893 -474.653)"/><path class="w" d="M1101.811,611.414a1.324,1.324,0,0,1-.49.38h0a.978.978,0,0,1-.181.061c-.548.127-.734-.267-.708-.938a17.515,17.515,0,0,1,1.469-4.812,9.4,9.4,0,0,1,1.05-2.015S1103.263,609.729,1101.811,611.414Z" transform="translate(-844.261 -464.829)"/><path class="f" d="M1098.834,618.474a.588.588,0,0,1-.353-.113c-1.046-.651-1.068-3.1-.818-5.421C1098.563,615.029,1099.547,617.95,1098.834,618.474Z" transform="translate(-842.074 -471.512)"/><path class="f" d="M1101.818,617.629c-.12.262-.282.4-.49.379h0a.655.655,0,0,1-.3-.113,1.581,1.581,0,0,1-.593-.764,17.522,17.522,0,0,1,1.469-4.812C1102.149,614.467,1102.23,616.745,1101.818,617.629Z" transform="translate(-844.269 -471.044)"/><path class="w" d="M1099.194,593.7s-2.135,8.815,0,10.132S1099.742,594.479,1099.194,593.7Z" transform="translate(-842.611 -456.983)"/><path class="ac" d="M1037.331,597.61h-8.891v1.472h1.356l.034.174.544,2.858h5.169l.543-2.858.032-.174h1.212Z" transform="translate(-776.65 -451.192)"/><path class="f" d="M1037.331,597.61h-8.891v1.472h1.356l.034.174.544,2.858h5.169l.543-2.858.032-.174h1.212Z" transform="translate(-776.65 -451.192)"/><path class="ac" d="M1041.475,601.14l-.149.781-.544,2.858h-5.169l-.543-2.858-.149-.781Z" transform="translate(-781.543 -453.858)"/><path class="f" d="M1041.475,601.14l-.149.781h-6.256l-.149-.781Z" transform="translate(-781.543 -453.858)"/><rect class="ac" width="8.891" height="1.472" transform="translate(252.135 146.418)"/><path class="w" d="M146.381,730.541a4.273,4.273,0,0,0-.558,1.053c-.034.091-.069.2-.1.3a1.076,1.076,0,0,0-.193-.069,2.692,2.692,0,0,0-.874-.073c0-.115.015-.245.017-.36.037-1.291-.115-3.088-1.347-2.326-1.18.734-.338,1.959.424,2.742.066.069.132.132.2.193-.7.49-.828,1.648-.943,2.85a6.645,6.645,0,0,1-1.814,3.264c-.069.076-.13.145-.191.208a2.486,2.486,0,0,0-1.971-.507c-.027-.105-.059-.215-.091-.331-.549-1.981-1.687-5.411-3.139-6.163l.191-.245c.617-.806,1.312-2.005.287-2.312s-1.119,1.038-1.063,2.047q.015.191.029.36a1.5,1.5,0,0,0-1.072.524l-.159-.188c-.833-.979-2.358-2.539-2.821-1.361-.431,1.1.913,2.522,1.859,3.347l.059.051c-.634,2.574,2.135,4.672,3.626,5.59l.193.118c-2.057,2.424-3.328,6.969-3.328,6.969l5.759,1.028s3.82-3.3,3.33-6.391h.039c3.817-.764,4.684-4.834,4.089-7.25l.069-.027a4.322,4.322,0,0,0,1.768-1.337A1.418,1.418,0,0,0,146.381,730.541Z" transform="translate(-112.286 -558.941)"/><path class="f" d="M146.381,730.541a4.273,4.273,0,0,0-.558,1.053c-.034.091-.069.2-.1.3a1.076,1.076,0,0,0-.193-.069,2.692,2.692,0,0,0-.874-.073c0-.115.015-.245.017-.36.037-1.291-.115-3.088-1.347-2.326-1.18.734-.338,1.959.424,2.742.066.069.132.132.2.193-.7.49-.828,1.648-.943,2.85a6.645,6.645,0,0,1-1.814,3.264c-.069.076-.13.145-.191.208a2.486,2.486,0,0,0-1.971-.507c-.027-.105-.059-.215-.091-.331-.549-1.981-1.687-5.411-3.139-6.163l.191-.245c.617-.806,1.312-2.005.287-2.312s-1.119,1.038-1.063,2.047q.015.191.029.36a1.5,1.5,0,0,0-1.072.524l-.159-.188c-.833-.979-2.358-2.539-2.821-1.361-.431,1.1.913,2.522,1.859,3.347l.059.051c-.634,2.574,2.135,4.672,3.626,5.59l.193.118c-2.057,2.424-3.328,6.969-3.328,6.969l5.759,1.028s3.82-3.3,3.33-6.391h.039c3.817-.764,4.684-4.834,4.089-7.25l.069-.027a4.322,4.322,0,0,0,1.768-1.337A1.418,1.418,0,0,0,146.381,730.541Z" transform="translate(-112.286 -558.941)"/><path class="w" d="M136,735.315l-.673,1.959s-.375-.265-.847-.681c-.945-.825-2.289-2.25-1.859-3.347.463-1.178,1.988.377,2.821,1.362C135.781,735,136,735.315,136,735.315Z" transform="translate(-113.374 -562.041)"/><path class="w" d="M150.049,731.088a9.307,9.307,0,0,1-.656.774,10.327,10.327,0,0,1-.12-1.038c-.056-1.009.051-2.348,1.063-2.047S150.666,730.283,150.049,731.088Z" transform="translate(-125.999 -558.952)"/><path class="w" d="M182.038,731.883c-.02.649-.083,1.168-.083,1.168a8.542,8.542,0,0,1-.84-.752c-.762-.791-1.6-2.01-.424-2.743C181.911,728.793,182.063,730.593,182.038,731.883Z" transform="translate(-149.291 -559.436)"/><path class="w" d="M194.474,736.132a4.323,4.323,0,0,1-1.768,1.337,5.319,5.319,0,0,1-.593.215l-.793-1.114a7.874,7.874,0,0,1,.328-1.082,4.268,4.268,0,0,1,.558-1.053A1.417,1.417,0,0,1,194.474,736.132Z" transform="translate(-157.759 -562.835)"/><path class="f" d="M141.432,740.11c.335.392.558.7.558.7l-.673,1.959s-.375-.265-.847-.681a3.843,3.843,0,0,1,.759-1.731C141.3,740.272,141.366,740.188,141.432,740.11Z" transform="translate(-119.361 -567.543)"/><path class="f" d="M150.086,737.534a9.289,9.289,0,0,1-.656.774,10.331,10.331,0,0,1-.12-1.038A1.355,1.355,0,0,1,150.086,737.534Z" transform="translate(-126.036 -565.398)"/><path class="w" d="M146.6,746.449l-1.675.734s-.365-.176-.891-.5c-1.761-1.082-5.3-3.807-2.938-7.02s4.351,2.549,5.142,5.367C146.474,745.884,146.6,746.449,146.6,746.449Z" transform="translate(-119.238 -566.487)"/><path class="f" d="M184.18,740.036a1.376,1.376,0,0,1,.923-.416c-.02.649-.083,1.168-.083,1.168A8.543,8.543,0,0,1,184.18,740.036Z" transform="translate(-152.368 -567.173)"/><path class="f" d="M192.726,742.441a5.314,5.314,0,0,1-.593.215l-.793-1.114a7.868,7.868,0,0,1,.328-1.082A2.889,2.889,0,0,1,192.726,742.441Z" transform="translate(-157.774 -567.807)"/><path class="w" d="M169.615,750.149c-.091.02-.186.037-.282.051-5.615.852-1.851-2.177-1.851-2.177s.245-.245.6-.615a6.631,6.631,0,0,0,1.814-3.264c.176-1.819.38-3.526,2.527-3.026C174.527,741.613,174.931,749.084,169.615,750.149Z" transform="translate(-138.826 -568.238)"/><rect class="ad" width="10.727" height="2.821" transform="translate(19.956 195.89)"/><rect class="ad" width="14.016" height="9.844" transform="translate(18.252 186.723)"/><rect class="f" width="10.727" height="2.821" transform="translate(19.956 195.89)"/><rect class="f" width="14.016" height="9.844" transform="translate(18.252 186.723)"/><rect class="ad" width="10.727" height="2.821" transform="translate(20.661 195.89)"/><path class="f" d="M157.724,764.51c.245.842.362,1.42.362,1.42l-1.675.735s-.365-.176-.891-.5A4.3,4.3,0,0,1,157.724,764.51Z" transform="translate(-130.725 -585.968)"/><path class="f" d="M169.615,769.82c-.091.02-.186.037-.282.052-5.615.852-1.851-2.177-1.851-2.177s.245-.245.6-.615A3.718,3.718,0,0,1,169.615,769.82Z" transform="translate(-138.826 -587.909)"/><path class="w" d="M142.72,774.127s3.144-11.264,7.554-7.789-1.795,8.815-1.795,8.815Z" transform="translate(-121.06 -586.846)"/><circle class="f" cx="0.353" cy="0.353" r="0.353" transform="translate(22.894 174.585)"/><circle class="f" cx="0.353" cy="0.353" r="0.353" transform="translate(22.865 176.23)"/><circle class="f" cx="0.353" cy="0.353" r="0.353" transform="translate(33.093 174.908)"/><circle class="f" cx="0.353" cy="0.353" r="0.353" transform="translate(24.866 183.344)"/><circle class="f" cx="0.353" cy="0.353" r="0.353" transform="translate(32.358 177.641)"/><circle class="f" cx="0.353" cy="0.353" r="0.353" transform="translate(28.715 181.287)"/><circle class="f" cx="0.353" cy="0.353" r="0.353" transform="translate(24.099 175.29)"/><circle class="f" cx="0.353" cy="0.353" r="0.353" transform="translate(32.123 175.966)"/><circle class="f" cx="0.353" cy="0.353" r="0.353" transform="translate(30.919 178.698)"/><circle class="f" cx="0.353" cy="0.353" r="0.353" transform="translate(27.216 183.079)"/><circle class="f" cx="0.353" cy="0.353" r="0.353" transform="translate(26.452 181.345)"/><circle class="f" cx="0.353" cy="0.353" r="0.353" transform="translate(24.628 177.435)"/><rect class="f" width="10.727" height="1.031" transform="translate(20.661 195.89)"/><rect class="ad" width="14.016" height="9.844" transform="translate(18.957 186.723)"/><circle class="f" cx="0.353" cy="0.353" r="0.353" transform="translate(27.686 184.666)"/><circle class="f" cx="0.353" cy="0.353" r="0.353" transform="translate(25.571 185.107)"/><circle class="a" cx="2.561" cy="2.561" r="2.561" transform="translate(9.645 10.257)"/><circle class="a" cx="3.428" cy="3.428" r="3.428" transform="translate(254.76 89.972)"/><circle class="a" cx="2.503" cy="2.503" r="2.503" transform="translate(262.295 83.552)"/><circle class="a" cx="3.5" cy="3.5" r="3.5" transform="translate(12.76 -0.803)"/><ellipse class="a" cx="3.5" cy="3" rx="3.5" ry="3" transform="translate(-0.24 16.197)"/></g></svg>