<svg xmlns="http://www.w3.org/2000/svg" xmlns:xlink="http://www.w3.org/1999/xlink" width="233.799" height="186.425" viewBox="0 0 233.799 186.425"><defs><style>.a,.f{fill:#389df9;}.a,.c,.o{opacity:0.1;}.b{fill:#535461;}.d{fill:#fff;}.e{opacity:0.2;}.g{fill:url(#a);}.h{fill:#4c4c78;}.i{fill:#ffb9b9;}.j{fill:#cbcdda;}.k{opacity:0.05;}.l{fill:none;stroke:blue;stroke-miterlimit:10;}.m{fill:#474463;}.n{fill:#472727;}</style><linearGradient id="a" x1="-2.392" y1="1" x2="-2.392" gradientUnits="objectBoundingBox"><stop offset="0" stop-color="gray" stop-opacity="0.251"/><stop offset="0.54" stop-color="gray" stop-opacity="0.122"/><stop offset="1" stop-color="gray" stop-opacity="0.102"/></linearGradient></defs><ellipse class="a" cx="96.445" cy="6.69" rx="96.445" ry="6.69" transform="translate(16.1 173.044)"/><path class="a" d="M85.6,55c-6.01,7.035-7.53,15.954-7.613,24.5-.058,6.03.766,12.57,5.8,17.017,6.626,5.851,19.346,7,22.628,14.48,2.911,6.643-3.862,13.327-10.369,18.016S82.07,139.449,83.286,146.43c.77,4.458,5,7.958,9.209,10.9,8.012,5.6,17.017,10.495,27.169,12.877,18.419,4.317,38.313-.152,55.572-6.919,10.625-4.165,22.96-9.277,33.511-4.993,2.785,1.131,5.15,2.839,7.718,4.254,7.467,4.091,16.587,5.6,25.463,6.876,13.009,1.881,26.681,3.45,39.216.058s23.367-13.314,21.448-23.9c-1.809-9.969-13.327-16.466-22.505-23.276-3.238-2.4-6.534-5.587-5.728-9.082.64-2.772,3.654-4.7,6.341-6.493,14.142-9.48,24.536-22.568,29.314-36.918,2.257-6.771,3.072-14.572-1.964-20.282-4.062-4.606-11.023-6.818-17.644-8.638-12.286-3.379-24.879-6.234-37.8-7s-26.271.7-37.742,5.573c-5.5,2.34-10.488,5.421-16.043,7.673-15.772,6.395-34.357,5.535-51.947,4.525-6.285-.361-12.855-1-18.311-3.746-4.7-2.369-7.389-4.066-13.211-4.33C103.942,43.069,92.137,47.339,85.6,55Z" transform="translate(-77.988 -33.697)"/><path class="b" d="M237.457,304.764l-.246.508-1.6,3.28-16.746,34.386-28.417,69.627-4.062.031,28.432-69.659L234.2,303.15l1.417.7,1.6.79Z" transform="translate(-144.666 -235.266)"/><path class="b" d="M462.6,412.6l-3.343-.031-28.419-69.627-16.305-33.484-2.035-4.183-.249-.508.249-.123,2.035-1.008.979-.484L434.6,342.939Z" transform="translate(-319.953 -235.266)"/><rect class="b" width="3.634" height="118.801" transform="translate(90.949 58.531)"/><path class="b" d="M474.4,207.69a4.628,4.628,0,0,0-4.624,4.624v1.652a4.625,4.625,0,1,0,9.251,0v-1.652a4.631,4.631,0,0,0-4.626-4.624Zm3.468,6.27a3.471,3.471,0,1,1-6.941,0v-1.652a3.471,3.471,0,1,1,6.941,0Z" transform="translate(-382.053 -168.731)"/><path class="c" d="M357.857,310.522H354.1l-16.305-33.484v33.484h-3.632V276.136l-16.746,34.386H313.37l19.375-39.789,1.417.7V261.38h3.632v9.836l.978-.484Z" transform="translate(-243.214 -202.849)"/><path class="c" d="M479.026,229.08v1.487a4.625,4.625,0,1,1-9.251,0V229.08h1.155v1.487a3.471,3.471,0,0,0,6.941,0V229.08Z" transform="translate(-382.049 -185.332)"/><rect class="b" width="139.741" height="63.098" transform="translate(22.481 44.08)"/><rect class="d" width="134.454" height="57.482" transform="translate(24.96 46.061)"/><g class="e" transform="translate(38.238 52.311)"><rect class="f" width="6.357" height="2.895"/></g><g class="e" transform="translate(38.238 57.911)"><rect class="f" width="6.357" height="2.895"/></g><g class="e" transform="translate(38.238 63.509)"><rect class="f" width="6.357" height="2.895"/></g><g class="e" transform="translate(38.238 69.106)"><rect class="f" width="6.357" height="2.895"/></g><g class="e" transform="translate(38.238 74.706)"><rect class="f" width="6.357" height="2.895"/></g><g class="e" transform="translate(38.238 80.304)"><rect class="f" width="6.357" height="2.895"/></g><g class="e" transform="translate(38.238 85.902)"><rect class="f" width="6.357" height="2.895"/></g><g class="e" transform="translate(38.238 91.5)"><rect class="f" width="6.357" height="2.895"/></g><g class="e" transform="translate(50.206 94.397)"><rect class="f" width="6.357" height="2.895"/></g><g class="e" transform="translate(61.404 94.397)"><rect class="f" width="6.357" height="2.895"/></g><g class="e" transform="translate(72.599 94.397)"><rect class="f" width="6.357" height="2.895"/></g><g class="e" transform="translate(83.797 94.397)"><rect class="f" width="6.357" height="2.895"/></g><g class="e" transform="translate(94.993 94.397)"><rect class="f" width="6.357" height="2.895"/></g><g class="e" transform="translate(106.19 94.397)"><rect class="f" width="6.357" height="2.895"/></g><g class="e" transform="translate(117.386 94.397)"><rect class="f" width="6.357" height="2.895"/></g><g class="e" transform="translate(128.584 94.397)"><rect class="f" width="6.357" height="2.895"/></g><g class="e" transform="translate(139.779 94.397)"><rect class="f" width="6.357" height="2.895"/></g><rect class="f" width="6.357" height="18.146" transform="translate(50.206 73.354)"/><rect class="f" width="6.357" height="26.545" transform="translate(61.404 64.957)"/><rect class="f" width="6.357" height="33.591" transform="translate(72.599 57.911)"/><rect class="f" width="6.357" height="29.937" transform="translate(83.797 61.563)"/><rect class="f" width="6.357" height="36.294" transform="translate(94.993 55.208)"/><g class="e" transform="translate(106.19 69.106)"><rect class="f" width="6.357" height="22.393"/></g><g class="e" transform="translate(117.386 69.106)"><rect class="f" width="6.357" height="22.393"/></g><g class="e" transform="translate(128.584 69.106)"><rect class="f" width="6.357" height="22.393"/></g><g class="e" transform="translate(139.779 69.106)"><rect class="f" width="6.357" height="22.393"/></g><path class="b" d="M432.383,308.39l-54.433,3.35V312.8l55.593-2.206Z" transform="translate(-293.333 -239.333)"/><path class="g" d="M761.953,216.366a20.63,20.63,0,0,0,2.091-12.033c-.757-7.349-3.5-19.243-3.5-19.243s1.189-6.664-5.26-7.6a23.012,23.012,0,0,1-6.874-2.548,6.59,6.59,0,0,1-2.463-2.463s-.038.11-.112.311a3.566,3.566,0,0,1-.175-.311s-.016.04-.04.112l-1.095-1.706s-.15.159-.4.421a11.4,11.4,0,0,1-1.12-2.015,5.822,5.822,0,0,0,.8-.255,1.568,1.568,0,0,0,.652-.416,1.654,1.654,0,0,0,.3-.737,8.96,8.96,0,0,0,.148-2.588,12.754,12.754,0,0,1-.15-2.026c.049-.728.307-1.431.343-2.161a5.522,5.522,0,0,0-1.364-3.527c-.47-.607-1-1.171-1.406-1.82-.354-.564-.611-1.187-.992-1.735a5.992,5.992,0,0,0-3.921-2.3,13.946,13.946,0,0,0-4.642.152,38.589,38.589,0,0,1-4.03.627c-1.173.067-2.129-.329-3.2.448a3.1,3.1,0,0,0-1.249,2.239,1.185,1.185,0,0,0,.034.448,3.22,3.22,0,0,0,.224.437c.477.94-.249,2.058-.155,3.108A2.076,2.076,0,0,0,726.225,161c-.042.09-.09.177-.13.269a9.288,9.288,0,0,0,7.584,13l.417.32c.94.728,2,1.6,3.016,2.546l-.02.016-.166-.094a8.93,8.93,0,0,1-.976.672,9.13,9.13,0,0,1-4.174,1.413s-3.063,1.623-4.118,6.977a18,18,0,0,1-9.035,4.445c-6.016.9-13.435,1.189-13.435,1.189s-.06.107-.146.3l-.685-.125a1.232,1.232,0,0,1-.029.224l-.269-.121c-2.125-.929-6.37-2.284-6.908,1.449-.721,5.007,4.053,4.431,4.053,4.431a22.267,22.267,0,0,1,2.9-.88l.266-.051a1.482,1.482,0,0,0,.188.367h.649a7.667,7.667,0,0,0,.813,1.321l15.132-.331a15.885,15.885,0,0,1,4.973-.206c-1.041,7.783-2.27,16.319-2.27,16.319s-2.575,13.518-.773,14.93a27.431,27.431,0,0,1,3.193-.855,14.527,14.527,0,0,0,.264,2.488l1.153,7.548s.448,7.712,1.946,12.315l1.321,6.292,1.106,4.756.622,8.072a76.671,76.671,0,0,1,1.849,10.4c.584,5.423,3.757,14.187,4.18,15.34-1.084,1.534-3.309,4.136-6.1,4.4-3.986.385-4.082,2.788-1.3,3.652s8.647,0,8.647,0l8.267-2.044a7.169,7.169,0,0,0-.2,2.859c.528.385,8.551,2.463,8.84-.864q.033-.412.06-.8a16.925,16.925,0,0,0-.84-6.292c-.065-.2-.123-.4-.175-.6a3.715,3.715,0,0,0,.327-.423s.578-8.983,1.01-12.2c.034-.258.056-.571.067-.925.2-3.86-1.209-14.015-1.209-14.015s-1.74-6.605-1.675-9.642a2.9,2.9,0,0,1,.128-.743.814.814,0,0,0-.022-.161.431.431,0,0,1,.034-.128,71.154,71.154,0,0,1-.759-9.642,7.46,7.46,0,0,1,.224-1.59,10.446,10.446,0,0,0,.213-2.076c.112-2.463-.018-6.717-.2-10.707.02-.067.04-.134.056-.213a2.082,2.082,0,0,0-.11-.94c-.013-.258-.025-.513-.038-.766.074-.253.134-.522.188-.8h.116v.016s7.528-.361,9.259-2.378c0,0-1.749-5.434-2.718-9.852Zm-32.44-16.9-.119-.043c.19-.672.417-1.453.672-2.273C729.848,198.034,729.66,198.84,729.512,199.463Zm7.64-22.277.034.031-.036-.02Zm9.4,116.55c-.405-1.395-2.015-7.082-1.964-9.794a2.763,2.763,0,0,1,.123-.694,5.186,5.186,0,0,0,.224-1.516,40.314,40.314,0,0,0-.923-7.9s-2.425-6.84-2.239-12.273c0-.137.016-.273.025-.41.04-.515.072-1.073.094-1.661v-.011c.092-2.1.072-4.624.011-6.979l-.013-.087c-.083-3.119-.237-5.927-.3-7.038.224,1.605,1.657,11.6,2.275,13.233a33.557,33.557,0,0,0,1.874,8.509l1.684,10.134s.432,12.06,1.151,15.47c.322,1.518.6,2.541.8,3.209-.291,1.359-.761,3.636-1.077,5.522-.186-1.229-.84-5.913-1.74-7.712Z" transform="translate(-558.457 -125.195)"/><path class="h" d="M851.417,782.144s-2.81,5.094-6.762,5.475-4.046,2.761-1.285,3.618,8.571,0,8.571,0l8.285-2.047s-1-8.191-2.333-8.618S851.417,782.144,851.417,782.144Z" transform="translate(-670.516 -613.292)"/><path class="h" d="M925.271,786.168s-2.1,9.427-1.567,9.81,8.475,2.427,8.762-.858q.034-.414.06-.793a16.808,16.808,0,0,0-.833-6.236,4.989,4.989,0,0,1-.322-1.923C931.5,784.835,925.271,786.168,925.271,786.168Z" transform="translate(-734.272 -617.222)"/><path class="i" d="M864.435,215.553s-6.428,15.79-5.284,10.719c.757-3.359-4.136-7.821-7.519-10.443-1.722-1.343-3.052-2.2-3.052-2.2s12.069-14.071,11.214-8a9.142,9.142,0,0,0,.658,4.9A12.84,12.84,0,0,0,864.435,215.553Z" transform="translate(-676.036 -165.954)"/><path class="i" d="M706.782,335.015a3.684,3.684,0,0,0-1.471.092,22.106,22.106,0,0,0-2.868.871s-4.731.571-4.017-4.391c.531-3.7,4.738-2.356,6.845-1.438.716.316,1.191.58,1.191.58Z" transform="translate(-559.445 -262.985)"/><path class="c" d="M730,338.526a3.685,3.685,0,0,0-1.471.092c-.515-1.3-.123-4.377-.04-4.957.716.316,1.191.58,1.191.58Z" transform="translate(-582.66 -266.495)"/><path class="j" d="M731,333.454l-1.238-.224s-.634,4.254.195,5.374h1.424Z" transform="translate(-583.639 -266.161)"/><path class="h" d="M820.349,365.951s-3.784-2.264-4.236.593-1.048,7.738-1.048,7.738l-1.048,6.214-1.357,12.449.19,2.118s4.03-1.357,4.975-.88,1.715-5.237,1.715-5.237l1.567-5.9.237-12.521Z" transform="translate(-648.159 -290.895)"/><path class="c" d="M820.349,365.951s-3.784-2.264-4.236.593-1.048,7.738-1.048,7.738l-1.048,6.214-1.357,12.449.19,2.118s4.03-1.357,4.975-.88,1.715-5.237,1.715-5.237l1.567-5.9.237-12.521Z" transform="translate(-648.159 -290.895)"/><path class="h" d="M755.269,303.4a18.158,18.158,0,0,1-9.89,5.32c-5.963.891-13.321,1.18-13.321,1.18a6.454,6.454,0,0,0,.822,6.856l15-.331a14.5,14.5,0,0,1,5.893,0Z" transform="translate(-585.119 -243.01)"/><path class="k" d="M755.269,303.4a18.158,18.158,0,0,1-9.89,5.32c-5.963.891-13.321,1.18-13.321,1.18a6.454,6.454,0,0,0,.822,6.856l15-.331a14.5,14.5,0,0,1,5.893,0Z" transform="translate(-585.119 -243.01)"/><path class="l" d="M692.29,384.58" transform="translate(-554.741 -306.013)"/><path class="c" d="M859.816,210.394c-1.464,3.135-4.01,5.446-7.7,5.446-.163,0-.322,0-.481-.011-1.722-1.343-3.052-2.2-3.052-2.2s12.069-14.071,11.214-8C859.529,207.49,859.227,209,859.816,210.394Z" transform="translate(-676.036 -165.954)"/><path class="i" d="M841.661,182.207a9.18,9.18,0,1,1-2.686-6.515A9.2,9.2,0,0,1,841.661,182.207Z" transform="translate(-656.385 -141.809)"/><path class="j" d="M856.383,302.234s-20.519,1.811-21.272-.808,2.094-9.713,2.094-9.713l-.927-9.9-.034-.378s2.57-10.714,2.476-11.569c-.09-.77,4.138-9.76,5.007-11.6.1-.213.157-.329.157-.329l.163.094.072.043,1.005.587,3.97-.94,4.785-2.506.448,27.409Z" transform="translate(-665.484 -205.611)"/><path class="c" d="M865.59,268.687a1.635,1.635,0,0,0-1.953,1.023,14.551,14.551,0,0,1-.761,1.762l-.546,3.26-1,5.15-.739,22.783.334,4.046,1.834-3.26.334-21.3v-2.649a19.176,19.176,0,0,1,1.527-6.65l.255-.6,1.594-2.049Z" transform="translate(-685.357 -216.034)"/><path class="h" d="M864.32,267.407a1.634,1.634,0,0,0-1.953,1.023,14.425,14.425,0,0,1-.764,1.762l-.546,3.262-1,5.15-.737,22.783.334,4.048,1.834-3.271.334-21.283v-2.656a19.277,19.277,0,0,1,1.527-6.65l.258-.6,1.594-2.047Z" transform="translate(-684.371 -215.04)"/><path class="c" d="M885.662,241.31s-4.857,5.15-6.572,5.761c0,0,.858,3.9,1.715,4.666,0,0,5.1-5.2,6-5.618l.757-1.852Z" transform="translate(-699.714 -194.823)"/><path class="j" d="M885.662,240s-4.857,5.15-6.572,5.761c0,0,.858,3.9,1.715,4.666,0,0,5.1-5.2,6-5.618l.757-1.85Z" transform="translate(-699.714 -193.807)"/><path class="c" d="M848.534,267.37l-.049.134-1.556,4.171-2.783,7.87s-.025.081-.074.224c-.461,1.433-2.94,9.21-3.428,11.469l-.034-.378s2.57-10.714,2.476-11.569c-.09-.77,4.138-9.76,5.007-11.6.139-.094.246-.175.32-.235Z" transform="translate(-669.85 -215.048)"/><path class="h" d="M824.987,267.36l-1.608,4.308-2.783,7.87s-.025.081-.074.224c-.488,1.527-3.271,10.244-3.5,11.838-.253,1.751-3.753,11.216-3.753,11.216l-2,16.388c-1.791-1.39.752-14.778.752-14.778s2.857-19.854,3.533-26.46,4.324-8.535,4.324-8.535a9.12,9.12,0,0,0,4.136-1.4A8.74,8.74,0,0,0,824.987,267.36Z" transform="translate(-646.588 -215.04)"/><path class="c" d="M858.31,512.951c-.428,3.191-1,12.091-1,12.091-2,3-6.429,1.379-6.429,1.379a20.053,20.053,0,0,1-1.189-4.286c-.714-3.39-1.142-15.331-1.142-15.331l-1.668-10.031a33.151,33.151,0,0,1-1.856-8.428c-.672-1.762-2.286-13.332-2.286-13.332a152,152,0,0,1,.24,15.855c-.432,5.477,2.188,12.846,2.188,12.846s1.478,6.905.714,9.048,1.906,11,1.906,11c-.224,2.573-7.806,1.525-7.806,1.525s-3.567-9.572-4.192-15.333a76.125,76.125,0,0,0-1.834-10.3l-.618-8-1.1-4.729-1.308-6.236c-1.478-4.57-1.928-12.212-1.928-12.212l-1.144-7.5c-.748-3.708.224-8.061.869-10.338.28-.987.5-1.59.5-1.59.656.466,4.413,1.012,6.357,1.455a11.143,11.143,0,0,0,3.247.26,72.345,72.345,0,0,0,14.507-2.66c.32-.1.49-.152.49-.152l.1.858.237,2.042.423,3.625s1.285,19.33.524,21.943.524,11.419.524,11.419c-.714,2.089,1.523,10.58,1.523,10.58S858.739,509.761,858.31,512.951Z" transform="translate(-659.747 -355.194)"/><path class="m" d="M858.31,511.74c-.428,3.191-1,12.091-1,12.091-2,3-6.429,1.379-6.429,1.379a20.049,20.049,0,0,1-1.189-4.283c-.714-3.388-1.142-15.333-1.142-15.333l-1.668-10.045a33.751,33.751,0,0,1-1.856-8.439c-.672-1.762-2.286-13.332-2.286-13.332a152,152,0,0,1,.24,15.855c-.432,5.477,2.188,12.855,2.188,12.855s1.478,6.905.714,9.048,1.906,11,1.906,11c-.224,2.57-7.806,1.523-7.806,1.523s-3.567-9.561-4.192-15.324a76.123,76.123,0,0,0-1.834-10.3l-.618-8-1.1-4.713-1.308-6.236c-1.478-4.572-1.928-12.214-1.928-12.214l-1.144-7.5c-.748-3.708.224-8.061.869-10.338.28-.985.5-1.588.5-1.588.656.466,4.413,1.01,6.357,1.453a11.065,11.065,0,0,0,3.247.26,72.344,72.344,0,0,0,14.507-2.66l.49-.15.1.855.237,2.044.423,3.625s1.285,19.328.524,21.943.524,11.419.524,11.419c-.714,2.087,1.523,10.578,1.523,10.578S858.739,508.545,858.31,511.74Z" transform="translate(-659.747 -354.263)"/><path class="c" d="M844.432,182.237a9.18,9.18,0,0,1-1.218,4.586,4.814,4.814,0,0,1-4.03-.974,19.8,19.8,0,0,1-1.841-2.282,13.81,13.81,0,0,0-1.314-1.3,4.171,4.171,0,0,0-1.037-.755,1.408,1.408,0,0,0-1.243-.013c-.506.282-.672.911-.965,1.413a1.888,1.888,0,0,1-1.055.92,1.119,1.119,0,0,1-1.261-.428c-.311-.535-.083-1.37-.6-1.7a3.333,3.333,0,0,0-.426-.175c-.672-.3-.75-1.207-.808-1.946a1.213,1.213,0,0,0-.412-.967,1.9,1.9,0,0,0-1.068-.09,1.386,1.386,0,0,1-.32-.025,9.2,9.2,0,0,1,17.611,3.728Z" transform="translate(-659.156 -141.838)"/><path class="n" d="M819.992,155.948a3.072,3.072,0,0,0-1.238,2.226,1.146,1.146,0,0,0,.034.437,2.949,2.949,0,0,0,.224.434c.47.934-.249,2.04-.157,3.081a2.049,2.049,0,0,0,2.015,1.791c.363,0,.761-.107,1.068.09a1.209,1.209,0,0,1,.412.967c.058.739.132,1.641.806,1.946a3.765,3.765,0,0,1,.425.175c.524.327.3,1.164.607,1.7a1.119,1.119,0,0,0,1.261.428,1.881,1.881,0,0,0,1.052-.918c.289-.5.461-1.12.967-1.413a1.4,1.4,0,0,1,1.243.011,4.18,4.18,0,0,1,1.037.757,13.56,13.56,0,0,1,1.314,1.3,19.987,19.987,0,0,0,1.841,2.279,5.091,5.091,0,0,0,5.208.643,1.581,1.581,0,0,0,.647-.412,1.643,1.643,0,0,0,.293-.732,8.881,8.881,0,0,0,.148-2.564,12.712,12.712,0,0,1-.15-2.015c.047-.721.3-1.417.34-2.138a5.509,5.509,0,0,0-1.343-3.5c-.466-.6-.99-1.16-1.393-1.8-.352-.56-.607-1.176-.983-1.717a5.922,5.922,0,0,0-3.887-2.277,13.811,13.811,0,0,0-4.6.152,37.359,37.359,0,0,1-4,.62C822,155.571,821.058,155.175,819.992,155.948Z" transform="translate(-652.882 -127.515)"/><path class="c" d="M859.255,267.36l-1.608,4.308-2.783,7.87s-.025.081-.074.224v.011l3.5-11.746A8.73,8.73,0,0,0,859.255,267.36Z" transform="translate(-680.855 -215.04)"/><path class="i" d="M935.105,480.449s.166,5.213-1.238,6.523l-3.737-7.046,3.135-1.525Z" transform="translate(-739.326 -378.826)"/><path class="c" d="M905.8,302.85c-1.715,2-9.18,2.358-9.18,2.358l-7.389-11.643s-1.749-1.214-5.034-6.679a20.226,20.226,0,0,1-2.994-12.819c.184-3.144,2.239-12.179,2.239-12.179.32-2.033,4.926-14.778,4.926-14.778a6.545,6.545,0,0,0,2.436,2.436,22.694,22.694,0,0,0,6.814,2.526c6.395.929,5.215,7.535,5.215,7.535s.072,25.676-.323,28.748S905.8,302.85,905.8,302.85Z" transform="translate(-701.294 -199.325)"/><path class="j" d="M858.5,447.727l-.215,1.905-2.6-.952-1.9-2.882,1.429-1.12Z" transform="translate(-662.628 -345.106)"/><path class="c" d="M859.48,450l-1.357.139-13.083,1.308a21.2,21.2,0,0,1-6.292-.309l-6.068-1.214c.28-.985.5-1.588.5-1.588.656.466,4.413,1.01,6.357,1.453a11.068,11.068,0,0,0,3.247.26,72.345,72.345,0,0,0,14.507-2.66l.591.705Z" transform="translate(-663.696 -354.76)"/><g class="o" transform="translate(169.486 92.485)"><path d="M835.059,451.692a1.19,1.19,0,0,1-.125-.072.066.066,0,0,1-.013.034Z" transform="translate(-834.92 -450.527)"/><path d="M937.852,497.205s-2.239-8.491-1.523-10.578c0,0-1.285-8.8-.522-11.419s-.526-21.943-.526-21.943l-.423-3.625-.237-2.044-.1-.855-.493.15-.3.09.038.331.237,2.042.423,3.625s1.285,19.33.526,21.943.522,11.419.522,11.419c-.714,2.089,1.523,10.578,1.523,10.578s1.567,11.334,1.144,14.523-1,12.091-1,12.091c-1.46,2.192-4.216,1.919-5.6,1.612l.025.054s4.429,1.621,6.428-1.379c0,0,.571-8.9,1-12.091S937.852,497.205,937.852,497.205Z" transform="translate(-909.906 -446.74)"/><path d="M888.611,604.335c.761-2.143-.714-9.048-.714-9.048s-2.618-7.389-2.19-12.855c.179-2.282.168-5.412.092-8.285-.607-3.706-1.189-7.837-1.189-7.837a152.406,152.406,0,0,1,.242,15.853c-.43,5.475,2.188,12.857,2.188,12.857s1.478,6.9.714,9.046,1.9,10.987,1.9,10.987c-.19,2.06-5.083,1.791-7.024,1.612l.074.2s7.57,1.048,7.808-1.523C890.516,615.333,887.849,606.477,888.611,604.335Z" transform="translate(-871.947 -539.537)"/></g><path class="h" d="M907.061,302.85c-1.713,2-9.18,2.358-9.18,2.358l-7.389-11.643s-1.749-1.214-5.036-6.679a20.226,20.226,0,0,1-2.994-12.819c.181-3.144,2.239-12.179,2.239-12.179.32-2.033,4.926-14.778,4.926-14.778a6.512,6.512,0,0,0,2.436,2.436,22.694,22.694,0,0,0,6.814,2.526c6.393.929,5.213,7.535,5.213,7.535s.072,25.676-.322,28.748S907.061,302.85,907.061,302.85Z" transform="translate(-702.274 -199.325)"/><path class="c" d="M891.261,253.405l-1.608.6,1.07.75-7.994,19.283c.186-3.135,2.239-12.178,2.239-12.178.32-2.033,4.926-14.778,4.926-14.778a6.513,6.513,0,0,0,2.436,2.436Z" transform="translate(-702.539 -199.301)"/><path class="c" d="M851.5,387.727l8.177-2.107,1.073,3.321-8.356,2.038Z" transform="translate(-660.85 -299.27)"/><path class="c" d="M933.986,279.744s-3.715,3.5-2.313,11.285,3.643,16.247,3.643,16.247l-6.046,16.749s4.214,4.393,6.285,4.926l6.034-13.392a20.45,20.45,0,0,0,2.071-11.926c-.75-7.284-3.464-19.071-3.464-19.071S940.2,277.389,933.986,279.744Z" transform="translate(-738.658 -224.283)"/><path class="h" d="M935.224,279.744s-3.717,3.5-2.32,11.285,3.641,16.247,3.641,16.247L930.5,324.025s4.214,4.393,6.285,4.926l6.046-13.392a20.45,20.45,0,0,0,2.071-11.926c-.75-7.284-3.464-19.071-3.464-19.071S941.438,277.389,935.224,279.744Z" transform="translate(-739.613 -224.283)"/><path class="c" d="M928.265,480.641s4.713,6.525,4.357,8.262a1.056,1.056,0,0,1-1.737.808l-1.856-2.546L927.36,482.4S927.523,480.347,928.265,480.641Z" transform="translate(-737.176 -380.543)"/><path class="c" d="M925.714,480.641s4.7,6.525,4.357,8.262a1.056,1.056,0,0,1-1.737.808l-1.859-2.546L924.81,482.4S924.973,480.347,925.714,480.641Z" transform="translate(-735.197 -380.543)"/><path class="m" d="M926.995,480.641s4.7,6.525,4.355,8.262a1.056,1.056,0,0,1-1.737.808l-1.856-2.546L926.09,482.4S926.251,480.347,926.995,480.641Z" transform="translate(-736.19 -380.543)"/></svg>