<?xml version="1.0" encoding="UTF-8"?>
<svg width="235px" height="56px" viewBox="0 0 235 56" version="1.1" xmlns="http://www.w3.org/2000/svg" xmlns:xlink="http://www.w3.org/1999/xlink">
    <!-- Generator: Sketch 52.6 (67491) - http://www.bohemiancoding.com/sketch -->
    <title>web/img_sitelogo</title>
    <desc>Created with Sketch.</desc>
    <defs>
        <rect id="path-1" x="0" y="0" width="39.3567272" height="39.6330275" rx="19.6783636"></rect>
    </defs>
    <g id="web/img_sitelogo" stroke="none" stroke-width="1" fill="none" fill-rule="evenodd">
        <g id="Group-2" transform="translate(1.000000, 8.000000)">
            <g id="Group-4" transform="translate(51.245136, 12.000000)"></g>
            <g id="launch_icon_new">
                <g id="Rectangle-5">
                    <mask id="mask-2" fill="white">
                        <use xlink:href="#path-1"></use>
                    </mask>
                    <use id="Mask" fill="#EA2035" xlink:href="#path-1"></use>
                    <rect fill="#FFFFFF" mask="url(#mask-2)" x="11.8070182" y="19.8165138" width="5.24756363" height="19.8165138"></rect>
                </g>
                <path d="M20.3343091,28.7706422 C15.6248163,28.7706422 11.8070182,24.9260415 11.8070182,20.1834862 C11.8070182,15.440931 15.6248163,11.5963303 20.3343091,11.5963303 C25.0438018,11.5963303 28.8616,15.440931 28.8616,20.1834862 C28.8616,24.9260415 25.0438018,28.7706422 20.3343091,28.7706422 Z M20.3343091,23.4862385 C22.1456524,23.4862385 23.6140363,22.007546 23.6140363,20.1834862 C23.6140363,18.3594265 22.1456524,16.8807339 20.3343091,16.8807339 C18.5229657,16.8807339 17.0545818,18.3594265 17.0545818,20.1834862 C17.0545818,22.007546 18.5229657,23.4862385 20.3343091,23.4862385 Z" id="Combined-Shape" fill="#FFFFFF"></path>
            </g>
        </g>
        <path d="M50,42.5258856 L50,16.7656676 L58.96,16.7656676 C60.4000072,16.7656676 61.7466604,16.9039496 63,17.1805177 C64.2533396,17.4570859 65.346662,17.9180258 66.28,18.5633515 C67.213338,19.2086772 67.9533306,20.0647086 68.5,21.1314714 C69.0466694,22.1982342 69.32,23.5086207 69.32,25.0626703 C69.32,26.5640402 69.0466694,27.8678419 68.5,28.9741144 C67.9533306,30.080387 67.213338,30.9890973 66.28,31.7002725 C65.346662,32.4114477 64.2666728,32.9382363 63.04,33.280654 C61.8133272,33.6230716 60.5066736,33.7942779 59.12,33.7942779 L55.88,33.7942779 L55.88,42.5258856 L50,42.5258856 Z M55.88,29.1716621 L58.76,29.1716621 C61.960016,29.1716621 63.56,27.8020119 63.56,25.0626703 C63.56,23.7193393 63.1333376,22.7711199 62.28,22.2179837 C61.4266624,21.6648474 60.200008,21.3882834 58.6,21.3882834 L55.88,21.3882834 L55.88,29.1716621 Z M79.32,43 C77.1599892,43 75.5933382,42.3020052 74.62,40.9059946 C73.6466618,39.5099839 73.16,37.574036 73.16,35.0980926 L73.16,22.9291553 L79.04,22.9291553 L79.04,34.3474114 C79.04,35.7697619 79.239998,36.7443207 79.64,37.2711172 C80.040002,37.7979136 80.6666624,38.0613079 81.52,38.0613079 C82.2666704,38.0613079 82.8933308,37.8901016 83.4,37.5476839 C83.9066692,37.2052662 84.4533304,36.6521382 85.04,35.8882834 L85.04,22.9291553 L90.92,22.9291553 L90.92,42.5258856 L86.12,42.5258856 L85.68,39.7997275 L85.56,39.7997275 C84.7066624,40.8006408 83.7933382,41.5842388 82.82,42.150545 C81.8466618,42.7168512 80.6800068,43 79.32,43 Z M106.48,43 C105.599996,43 104.713338,42.7826997 103.82,42.3480926 C102.926662,41.9134856 102.093337,41.2747544 101.32,40.4318801 L101.16,40.4318801 L100.68,42.5258856 L96.08,42.5258856 L96.08,14.8297003 L101.96,14.8297003 L101.96,21.6253406 L101.8,24.6280654 C102.573337,23.94323 103.406662,23.4098566 104.3,23.0279292 C105.193338,22.6460017 106.106662,22.4550409 107.04,22.4550409 C108.240006,22.4550409 109.319995,22.6920957 110.28,23.1662125 C111.240005,23.6403293 112.059997,24.3053999 112.74,25.1614441 C113.420003,26.0174884 113.939998,27.0578958 114.3,28.2826975 C114.660002,29.5074993 114.84,30.8705647 114.84,32.3719346 C114.84,34.0576833 114.606669,35.5590307 114.14,36.8760218 C113.673331,38.1930129 113.046671,39.3058538 112.26,40.2145777 C111.473329,41.1233015 110.580005,41.8147115 109.58,42.2888283 C108.579995,42.7629451 107.546672,43 106.48,43 Z M105.12,38.2588556 C106.133338,38.2588556 106.999996,37.8045005 107.72,36.8957766 C108.440004,35.9870527 108.8,34.5186296 108.8,32.4904632 C108.8,28.9609269 107.653345,27.1961853 105.36,27.1961853 C104.186661,27.1961853 103.053339,27.7888224 101.96,28.9741144 L101.96,36.9945504 C102.493336,37.4686672 103.026664,37.7979101 103.56,37.9822888 C104.093336,38.1666676 104.613331,38.2588556 105.12,38.2588556 Z M124.4,43 C123.386662,43 122.533337,42.8419634 121.84,42.5258856 C121.146663,42.2098077 120.593335,41.7686223 120.18,41.2023161 C119.766665,40.6360099 119.466668,39.9511848 119.28,39.1478202 C119.093332,38.3444556 119,37.4423302 119,36.4414169 L119,14.8297003 L124.88,14.8297003 L124.88,36.6784741 C124.88,37.28429 124.993332,37.7057209 125.22,37.9427793 C125.446668,38.1798377 125.679999,38.2983651 125.92,38.2983651 L126.26,38.2983651 C126.353334,38.2983651 126.479999,38.2720257 126.64,38.219346 L127.36,42.5258856 C127.039998,42.6575847 126.633336,42.7695272 126.14,42.8617166 C125.646664,42.953906 125.06667,43 124.4,43 Z M130.44,42.5258856 L130.44,22.9291553 L136.32,22.9291553 L136.32,42.5258856 L130.44,42.5258856 Z M133.36,20.0449591 C132.373328,20.0449591 131.560003,19.7618103 130.92,19.1955041 C130.279997,18.6291979 129.96,17.8982788 129.96,17.0027248 C129.96,16.1071708 130.279997,15.3828366 130.92,14.8297003 C131.560003,14.276564 132.373328,14 133.36,14 C134.373338,14 135.19333,14.276564 135.82,14.8297003 C136.44667,15.3828366 136.76,16.1071708 136.76,17.0027248 C136.76,17.8982788 136.44667,18.6291979 135.82,19.1955041 C135.19333,19.7618103 134.373338,20.0449591 133.36,20.0449591 Z M150.12,43 C148.733326,43 147.446673,42.76953 146.26,42.3085831 C145.073327,41.8476362 144.040004,41.1825657 143.16,40.3133515 C142.279996,39.4441373 141.586669,38.3708057 141.08,37.0933243 C140.573331,35.8158428 140.32,34.3605895 140.32,32.7275204 C140.32,31.0944514 140.599997,29.639198 141.16,28.3617166 C141.720003,27.0842352 142.473329,26.0109035 143.42,25.1416894 C144.366671,24.2724752 145.46666,23.6074047 146.72,23.1464578 C147.97334,22.6855109 149.279993,22.4550409 150.64,22.4550409 C151.866673,22.4550409 152.953329,22.6525866 153.9,23.0476839 C154.846671,23.4427813 155.69333,23.9432304 156.44,24.5490463 L153.68,28.3024523 C152.746662,27.5385975 151.853338,27.1566757 151,27.1566757 C149.559993,27.1566757 148.426671,27.6571249 147.6,28.6580381 C146.773329,29.6589514 146.36,31.0154319 146.36,32.7275204 C146.36,34.4396089 146.779996,35.7960895 147.62,36.7970027 C148.460004,37.797916 149.519994,38.2983651 150.8,38.2983651 C151.440003,38.2983651 152.059997,38.1600831 152.66,37.883515 C153.260003,37.6069468 153.826664,37.2711191 154.36,36.8760218 L156.68,40.6689373 C155.693328,41.5118117 154.626672,42.1110336 153.48,42.4666213 C152.333328,42.8222089 151.213339,43 150.12,43 Z M165.16,42.5258856 L157.28,16.7656676 L163.52,16.7656676 L166.64,28.7765668 C167.040002,30.1989172 167.393332,31.5751523 167.7,32.9053134 C168.006668,34.2354744 168.359998,35.6117095 168.76,37.0340599 L168.92,37.0340599 C169.293335,35.6117095 169.639998,34.2354744 169.96,32.9053134 C170.280002,31.5751523 170.626665,30.1989172 171,28.7765668 L174.08,16.7656676 L180.08,16.7656676 L172.24,42.5258856 L165.16,42.5258856 Z M182.4,42.5258856 L182.4,22.9291553 L188.28,22.9291553 L188.28,42.5258856 L182.4,42.5258856 Z M185.32,20.0449591 C184.333328,20.0449591 183.520003,19.7618103 182.88,19.1955041 C182.239997,18.6291979 181.92,17.8982788 181.92,17.0027248 C181.92,16.1071708 182.239997,15.3828366 182.88,14.8297003 C183.520003,14.276564 184.333328,14 185.32,14 C186.333338,14 187.15333,14.276564 187.78,14.8297003 C188.40667,15.3828366 188.72,16.1071708 188.72,17.0027248 C188.72,17.8982788 188.40667,18.6291979 187.78,19.1955041 C187.15333,19.7618103 186.333338,20.0449591 185.32,20.0449591 Z M203.84,43 C202.959996,43 202.073338,42.7826997 201.18,42.3480926 C200.286662,41.9134856 199.453337,41.2747544 198.68,40.4318801 L198.52,40.4318801 L198.04,42.5258856 L193.44,42.5258856 L193.44,14.8297003 L199.32,14.8297003 L199.32,21.6253406 L199.16,24.6280654 C199.933337,23.94323 200.766662,23.4098566 201.66,23.0279292 C202.553338,22.6460017 203.466662,22.4550409 204.4,22.4550409 C205.600006,22.4550409 206.679995,22.6920957 207.64,23.1662125 C208.600005,23.6403293 209.419997,24.3053999 210.1,25.1614441 C210.780003,26.0174884 211.299998,27.0578958 211.66,28.2826975 C212.020002,29.5074993 212.2,30.8705647 212.2,32.3719346 C212.2,34.0576833 211.966669,35.5590307 211.5,36.8760218 C211.033331,38.1930129 210.406671,39.3058538 209.62,40.2145777 C208.833329,41.1233015 207.940005,41.8147115 206.94,42.2888283 C205.939995,42.7629451 204.906672,43 203.84,43 Z M202.48,38.2588556 C203.493338,38.2588556 204.359996,37.8045005 205.08,36.8957766 C205.800004,35.9870527 206.16,34.5186296 206.16,32.4904632 C206.16,28.9609269 205.013345,27.1961853 202.72,27.1961853 C201.546661,27.1961853 200.413339,27.7888224 199.32,28.9741144 L199.32,36.9945504 C199.853336,37.4686672 200.386664,37.7979101 200.92,37.9822888 C201.453336,38.1666676 201.973331,38.2588556 202.48,38.2588556 Z M225.24,43 C223.82666,43 222.506673,42.76953 221.28,42.3085831 C220.053327,41.8476362 218.986671,41.1759808 218.08,40.2935967 C217.173329,39.4112127 216.466669,38.337881 215.96,37.0735695 C215.453331,35.809258 215.2,34.3605895 215.2,32.7275204 C215.2,31.1471311 215.466664,29.7182171 216,28.4407357 C216.533336,27.1632543 217.233329,26.0833377 218.1,25.2009537 C218.966671,24.3185696 219.959994,23.6403293 221.08,23.1662125 C222.200006,22.6920957 223.359994,22.4550409 224.56,22.4550409 C225.97334,22.4550409 227.206661,22.6920957 228.26,23.1662125 C229.313339,23.6403293 230.19333,24.298815 230.9,25.1416894 C231.60667,25.9845637 232.133332,26.9788771 232.48,28.1246594 C232.826668,29.2704417 233,30.5149797 233,31.8583106 C233,32.3851071 232.973334,32.8855562 232.92,33.359673 C232.866666,33.8337898 232.813334,34.1893721 232.76,34.4264305 L220.88,34.4264305 C221.146668,35.848781 221.739995,36.8957732 222.66,37.5674387 C223.580005,38.2391042 224.70666,38.5749319 226.04,38.5749319 C227.45334,38.5749319 228.879993,38.1403313 230.32,37.2711172 L232.28,40.7874659 C231.266662,41.4723013 230.140006,42.0122596 228.9,42.4073569 C227.659994,42.8024543 226.440006,43 225.24,43 Z M220.84,30.5940054 L228,30.5940054 C228,29.4877329 227.746669,28.5921923 227.24,27.9073569 C226.733331,27.2225216 225.880006,26.880109 224.68,26.880109 C223.746662,26.880109 222.92667,27.1830124 222.22,27.7888283 C221.51333,28.3946443 221.053334,29.329694 220.84,30.5940054 Z" id="PublicVibe-Copy" fill="#EA2035"></path>
    </g>
</svg>